<svg width="1314" height="222" viewBox="0 0 1314 222" fill="none" xmlns="http://www.w3.org/2000/svg">
<path d="M1207.03 188.971V189.338L1207.38 189.448L1219.44 193.223V196.241H1151.13V193.224L1164.06 189.197L1164.42 189.088V188.72V98.9839V98.7851L1164.28 98.6406C1162.86 97.1376 1160.86 95.0084 1158.27 92.2527C1155.78 89.5215 1152.69 86.4693 1149 83.097V80.1924L1205.34 65.1436H1207.03V91.8294C1205.43 93.4998 1203.76 95.27 1202.03 97.1399L1201.84 97.3414L1201.91 97.6072L1202.53 99.9884L1202.69 100.579L1203.24 100.31C1204.51 99.6889 1205.77 99.1123 1207.03 98.5801V188.971ZM1202.95 97.6186C1204.35 96.1045 1205.71 94.6571 1207.03 93.2762V94.848V97.4959C1205.81 98.0047 1204.58 98.5547 1203.35 99.146L1202.95 97.6186ZM1215.04 94.7426C1212.72 95.3722 1210.38 96.1545 1208.03 97.0891V94.848V92.2317C1212.25 87.8416 1216 84.1585 1219.27 81.181L1219.27 81.1807C1223.94 76.9335 1228.08 73.7847 1231.72 71.7208L1231.72 71.7208L1231.72 71.7165C1235.36 69.5699 1238.98 68.1732 1242.59 67.5167L1242.59 67.5169L1242.6 67.5147C1246.23 66.7707 1250.34 66.3968 1254.9 66.3968C1266.43 66.3968 1275 69.586 1280.73 75.8836L1280.73 75.8862C1286.55 82.1959 1289.5 91.4136 1289.5 103.621V188.72V189.088L1289.85 189.197L1302.78 193.224V196.241H1234.35V193.224L1246.53 189.448L1246.88 189.339V188.971V112.394C1246.88 107.839 1246.17 104.119 1244.7 101.267C1243.31 98.4108 1241.18 96.3236 1238.32 95.0221C1235.48 93.6432 1231.85 92.9694 1227.46 92.9694C1223.23 92.9694 1219.09 93.5605 1215.04 94.7426Z" fill="#030025"/>
<path d="M1207.03 188.971V189.338L1207.38 189.448L1219.44 193.223V196.241H1151.13V193.224L1164.06 189.197L1164.42 189.088V188.72V98.9839V98.7851L1164.28 98.6406C1162.86 97.1376 1160.86 95.0084 1158.27 92.2527C1155.78 89.5215 1152.69 86.4693 1149 83.097V80.1924L1205.34 65.1436H1207.03V91.8294C1205.43 93.4998 1203.76 95.27 1202.03 97.1399L1201.84 97.3414L1201.91 97.6072L1202.53 99.9884L1202.69 100.579L1203.24 100.31C1204.51 99.6889 1205.77 99.1123 1207.03 98.5801V188.971ZM1202.95 97.6186C1204.35 96.1045 1205.71 94.6571 1207.03 93.2762V94.848V97.4959C1205.81 98.0047 1204.58 98.5547 1203.35 99.146L1202.95 97.6186ZM1215.04 94.7426C1212.72 95.3722 1210.38 96.1545 1208.03 97.0891V94.848V92.2317C1212.25 87.8416 1216 84.1585 1219.27 81.181L1219.27 81.1807C1223.94 76.9335 1228.08 73.7847 1231.72 71.7208L1231.72 71.7208L1231.72 71.7165C1235.36 69.5699 1238.98 68.1732 1242.59 67.5167L1242.59 67.5169L1242.6 67.5147C1246.23 66.7707 1250.34 66.3968 1254.9 66.3968C1266.43 66.3968 1275 69.586 1280.73 75.8836L1280.73 75.8862C1286.55 82.1959 1289.5 91.4136 1289.5 103.621V188.72V189.088L1289.85 189.197L1302.78 193.224V196.241H1234.35V193.224L1246.53 189.448L1246.88 189.339V188.971V112.394C1246.88 107.839 1246.17 104.119 1244.7 101.267C1243.31 98.4108 1241.18 96.3236 1238.32 95.0221C1235.48 93.6432 1231.85 92.9694 1227.46 92.9694C1223.23 92.9694 1219.09 93.5605 1215.04 94.7426Z" fill="url(#paint0_radial_1854_676)" fill-opacity="0.15"/>
<path d="M1207.03 188.971V189.338L1207.38 189.448L1219.44 193.223V196.241H1151.13V193.224L1164.06 189.197L1164.42 189.088V188.72V98.9839V98.7851L1164.28 98.6406C1162.86 97.1376 1160.86 95.0084 1158.27 92.2527C1155.78 89.5215 1152.69 86.4693 1149 83.097V80.1924L1205.34 65.1436H1207.03V91.8294C1205.43 93.4998 1203.76 95.27 1202.03 97.1399L1201.84 97.3414L1201.91 97.6072L1202.53 99.9884L1202.69 100.579L1203.24 100.31C1204.51 99.6889 1205.77 99.1123 1207.03 98.5801V188.971ZM1202.95 97.6186C1204.35 96.1045 1205.71 94.6571 1207.03 93.2762V94.848V97.4959C1205.81 98.0047 1204.58 98.5547 1203.35 99.146L1202.95 97.6186ZM1215.04 94.7426C1212.72 95.3722 1210.38 96.1545 1208.03 97.0891V94.848V92.2317C1212.25 87.8416 1216 84.1585 1219.27 81.181L1219.27 81.1807C1223.94 76.9335 1228.08 73.7847 1231.72 71.7208L1231.72 71.7208L1231.72 71.7165C1235.36 69.5699 1238.98 68.1732 1242.59 67.5167L1242.59 67.5169L1242.6 67.5147C1246.23 66.7707 1250.34 66.3968 1254.9 66.3968C1266.43 66.3968 1275 69.586 1280.73 75.8836L1280.73 75.8862C1286.55 82.1959 1289.5 91.4136 1289.5 103.621V188.72V189.088L1289.85 189.197L1302.78 193.224V196.241H1234.35V193.224L1246.53 189.448L1246.88 189.339V188.971V112.394C1246.88 107.839 1246.17 104.119 1244.7 101.267C1243.31 98.4108 1241.18 96.3236 1238.32 95.0221C1235.48 93.6432 1231.85 92.9694 1227.46 92.9694C1223.23 92.9694 1219.09 93.5605 1215.04 94.7426Z" stroke="#030025"/>
<path d="M1107.26 168.001L1107.26 168C1108.68 159.689 1109.39 149.005 1109.39 135.956C1109.39 122.073 1108.68 110.516 1107.26 101.291C1105.92 91.988 1103.6 84.9644 1100.28 80.2754C1097.02 75.4664 1092.52 73.0421 1086.84 73.0421C1081.35 73.0421 1076.94 75.0212 1073.67 78.9888C1070.41 82.9301 1068.09 89.046 1066.67 97.2693C1065.24 105.497 1064.53 116.14 1064.53 129.188C1064.53 142.989 1065.2 154.545 1066.54 163.851C1067.88 173.157 1070.15 180.22 1073.39 184.99L1073.39 184.995C1076.74 189.805 1081.32 192.228 1087.09 192.228C1092.49 192.228 1096.85 190.248 1100.13 186.283C1103.47 182.341 1105.83 176.224 1107.26 168.001ZM1053.24 74.2312L1053.24 74.2305C1063.6 68.5102 1075.3 65.645 1088.34 65.645C1101.55 65.645 1113.03 68.4696 1122.81 74.1007L1122.81 74.1022C1132.59 79.6536 1140.21 87.4393 1145.68 97.4688L1145.68 97.4704C1151.15 107.412 1153.89 118.941 1153.89 132.071C1153.89 145.444 1150.86 157.218 1144.81 167.408C1138.76 177.526 1130.59 185.4 1120.31 191.039C1110.03 196.676 1098.42 199.5 1085.46 199.5C1072.58 199.5 1061.22 196.676 1051.36 191.043C1041.5 185.407 1033.8 177.62 1028.24 167.674C1022.77 157.648 1020.03 146.119 1020.03 133.074C1020.03 119.698 1022.98 107.965 1028.86 97.8582C1034.83 87.7426 1042.96 79.8692 1053.24 74.2312Z" fill="#030025"/>
<path d="M1107.26 168.001L1107.26 168C1108.68 159.689 1109.39 149.005 1109.39 135.956C1109.39 122.073 1108.68 110.516 1107.26 101.291C1105.92 91.988 1103.6 84.9644 1100.28 80.2754C1097.02 75.4664 1092.52 73.0421 1086.84 73.0421C1081.35 73.0421 1076.94 75.0212 1073.67 78.9888C1070.41 82.9301 1068.09 89.046 1066.67 97.2693C1065.24 105.497 1064.53 116.14 1064.53 129.188C1064.53 142.989 1065.2 154.545 1066.54 163.851C1067.88 173.157 1070.15 180.22 1073.39 184.99L1073.39 184.995C1076.74 189.805 1081.32 192.228 1087.09 192.228C1092.49 192.228 1096.85 190.248 1100.13 186.283C1103.47 182.341 1105.83 176.224 1107.26 168.001ZM1053.24 74.2312L1053.24 74.2305C1063.6 68.5102 1075.3 65.645 1088.34 65.645C1101.55 65.645 1113.03 68.4696 1122.81 74.1007L1122.81 74.1022C1132.59 79.6536 1140.21 87.4393 1145.68 97.4688L1145.68 97.4704C1151.15 107.412 1153.89 118.941 1153.89 132.071C1153.89 145.444 1150.86 157.218 1144.81 167.408C1138.76 177.526 1130.59 185.4 1120.31 191.039C1110.03 196.676 1098.42 199.5 1085.46 199.5C1072.58 199.5 1061.22 196.676 1051.36 191.043C1041.5 185.407 1033.8 177.62 1028.24 167.674C1022.77 157.648 1020.03 146.119 1020.03 133.074C1020.03 119.698 1022.98 107.965 1028.86 97.8582C1034.83 87.7426 1042.96 79.8692 1053.24 74.2312Z" fill="url(#paint1_radial_1854_676)" fill-opacity="0.15"/>
<path d="M1107.26 168.001L1107.26 168C1108.68 159.689 1109.39 149.005 1109.39 135.956C1109.39 122.073 1108.68 110.516 1107.26 101.291C1105.92 91.988 1103.6 84.9644 1100.28 80.2754C1097.02 75.4664 1092.52 73.0421 1086.84 73.0421C1081.35 73.0421 1076.94 75.0212 1073.67 78.9888C1070.41 82.9301 1068.09 89.046 1066.67 97.2693C1065.24 105.497 1064.53 116.14 1064.53 129.188C1064.53 142.989 1065.2 154.545 1066.54 163.851C1067.88 173.157 1070.15 180.22 1073.39 184.99L1073.39 184.995C1076.74 189.805 1081.32 192.228 1087.09 192.228C1092.49 192.228 1096.85 190.248 1100.13 186.283C1103.47 182.341 1105.83 176.224 1107.26 168.001ZM1053.24 74.2312L1053.24 74.2305C1063.6 68.5102 1075.3 65.645 1088.34 65.645C1101.55 65.645 1113.03 68.4696 1122.81 74.1007L1122.81 74.1022C1132.59 79.6536 1140.21 87.4393 1145.68 97.4688L1145.68 97.4704C1151.15 107.412 1153.89 118.941 1153.89 132.071C1153.89 145.444 1150.86 157.218 1144.81 167.408C1138.76 177.526 1130.59 185.4 1120.31 191.039C1110.03 196.676 1098.42 199.5 1085.46 199.5C1072.58 199.5 1061.22 196.676 1051.36 191.043C1041.5 185.407 1033.8 177.62 1028.24 167.674C1022.77 157.648 1020.03 146.119 1020.03 133.074C1020.03 119.698 1022.98 107.965 1028.86 97.8582C1034.83 87.7426 1042.96 79.8692 1053.24 74.2312Z" stroke="#030025"/>
<path d="M1009.01 76.043L1009.13 75.5477L1008.64 75.4358L993.987 72.1397V68.9038H1032.09V72.1537L1019.05 75.5652L1018.77 75.6379L1018.7 75.9146L984.835 197.369H958.985L923.139 106.686L927.658 94.0136L928.005 93.0413L927.027 93.3721L918.505 96.2546L918.007 96.4231L918.2 96.9121L922.071 106.704L889.737 197.369H863.888L826.649 77.4046L826.578 77.1761L826.356 77.088L813.387 71.9493V68.9038H886.081V72.1532L871.54 75.941L871.047 76.0696L871.185 76.5605L894.829 160.451L889.364 177.286L890.206 177.78L898.102 169.258L898.292 169.052L898.216 168.783L895.874 160.471L926.047 67.5251H952.287L987.65 158.7L983.1 177.196L983.957 177.651L992.228 168.502L992.435 168.273L992.324 167.985L988.696 158.633L1009.01 76.043ZM897.178 168.784L891.016 175.435L895.318 162.184L897.178 168.784ZM991.28 168.06L984.545 175.509L988.28 160.325L991.28 168.06ZM926.37 94.6501L922.581 105.274L919.323 97.0335L926.37 94.6501Z" fill="#030025"/>
<path d="M1009.01 76.043L1009.13 75.5477L1008.64 75.4358L993.987 72.1397V68.9038H1032.09V72.1537L1019.05 75.5652L1018.77 75.6379L1018.7 75.9146L984.835 197.369H958.985L923.139 106.686L927.658 94.0136L928.005 93.0413L927.027 93.3721L918.505 96.2546L918.007 96.4231L918.2 96.9121L922.071 106.704L889.737 197.369H863.888L826.649 77.4046L826.578 77.1761L826.356 77.088L813.387 71.9493V68.9038H886.081V72.1532L871.54 75.941L871.047 76.0696L871.185 76.5605L894.829 160.451L889.364 177.286L890.206 177.78L898.102 169.258L898.292 169.052L898.216 168.783L895.874 160.471L926.047 67.5251H952.287L987.65 158.7L983.1 177.196L983.957 177.651L992.228 168.502L992.435 168.273L992.324 167.985L988.696 158.633L1009.01 76.043ZM897.178 168.784L891.016 175.435L895.318 162.184L897.178 168.784ZM991.28 168.06L984.545 175.509L988.28 160.325L991.28 168.06ZM926.37 94.6501L922.581 105.274L919.323 97.0335L926.37 94.6501Z" fill="url(#paint2_radial_1854_676)" fill-opacity="0.15"/>
<path d="M1009.01 76.043L1009.13 75.5477L1008.64 75.4358L993.987 72.1397V68.9038H1032.09V72.1537L1019.05 75.5652L1018.77 75.6379L1018.7 75.9146L984.835 197.369H958.985L923.139 106.686L927.658 94.0136L928.005 93.0413L927.027 93.3721L918.505 96.2546L918.007 96.4231L918.2 96.9121L922.071 106.704L889.737 197.369H863.888L826.649 77.4046L826.578 77.1761L826.356 77.088L813.387 71.9493V68.9038H886.081V72.1532L871.54 75.941L871.047 76.0696L871.185 76.5605L894.829 160.451L889.364 177.286L890.206 177.78L898.102 169.258L898.292 169.052L898.216 168.783L895.874 160.471L926.047 67.5251H952.287L987.65 158.7L983.1 177.196L983.957 177.651L992.228 168.502L992.435 168.273L992.324 167.985L988.696 158.633L1009.01 76.043ZM897.178 168.784L891.016 175.435L895.318 162.184L897.178 168.784ZM991.28 168.06L984.545 175.509L988.28 160.325L991.28 168.06ZM926.37 94.6501L922.581 105.274L919.323 97.0335L926.37 94.6501Z" stroke="#030025"/>
<mask id="path-4-inside-1_1854_676" fill="white">
<path d="M771.748 65.145C782.359 65.145 791.383 67.2339 798.819 71.4115C806.255 75.5056 812.062 81.4797 816.24 89.3336C820.418 97.1876 822.924 106.629 823.76 117.658H738.786V107.757H804.71L784.908 113.898C784.406 103.621 783.445 95.6001 782.025 89.835C780.688 83.9862 778.808 79.8504 776.385 77.4273C774.046 75.0043 771.08 73.7928 767.487 73.7928C763.058 73.7928 759.299 75.1296 756.207 77.8033C753.199 80.477 750.901 84.9889 749.314 91.3389C747.726 97.689 746.933 106.42 746.933 117.533C746.933 130.484 748.437 140.928 751.445 148.865C754.536 156.719 759.09 162.443 765.105 166.035C771.121 169.628 778.558 171.425 787.414 171.425C791.926 171.425 796.145 170.923 800.072 169.921C804.083 168.834 807.926 167.122 811.603 164.782C815.363 162.443 819.123 159.309 822.882 155.382L825.89 158.014C820.042 168.458 814.151 176.772 808.219 182.955C802.37 189.054 796.187 193.441 789.67 196.115C783.237 198.705 776.093 200 768.239 200C755.873 200 744.969 197.451 735.528 192.355C726.086 187.258 718.733 179.863 713.47 170.171C708.289 160.479 705.699 148.823 705.699 135.204C705.699 122.671 708.206 111.099 713.219 100.488C718.232 89.7932 725.627 81.229 735.402 74.7954C745.262 68.3618 757.377 65.145 771.748 65.145Z"/>
</mask>
<path d="M771.748 65.145C782.359 65.145 791.383 67.2339 798.819 71.4115C806.255 75.5056 812.062 81.4797 816.24 89.3336C820.418 97.1876 822.924 106.629 823.76 117.658H738.786V107.757H804.71L784.908 113.898C784.406 103.621 783.445 95.6001 782.025 89.835C780.688 83.9862 778.808 79.8504 776.385 77.4273C774.046 75.0043 771.08 73.7928 767.487 73.7928C763.058 73.7928 759.299 75.1296 756.207 77.8033C753.199 80.477 750.901 84.9889 749.314 91.3389C747.726 97.689 746.933 106.42 746.933 117.533C746.933 130.484 748.437 140.928 751.445 148.865C754.536 156.719 759.09 162.443 765.105 166.035C771.121 169.628 778.558 171.425 787.414 171.425C791.926 171.425 796.145 170.923 800.072 169.921C804.083 168.834 807.926 167.122 811.603 164.782C815.363 162.443 819.123 159.309 822.882 155.382L825.89 158.014C820.042 168.458 814.151 176.772 808.219 182.955C802.37 189.054 796.187 193.441 789.67 196.115C783.237 198.705 776.093 200 768.239 200C755.873 200 744.969 197.451 735.528 192.355C726.086 187.258 718.733 179.863 713.47 170.171C708.289 160.479 705.699 148.823 705.699 135.204C705.699 122.671 708.206 111.099 713.219 100.488C718.232 89.7932 725.627 81.229 735.402 74.7954C745.262 68.3618 757.377 65.145 771.748 65.145Z" fill="#030025"/>
<path d="M771.748 65.145C782.359 65.145 791.383 67.2339 798.819 71.4115C806.255 75.5056 812.062 81.4797 816.24 89.3336C820.418 97.1876 822.924 106.629 823.76 117.658H738.786V107.757H804.71L784.908 113.898C784.406 103.621 783.445 95.6001 782.025 89.835C780.688 83.9862 778.808 79.8504 776.385 77.4273C774.046 75.0043 771.08 73.7928 767.487 73.7928C763.058 73.7928 759.299 75.1296 756.207 77.8033C753.199 80.477 750.901 84.9889 749.314 91.3389C747.726 97.689 746.933 106.42 746.933 117.533C746.933 130.484 748.437 140.928 751.445 148.865C754.536 156.719 759.09 162.443 765.105 166.035C771.121 169.628 778.558 171.425 787.414 171.425C791.926 171.425 796.145 170.923 800.072 169.921C804.083 168.834 807.926 167.122 811.603 164.782C815.363 162.443 819.123 159.309 822.882 155.382L825.89 158.014C820.042 168.458 814.151 176.772 808.219 182.955C802.37 189.054 796.187 193.441 789.67 196.115C783.237 198.705 776.093 200 768.239 200C755.873 200 744.969 197.451 735.528 192.355C726.086 187.258 718.733 179.863 713.47 170.171C708.289 160.479 705.699 148.823 705.699 135.204C705.699 122.671 708.206 111.099 713.219 100.488C718.232 89.7932 725.627 81.229 735.402 74.7954C745.262 68.3618 757.377 65.145 771.748 65.145Z" fill="url(#paint3_radial_1854_676)" fill-opacity="0.15"/>
<path d="M798.819 71.4115L798.329 72.2834L798.337 72.2875L798.819 71.4115ZM816.24 89.3336L817.123 88.864L817.123 88.864L816.24 89.3336ZM823.76 117.658V118.658H824.838L824.757 117.583L823.76 117.658ZM738.786 117.658H737.786V118.658H738.786V117.658ZM738.786 107.757V106.757H737.786V107.757H738.786ZM804.71 107.757L805.006 108.712L804.71 106.757V107.757ZM784.908 113.898L783.909 113.947L783.972 115.236L785.204 114.853L784.908 113.898ZM782.025 89.835L781.05 90.0578L781.052 90.066L781.054 90.0742L782.025 89.835ZM776.385 77.4273L775.666 78.1219L775.672 78.1282L775.678 78.1344L776.385 77.4273ZM756.207 77.8033L755.553 77.0469L755.543 77.0559L756.207 77.8033ZM749.314 91.3389L750.284 91.5815L750.284 91.5815L749.314 91.3389ZM751.445 148.865L750.509 149.22L750.514 149.231L751.445 148.865ZM765.105 166.035L764.593 166.894L764.593 166.894L765.105 166.035ZM800.072 169.921L800.32 170.89L800.327 170.888L800.334 170.886L800.072 169.921ZM811.603 164.782L811.074 163.933L811.066 163.938L811.603 164.782ZM822.882 155.382L823.541 154.63L822.821 154L822.16 154.691L822.882 155.382ZM825.89 158.014L826.763 158.503L827.159 157.796L826.549 157.262L825.89 158.014ZM808.219 182.955L807.497 182.263L807.497 182.263L808.219 182.955ZM789.67 196.115L790.044 197.042L790.05 197.04L789.67 196.115ZM713.47 170.171L712.588 170.643L712.591 170.649L713.47 170.171ZM713.219 100.488L714.123 100.915L714.124 100.912L713.219 100.488ZM735.402 74.7954L734.856 73.9579L734.853 73.9601L735.402 74.7954ZM771.748 66.145C782.229 66.145 791.075 68.2079 798.329 72.2834L799.309 70.5397C791.691 66.2598 782.489 64.145 771.748 64.145V66.145ZM798.337 72.2875C805.595 76.2833 811.266 82.1121 815.357 89.8033L817.123 88.864C812.859 80.8472 806.916 74.7279 799.301 70.5355L798.337 72.2875ZM815.357 89.8033C819.456 97.5093 821.935 106.81 822.763 117.734L824.757 117.583C823.913 106.448 821.379 96.8659 817.123 88.864L815.357 89.8033ZM823.76 116.658H738.786V118.658H823.76V116.658ZM739.786 117.658V107.757H737.786V117.658H739.786ZM738.786 108.757H804.71V106.757H738.786V108.757ZM804.413 106.802L784.611 112.943L785.204 114.853L805.006 108.712L804.413 106.802ZM785.906 113.85C785.404 103.548 784.439 95.4526 782.996 89.5957L781.054 90.0742C782.452 95.7477 783.409 103.695 783.909 113.947L785.906 113.85ZM783 89.6121C781.649 83.7004 779.715 79.3427 777.092 76.7202L775.678 78.1344C777.902 80.3581 779.728 84.2721 781.05 90.0578L783 89.6121ZM777.105 76.7327C774.563 74.1005 771.331 72.7928 767.487 72.7928V74.7928C770.828 74.7928 773.528 75.9081 775.666 78.1219L777.105 76.7327ZM767.487 72.7928C762.84 72.7928 758.842 74.2025 755.553 77.047L756.861 78.5597C759.755 76.0567 763.277 74.7928 767.487 74.7928V72.7928ZM755.543 77.0559C752.317 79.9233 749.952 84.6624 748.344 91.0964L750.284 91.5815C751.851 85.3153 754.081 81.0307 756.871 78.5507L755.543 77.0559ZM748.344 91.0964C746.727 97.5619 745.933 106.387 745.933 117.533H747.933C747.933 106.454 748.725 97.8161 750.284 91.5815L748.344 91.0964ZM745.933 117.533C745.933 130.548 747.442 141.126 750.509 149.22L752.38 148.511C749.431 140.73 747.933 130.419 747.933 117.533H745.933ZM750.514 149.231C753.669 157.248 758.351 163.166 764.593 166.894L765.618 165.177C759.829 161.719 755.403 156.191 752.375 148.499L750.514 149.231ZM764.593 166.894C770.8 170.601 778.424 172.425 787.414 172.425V170.425C778.691 170.425 771.443 168.656 765.618 165.177L764.593 166.894ZM787.414 172.425C792 172.425 796.303 171.915 800.32 170.89L799.825 168.952C795.987 169.932 791.852 170.425 787.414 170.425V172.425ZM800.334 170.886C804.446 169.772 808.382 168.017 812.14 165.626L811.066 163.938C807.471 166.226 803.719 167.897 799.811 168.955L800.334 170.886ZM812.131 165.631C815.976 163.239 819.8 160.048 823.605 156.074L822.16 154.691C818.445 158.571 814.749 161.646 811.075 163.933L812.131 165.631ZM822.224 156.135L825.232 158.767L826.549 157.262L823.541 154.63L822.224 156.135ZM825.018 157.526C819.196 167.923 813.353 176.16 807.497 182.263L808.94 183.647C814.95 177.384 820.888 168.994 826.763 158.503L825.018 157.526ZM807.497 182.263C801.726 188.281 795.655 192.578 789.291 195.189L790.05 197.04C796.719 194.304 803.014 189.827 808.941 183.647L807.497 182.263ZM789.297 195.187C782.996 197.723 775.982 199 768.239 199V201C776.204 201 783.477 199.686 790.044 197.042L789.297 195.187ZM768.239 199C756.013 199 745.277 196.481 736.003 191.475L735.053 193.235C744.661 198.421 755.733 201 768.239 201V199ZM736.003 191.475C726.737 186.473 719.522 179.221 714.348 169.694L712.591 170.649C717.945 180.506 725.435 188.043 735.053 193.235L736.003 191.475ZM714.352 169.7C709.265 160.183 706.699 148.698 706.699 135.204H704.699C704.699 148.949 707.313 160.775 712.588 170.643L714.352 169.7ZM706.699 135.204C706.699 122.809 709.177 111.384 714.123 100.915L712.315 100.061C707.234 110.815 704.699 122.534 704.699 135.204H706.699ZM714.124 100.912C719.06 90.3832 726.332 81.9618 735.952 75.6307L734.853 73.9601C724.921 80.4962 717.404 89.2032 712.314 100.064L714.124 100.912ZM735.949 75.6329C745.613 69.3267 757.528 66.145 771.748 66.145V64.145C757.226 64.145 744.91 67.3969 734.856 73.9579L735.949 75.6329Z" fill="#030025" mask="url(#path-4-inside-1_1854_676)"/>
<path d="M679.412 71.8474L679.416 71.8495C686.763 75.8945 692.502 81.7959 696.636 89.5685C700.707 97.2211 703.185 106.413 704.057 117.158H628.271C628.276 113.993 628.346 111.026 628.481 108.257H664.907C665.037 110.061 665.15 111.95 665.246 113.923L665.277 114.567L665.894 114.376L685.696 108.235L685.548 107.257H665.835C665.285 100.068 664.458 94.2202 663.349 89.7194C662.006 83.8436 660.1 79.5992 657.58 77.0767C655.14 74.5513 652.041 73.2928 648.325 73.2928C643.787 73.2928 639.908 74.6661 636.718 77.4251L636.718 77.4251L636.713 77.4296C633.596 80.2002 631.265 84.8257 629.667 91.2177C628.595 95.5049 627.885 100.853 627.532 107.257H619.624H619.124V107.757V117.658V118.158H619.624H627.272C627.32 130.853 628.826 141.156 631.815 149.042L631.817 149.048C634.941 156.984 639.558 162.804 645.687 166.465C651.798 170.114 659.329 171.925 668.252 171.925C672.801 171.925 677.062 171.419 681.034 170.405L681.041 170.403C685.102 169.303 688.991 167.57 692.707 165.205C696.397 162.909 700.078 159.862 703.75 156.073L706.094 158.123C700.324 168.378 694.523 176.535 688.696 182.609L688.696 182.609C682.886 188.667 676.76 193.009 670.32 195.651C663.953 198.214 656.874 199.5 649.077 199.5C636.781 199.5 625.961 196.966 616.603 191.915C607.25 186.866 599.967 179.543 594.748 169.934C589.615 160.33 587.037 148.76 587.037 135.204C587.037 122.74 589.529 111.242 594.509 100.702L594.51 100.7C599.484 90.0884 606.817 81.5958 616.514 75.2135C626.276 68.844 638.291 65.645 652.586 65.645C663.132 65.645 672.067 67.7209 679.412 71.8474ZM666.213 113.23C666.125 111.509 666.024 109.851 665.909 108.257H682.247L666.213 113.23ZM627.48 108.257C627.346 111.033 627.276 114 627.271 117.158H620.124V108.257H627.48Z" fill="#030025"/>
<path d="M679.412 71.8474L679.416 71.8495C686.763 75.8945 692.502 81.7959 696.636 89.5685C700.707 97.2211 703.185 106.413 704.057 117.158H628.271C628.276 113.993 628.346 111.026 628.481 108.257H664.907C665.037 110.061 665.15 111.95 665.246 113.923L665.277 114.567L665.894 114.376L685.696 108.235L685.548 107.257H665.835C665.285 100.068 664.458 94.2202 663.349 89.7194C662.006 83.8436 660.1 79.5992 657.58 77.0767C655.14 74.5513 652.041 73.2928 648.325 73.2928C643.787 73.2928 639.908 74.6661 636.718 77.4251L636.718 77.4251L636.713 77.4296C633.596 80.2002 631.265 84.8257 629.667 91.2177C628.595 95.5049 627.885 100.853 627.532 107.257H619.624H619.124V107.757V117.658V118.158H619.624H627.272C627.32 130.853 628.826 141.156 631.815 149.042L631.817 149.048C634.941 156.984 639.558 162.804 645.687 166.465C651.798 170.114 659.329 171.925 668.252 171.925C672.801 171.925 677.062 171.419 681.034 170.405L681.041 170.403C685.102 169.303 688.991 167.57 692.707 165.205C696.397 162.909 700.078 159.862 703.75 156.073L706.094 158.123C700.324 168.378 694.523 176.535 688.696 182.609L688.696 182.609C682.886 188.667 676.76 193.009 670.32 195.651C663.953 198.214 656.874 199.5 649.077 199.5C636.781 199.5 625.961 196.966 616.603 191.915C607.25 186.866 599.967 179.543 594.748 169.934C589.615 160.33 587.037 148.76 587.037 135.204C587.037 122.74 589.529 111.242 594.509 100.702L594.51 100.7C599.484 90.0884 606.817 81.5958 616.514 75.2135C626.276 68.844 638.291 65.645 652.586 65.645C663.132 65.645 672.067 67.7209 679.412 71.8474ZM666.213 113.23C666.125 111.509 666.024 109.851 665.909 108.257H682.247L666.213 113.23ZM627.48 108.257C627.346 111.033 627.276 114 627.271 117.158H620.124V108.257H627.48Z" fill="url(#paint4_radial_1854_676)" fill-opacity="0.15"/>
<path d="M679.412 71.8474L679.416 71.8495C686.763 75.8945 692.502 81.7959 696.636 89.5685C700.707 97.2211 703.185 106.413 704.057 117.158H628.271C628.276 113.993 628.346 111.026 628.481 108.257H664.907C665.037 110.061 665.15 111.95 665.246 113.923L665.277 114.567L665.894 114.376L685.696 108.235L685.548 107.257H665.835C665.285 100.068 664.458 94.2202 663.349 89.7194C662.006 83.8436 660.1 79.5992 657.58 77.0767C655.14 74.5513 652.041 73.2928 648.325 73.2928C643.787 73.2928 639.908 74.6661 636.718 77.4251L636.718 77.4251L636.713 77.4296C633.596 80.2002 631.265 84.8257 629.667 91.2177C628.595 95.5049 627.885 100.853 627.532 107.257H619.624H619.124V107.757V117.658V118.158H619.624H627.272C627.32 130.853 628.826 141.156 631.815 149.042L631.817 149.048C634.941 156.984 639.558 162.804 645.687 166.465C651.798 170.114 659.329 171.925 668.252 171.925C672.801 171.925 677.062 171.419 681.034 170.405L681.041 170.403C685.102 169.303 688.991 167.57 692.707 165.205C696.397 162.909 700.078 159.862 703.75 156.073L706.094 158.123C700.324 168.378 694.523 176.535 688.696 182.609L688.696 182.609C682.886 188.667 676.76 193.009 670.32 195.651C663.953 198.214 656.874 199.5 649.077 199.5C636.781 199.5 625.961 196.966 616.603 191.915C607.25 186.866 599.967 179.543 594.748 169.934C589.615 160.33 587.037 148.76 587.037 135.204C587.037 122.74 589.529 111.242 594.509 100.702L594.51 100.7C599.484 90.0884 606.817 81.5958 616.514 75.2135C626.276 68.844 638.291 65.645 652.586 65.645C663.132 65.645 672.067 67.7209 679.412 71.8474ZM666.213 113.23C666.125 111.509 666.024 109.851 665.909 108.257H682.247L666.213 113.23ZM627.48 108.257C627.346 111.033 627.276 114 627.271 117.158H620.124V108.257H627.48Z" stroke="#030025"/>
<path d="M500.025 94.7424C497.742 95.3609 495.447 96.1268 493.139 97.0396V92.1015C497.307 87.7688 501.012 84.1292 504.255 81.1812L504.256 81.1809C508.919 76.9337 513.066 73.7849 516.699 71.721L516.702 71.7191C520.422 69.57 524.045 68.1728 527.572 67.5166L527.572 67.5166L527.581 67.5149C531.218 66.7709 535.319 66.397 539.888 66.397C551.411 66.397 559.987 69.5862 565.712 75.8838L565.715 75.8864C571.533 82.1961 574.481 91.4138 574.481 103.621V188.72V189.088L574.832 189.197L587.766 193.224V196.241H519.333V193.224L531.514 189.448L531.866 189.339V188.971V112.394C531.866 107.839 531.15 104.119 529.683 101.267C528.296 98.4109 526.167 96.3238 523.307 95.0223C520.46 93.6434 516.829 92.9696 512.441 92.9696C508.3 92.9696 504.161 93.5611 500.025 94.7424ZM490.316 10.5H492.139V55.1187V91.6989C490.499 93.4077 488.789 95.2214 487.009 97.14L486.822 97.3415L486.892 97.6073L487.518 99.9886L487.674 100.579L488.222 100.31C489.532 99.6685 490.838 99.0743 492.139 98.5275V188.971V189.337L492.488 189.447L504.421 193.222V196.241H436.114V193.224L449.048 189.197L449.399 189.088V188.72V46.3456V46.1267L449.238 45.9782C448.151 44.9747 446.646 43.5953 444.724 41.8405C442.8 40.0835 440.501 38.035 437.827 35.6951C435.199 33.3134 432.288 30.6898 429.096 27.8244L429.096 24.9341L490.316 10.5ZM487.929 97.6187C489.38 96.0566 490.783 94.5654 492.139 93.145V97.4441C490.873 97.9674 489.604 98.5348 488.331 99.1462L487.929 97.6187Z" fill="#030025"/>
<path d="M500.025 94.7424C497.742 95.3609 495.447 96.1268 493.139 97.0396V92.1015C497.307 87.7688 501.012 84.1292 504.255 81.1812L504.256 81.1809C508.919 76.9337 513.066 73.7849 516.699 71.721L516.702 71.7191C520.422 69.57 524.045 68.1728 527.572 67.5166L527.572 67.5166L527.581 67.5149C531.218 66.7709 535.319 66.397 539.888 66.397C551.411 66.397 559.987 69.5862 565.712 75.8838L565.715 75.8864C571.533 82.1961 574.481 91.4138 574.481 103.621V188.72V189.088L574.832 189.197L587.766 193.224V196.241H519.333V193.224L531.514 189.448L531.866 189.339V188.971V112.394C531.866 107.839 531.15 104.119 529.683 101.267C528.296 98.4109 526.167 96.3238 523.307 95.0223C520.46 93.6434 516.829 92.9696 512.441 92.9696C508.3 92.9696 504.161 93.5611 500.025 94.7424ZM490.316 10.5H492.139V55.1187V91.6989C490.499 93.4077 488.789 95.2214 487.009 97.14L486.822 97.3415L486.892 97.6073L487.518 99.9886L487.674 100.579L488.222 100.31C489.532 99.6685 490.838 99.0743 492.139 98.5275V188.971V189.337L492.488 189.447L504.421 193.222V196.241H436.114V193.224L449.048 189.197L449.399 189.088V188.72V46.3456V46.1267L449.238 45.9782C448.151 44.9747 446.646 43.5953 444.724 41.8405C442.8 40.0835 440.501 38.035 437.827 35.6951C435.199 33.3134 432.288 30.6898 429.096 27.8244L429.096 24.9341L490.316 10.5ZM487.929 97.6187C489.38 96.0566 490.783 94.5654 492.139 93.145V97.4441C490.873 97.9674 489.604 98.5348 488.331 99.1462L487.929 97.6187Z" fill="url(#paint5_radial_1854_676)" fill-opacity="0.15"/>
<path d="M500.025 94.7424C497.742 95.3609 495.447 96.1268 493.139 97.0396V92.1015C497.307 87.7688 501.012 84.1292 504.255 81.1812L504.256 81.1809C508.919 76.9337 513.066 73.7849 516.699 71.721L516.702 71.7191C520.422 69.57 524.045 68.1728 527.572 67.5166L527.572 67.5166L527.581 67.5149C531.218 66.7709 535.319 66.397 539.888 66.397C551.411 66.397 559.987 69.5862 565.712 75.8838L565.715 75.8864C571.533 82.1961 574.481 91.4138 574.481 103.621V188.72V189.088L574.832 189.197L587.766 193.224V196.241H519.333V193.224L531.514 189.448L531.866 189.339V188.971V112.394C531.866 107.839 531.15 104.119 529.683 101.267C528.296 98.4109 526.167 96.3238 523.307 95.0223C520.46 93.6434 516.829 92.9696 512.441 92.9696C508.3 92.9696 504.161 93.5611 500.025 94.7424ZM490.316 10.5H492.139V55.1187V91.6989C490.499 93.4077 488.789 95.2214 487.009 97.14L486.822 97.3415L486.892 97.6073L487.518 99.9886L487.674 100.579L488.222 100.31C489.532 99.6685 490.838 99.0743 492.139 98.5275V188.971V189.337L492.488 189.447L504.421 193.222V196.241H436.114V193.224L449.048 189.197L449.399 189.088V188.72V46.3456V46.1267L449.238 45.9782C448.151 44.9747 446.646 43.5953 444.724 41.8405C442.8 40.0835 440.501 38.035 437.827 35.6951C435.199 33.3134 432.288 30.6898 429.096 27.8244L429.096 24.9341L490.316 10.5ZM487.929 97.6187C489.38 96.0566 490.783 94.5654 492.139 93.145V97.4441C490.873 97.9674 489.604 98.5348 488.331 99.1462L487.929 97.6187Z" stroke="#030025"/>
<path d="M343.771 188.971V189.338L344.121 189.448L356.178 193.223V196.241H287.871V193.224L300.804 189.197L301.156 189.088V188.72V98.9839V98.7851L301.019 98.6406C299.6 97.1376 297.596 95.0084 295.007 92.2527C292.524 89.5215 289.434 86.4693 285.74 83.097V80.1924L342.08 65.1436H343.771V91.8293C342.168 93.4998 340.5 95.27 338.765 97.1399L338.578 97.3414L338.648 97.6072L339.275 99.9884L339.43 100.579L339.979 100.31C341.247 99.6889 342.511 99.1123 343.771 98.5801V188.971ZM339.685 97.6186C341.092 96.1045 342.453 94.657 343.771 93.2761V94.848V97.4959C342.546 98.0047 341.319 98.5548 340.087 99.146L339.685 97.6186ZM351.78 94.7426C349.456 95.3722 347.12 96.1545 344.771 97.0891V94.848V92.2316C348.99 87.8416 352.737 84.1585 356.012 81.181L356.012 81.1807C360.676 76.9335 364.823 73.7847 368.455 71.7208L368.456 71.7208L368.463 71.7165C372.095 69.5699 375.716 68.1732 379.327 67.5167L379.327 67.5169L379.338 67.5147C382.975 66.7707 387.076 66.3968 391.645 66.3968C403.168 66.3968 411.744 69.586 417.469 75.8836L417.471 75.8862C423.289 82.1959 426.237 91.4136 426.237 103.621V188.72V189.088L426.589 189.197L439.522 193.224V196.241H371.09V193.224L383.271 189.448L383.623 189.339V188.971V112.394C383.623 107.839 382.907 104.119 381.439 101.267C380.053 98.4108 377.924 96.3235 375.063 95.022C372.217 93.6432 368.586 92.9694 364.198 92.9694C359.975 92.9694 355.835 93.5605 351.78 94.7426Z" fill="#030025"/>
<path d="M343.771 188.971V189.338L344.121 189.448L356.178 193.223V196.241H287.871V193.224L300.804 189.197L301.156 189.088V188.72V98.9839V98.7851L301.019 98.6406C299.6 97.1376 297.596 95.0084 295.007 92.2527C292.524 89.5215 289.434 86.4693 285.74 83.097V80.1924L342.08 65.1436H343.771V91.8293C342.168 93.4998 340.5 95.27 338.765 97.1399L338.578 97.3414L338.648 97.6072L339.275 99.9884L339.43 100.579L339.979 100.31C341.247 99.6889 342.511 99.1123 343.771 98.5801V188.971ZM339.685 97.6186C341.092 96.1045 342.453 94.657 343.771 93.2761V94.848V97.4959C342.546 98.0047 341.319 98.5548 340.087 99.146L339.685 97.6186ZM351.78 94.7426C349.456 95.3722 347.12 96.1545 344.771 97.0891V94.848V92.2316C348.99 87.8416 352.737 84.1585 356.012 81.181L356.012 81.1807C360.676 76.9335 364.823 73.7847 368.455 71.7208L368.456 71.7208L368.463 71.7165C372.095 69.5699 375.716 68.1732 379.327 67.5167L379.327 67.5169L379.338 67.5147C382.975 66.7707 387.076 66.3968 391.645 66.3968C403.168 66.3968 411.744 69.586 417.469 75.8836L417.471 75.8862C423.289 82.1959 426.237 91.4136 426.237 103.621V188.72V189.088L426.589 189.197L439.522 193.224V196.241H371.09V193.224L383.271 189.448L383.623 189.339V188.971V112.394C383.623 107.839 382.907 104.119 381.439 101.267C380.053 98.4108 377.924 96.3235 375.063 95.022C372.217 93.6432 368.586 92.9694 364.198 92.9694C359.975 92.9694 355.835 93.5605 351.78 94.7426Z" fill="url(#paint6_radial_1854_676)" fill-opacity="0.15"/>
<path d="M343.771 188.971V189.338L344.121 189.448L356.178 193.223V196.241H287.871V193.224L300.804 189.197L301.156 189.088V188.72V98.9839V98.7851L301.019 98.6406C299.6 97.1376 297.596 95.0084 295.007 92.2527C292.524 89.5215 289.434 86.4693 285.74 83.097V80.1924L342.08 65.1436H343.771V91.8293C342.168 93.4998 340.5 95.27 338.765 97.1399L338.578 97.3414L338.648 97.6072L339.275 99.9884L339.43 100.579L339.979 100.31C341.247 99.6889 342.511 99.1123 343.771 98.5801V188.971ZM339.685 97.6186C341.092 96.1045 342.453 94.657 343.771 93.2761V94.848V97.4959C342.546 98.0047 341.319 98.5548 340.087 99.146L339.685 97.6186ZM351.78 94.7426C349.456 95.3722 347.12 96.1545 344.771 97.0891V94.848V92.2316C348.99 87.8416 352.737 84.1585 356.012 81.181L356.012 81.1807C360.676 76.9335 364.823 73.7847 368.455 71.7208L368.456 71.7208L368.463 71.7165C372.095 69.5699 375.716 68.1732 379.327 67.5167L379.327 67.5169L379.338 67.5147C382.975 66.7707 387.076 66.3968 391.645 66.3968C403.168 66.3968 411.744 69.586 417.469 75.8836L417.471 75.8862C423.289 82.1959 426.237 91.4136 426.237 103.621V188.72V189.088L426.589 189.197L439.522 193.224V196.241H371.09V193.224L383.271 189.448L383.623 189.339V188.971V112.394C383.623 107.839 382.907 104.119 381.439 101.267C380.053 98.4108 377.924 96.3235 375.063 95.022C372.217 93.6432 368.586 92.9694 364.198 92.9694C359.975 92.9694 355.835 93.5605 351.78 94.7426Z" stroke="#030025"/>
<path d="M201.484 94.7424C199.201 95.3609 196.906 96.1268 194.598 97.0396V92.1015C198.766 87.7688 202.471 84.1292 205.714 81.1812L205.714 81.1809C210.378 76.9337 214.525 73.7849 218.158 71.721L218.161 71.7191C221.881 69.57 225.504 68.1728 229.031 67.5166L229.031 67.5166L229.04 67.5149C232.677 66.7709 236.778 66.397 241.347 66.397C252.87 66.397 261.446 69.5862 267.171 75.8838L267.174 75.8864C272.992 82.1961 275.94 91.4138 275.94 103.621V188.72V189.088L276.291 189.197L289.225 193.224V196.241H220.792V193.224L232.973 189.448L233.325 189.339V188.971V112.394C233.325 107.839 232.609 104.119 231.142 101.267C229.755 98.4109 227.626 96.3238 224.766 95.0223C221.919 93.6434 218.288 92.9696 213.9 92.9696C209.759 92.9696 205.62 93.5611 201.484 94.7424ZM191.775 10.5H193.598V55.1187V91.6989C191.958 93.4076 190.248 95.2214 188.468 97.14L188.281 97.3415L188.351 97.6073L188.977 99.9886L189.133 100.579L189.681 100.31C190.991 99.6685 192.297 99.0742 193.598 98.5275V188.971V189.337L193.947 189.447L205.88 193.222V196.241H137.573V193.224L150.507 189.197L150.858 189.088V188.72V46.3456V46.1267L150.697 45.9782C149.61 44.9747 148.105 43.5953 146.183 41.8405C144.259 40.0835 141.96 38.035 139.286 35.6951C136.658 33.3134 133.747 30.6899 130.555 27.8244V24.9341L191.775 10.5ZM189.388 97.6187C190.839 96.0566 192.242 94.5654 193.598 93.145V97.4441C192.332 97.9674 191.063 98.5348 189.79 99.1462L189.388 97.6187Z" fill="#030025"/>
<path d="M201.484 94.7424C199.201 95.3609 196.906 96.1268 194.598 97.0396V92.1015C198.766 87.7688 202.471 84.1292 205.714 81.1812L205.714 81.1809C210.378 76.9337 214.525 73.7849 218.158 71.721L218.161 71.7191C221.881 69.57 225.504 68.1728 229.031 67.5166L229.031 67.5166L229.04 67.5149C232.677 66.7709 236.778 66.397 241.347 66.397C252.87 66.397 261.446 69.5862 267.171 75.8838L267.174 75.8864C272.992 82.1961 275.94 91.4138 275.94 103.621V188.72V189.088L276.291 189.197L289.225 193.224V196.241H220.792V193.224L232.973 189.448L233.325 189.339V188.971V112.394C233.325 107.839 232.609 104.119 231.142 101.267C229.755 98.4109 227.626 96.3238 224.766 95.0223C221.919 93.6434 218.288 92.9696 213.9 92.9696C209.759 92.9696 205.62 93.5611 201.484 94.7424ZM191.775 10.5H193.598V55.1187V91.6989C191.958 93.4076 190.248 95.2214 188.468 97.14L188.281 97.3415L188.351 97.6073L188.977 99.9886L189.133 100.579L189.681 100.31C190.991 99.6685 192.297 99.0742 193.598 98.5275V188.971V189.337L193.947 189.447L205.88 193.222V196.241H137.573V193.224L150.507 189.197L150.858 189.088V188.72V46.3456V46.1267L150.697 45.9782C149.61 44.9747 148.105 43.5953 146.183 41.8405C144.259 40.0835 141.96 38.035 139.286 35.6951C136.658 33.3134 133.747 30.6899 130.555 27.8244V24.9341L191.775 10.5ZM189.388 97.6187C190.839 96.0566 192.242 94.5654 193.598 93.145V97.4441C192.332 97.9674 191.063 98.5348 189.79 99.1462L189.388 97.6187Z" fill="url(#paint7_radial_1854_676)" fill-opacity="0.15"/>
<path d="M201.484 94.7424C199.201 95.3609 196.906 96.1268 194.598 97.0396V92.1015C198.766 87.7688 202.471 84.1292 205.714 81.1812L205.714 81.1809C210.378 76.9337 214.525 73.7849 218.158 71.721L218.161 71.7191C221.881 69.57 225.504 68.1728 229.031 67.5166L229.031 67.5166L229.04 67.5149C232.677 66.7709 236.778 66.397 241.347 66.397C252.87 66.397 261.446 69.5862 267.171 75.8838L267.174 75.8864C272.992 82.1961 275.94 91.4138 275.94 103.621V188.72V189.088L276.291 189.197L289.225 193.224V196.241H220.792V193.224L232.973 189.448L233.325 189.339V188.971V112.394C233.325 107.839 232.609 104.119 231.142 101.267C229.755 98.4109 227.626 96.3238 224.766 95.0223C221.919 93.6434 218.288 92.9696 213.9 92.9696C209.759 92.9696 205.62 93.5611 201.484 94.7424ZM191.775 10.5H193.598V55.1187V91.6989C191.958 93.4076 190.248 95.2214 188.468 97.14L188.281 97.3415L188.351 97.6073L188.977 99.9886L189.133 100.579L189.681 100.31C190.991 99.6685 192.297 99.0742 193.598 98.5275V188.971V189.337L193.947 189.447L205.88 193.222V196.241H137.573V193.224L150.507 189.197L150.858 189.088V188.72V46.3456V46.1267L150.697 45.9782C149.61 44.9747 148.105 43.5953 146.183 41.8405C144.259 40.0835 141.96 38.035 139.286 35.6951C136.658 33.3134 133.747 30.6899 130.555 27.8244V24.9341L191.775 10.5ZM189.388 97.6187C190.839 96.0566 192.242 94.5654 193.598 93.145V97.4441C192.332 97.9674 191.063 98.5348 189.79 99.1462L189.388 97.6187Z" stroke="#030025"/>
<path d="M88.076 115.421L88.1031 114.719L87.4306 114.924C85.6888 115.455 83.9824 115.981 82.3113 116.501V98.8587C82.3113 92.0833 80.4463 86.7236 76.6583 82.8471C72.9383 78.8702 67.3108 76.9273 59.8786 76.9273C56.1042 76.9273 52.619 77.0951 49.4239 77.4314L49.4225 77.4315C48.4724 77.5343 47.564 77.6528 46.6974 77.7873C46.9176 75.9681 47.1324 74.0267 47.3417 71.9633L47.4364 71.0303C49.8734 70.2023 52.3921 69.4462 54.9926 68.7618C62.8887 66.6839 70.9088 65.645 79.054 65.645C90.293 65.645 99.2335 67.2696 105.908 70.4834L105.915 70.4865C112.677 73.6201 117.516 78.1406 120.467 84.0428L120.468 84.0453C123.434 89.8938 124.926 96.8315 124.926 104.875V172.302C124.926 174.439 125.267 176.236 125.981 177.664C126.694 179.088 127.726 180.17 129.076 180.889L129.093 180.899L129.111 180.906C130.522 181.524 132.139 181.826 133.948 181.826C135.996 181.826 138.042 181.57 140.085 181.059L140.086 181.059L140.099 181.055C141.988 180.526 143.907 179.796 145.856 178.868V184.116C139.51 190.025 133.559 194.068 128.002 196.275C122.387 198.421 116.017 199.5 108.882 199.5C102.507 199.5 97.4265 198.34 93.6029 196.064C89.8724 193.711 87.0965 190.092 85.2903 185.169C84.0514 181.568 83.188 177.258 82.7056 172.232C83.2031 170.608 83.6524 168.914 84.0534 167.149L84.1311 166.807L83.8363 166.617L82.0816 165.489L81.6033 165.182C82.0779 163.205 82.3113 160.939 82.3113 158.39V124.313C83.9518 123.678 85.6792 123.037 87.4936 122.39L87.8124 122.277L87.8254 121.939L88.076 115.421ZM46.1468 73.7811C45.9905 75.2404 45.8313 76.6326 45.6693 77.9578C44.6471 78.1387 43.688 78.3436 42.7925 78.573L46.1468 73.7811ZM41.7275 79.9105C42.8655 79.5603 44.136 79.2557 45.5399 78.9973C45.1964 81.7068 44.8403 84.1205 44.4719 86.239C43.8058 89.9857 43.1006 93.01 42.3585 95.3192C41.6188 97.5378 40.7225 99.3214 39.6793 100.686L39.6792 100.685L39.6721 100.695C38.403 102.44 36.4397 103.896 33.7401 105.041L33.74 105.041L33.7349 105.043C31.1314 106.182 28.2346 106.756 25.0369 106.756C20.7324 106.756 17.6388 106.049 15.6733 104.716C13.7144 103.303 12.7533 101.448 12.7533 99.1094C12.7533 95.53 14.5818 91.8052 18.3758 87.9288L18.3758 87.9288L18.3795 87.925C22.1766 83.9627 27.226 80.3165 33.5416 76.9925L33.5437 76.9914C37.6127 74.8247 41.9866 72.9258 46.6662 71.2953L46.4347 71.6261L41.1708 79.1459L40.3358 80.3387L41.7275 79.9105ZM82.9999 167.269C82.8338 167.984 82.6597 168.688 82.4776 169.379C82.4242 168.553 82.3802 167.709 82.3454 166.848L82.9999 167.269ZM81.3215 166.228C81.3926 168.288 81.5158 170.255 81.6912 172.128C80.1352 177.15 78.1145 181.456 75.6345 185.052L75.6312 185.057C72.4143 189.841 68.5065 193.415 63.9098 195.796L63.9066 195.798C59.3907 198.179 54.2919 199.374 48.5989 199.374C36.5626 199.374 27.3846 196.428 20.9893 190.608C14.6756 184.703 11.5 176.699 11.5 166.537C11.5 161.414 12.3672 156.846 14.0905 152.824C15.881 148.756 19.3157 144.895 24.449 141.252L24.4502 141.251C29.6664 137.525 37.3106 133.658 47.4046 129.653L47.4066 129.652C56.2454 126.102 67.5459 122.172 81.3113 117.861V123.63C76.6416 125.459 72.6761 127.249 69.4177 128.999C64.8749 131.438 61.3552 134.019 58.8814 136.748L58.8809 136.749C56.4956 139.39 54.8268 142.295 53.8848 145.464L53.8846 145.464L53.8814 145.476C53.0321 148.619 52.6108 152.173 52.6108 156.134C52.6108 162.949 53.9535 168.025 56.7431 171.25L56.7479 171.256L56.7527 171.261C59.6114 174.38 63.2996 175.935 67.7743 175.935C70.6847 175.935 73.2368 175.335 75.4131 174.117C77.607 172.888 79.3028 170.964 80.5097 168.377C80.8212 167.71 81.0917 166.993 81.3215 166.228ZM86.8391 121.562C85.2653 122.126 83.756 122.685 82.3113 123.241V117.549C83.8601 117.066 85.4396 116.578 87.0498 116.086L86.8391 121.562Z" fill="#030025"/>
<path d="M88.076 115.421L88.1031 114.719L87.4306 114.924C85.6888 115.455 83.9824 115.981 82.3113 116.501V98.8587C82.3113 92.0833 80.4463 86.7236 76.6583 82.8471C72.9383 78.8702 67.3108 76.9273 59.8786 76.9273C56.1042 76.9273 52.619 77.0951 49.4239 77.4314L49.4225 77.4315C48.4724 77.5343 47.564 77.6528 46.6974 77.7873C46.9176 75.9681 47.1324 74.0267 47.3417 71.9633L47.4364 71.0303C49.8734 70.2023 52.3921 69.4462 54.9926 68.7618C62.8887 66.6839 70.9088 65.645 79.054 65.645C90.293 65.645 99.2335 67.2696 105.908 70.4834L105.915 70.4865C112.677 73.6201 117.516 78.1406 120.467 84.0428L120.468 84.0453C123.434 89.8938 124.926 96.8315 124.926 104.875V172.302C124.926 174.439 125.267 176.236 125.981 177.664C126.694 179.088 127.726 180.17 129.076 180.889L129.093 180.899L129.111 180.906C130.522 181.524 132.139 181.826 133.948 181.826C135.996 181.826 138.042 181.57 140.085 181.059L140.086 181.059L140.099 181.055C141.988 180.526 143.907 179.796 145.856 178.868V184.116C139.51 190.025 133.559 194.068 128.002 196.275C122.387 198.421 116.017 199.5 108.882 199.5C102.507 199.5 97.4265 198.34 93.6029 196.064C89.8724 193.711 87.0965 190.092 85.2903 185.169C84.0514 181.568 83.188 177.258 82.7056 172.232C83.2031 170.608 83.6524 168.914 84.0534 167.149L84.1311 166.807L83.8363 166.617L82.0816 165.489L81.6033 165.182C82.0779 163.205 82.3113 160.939 82.3113 158.39V124.313C83.9518 123.678 85.6792 123.037 87.4936 122.39L87.8124 122.277L87.8254 121.939L88.076 115.421ZM46.1468 73.7811C45.9905 75.2404 45.8313 76.6326 45.6693 77.9578C44.6471 78.1387 43.688 78.3436 42.7925 78.573L46.1468 73.7811ZM41.7275 79.9105C42.8655 79.5603 44.136 79.2557 45.5399 78.9973C45.1964 81.7068 44.8403 84.1205 44.4719 86.239C43.8058 89.9857 43.1006 93.01 42.3585 95.3192C41.6188 97.5378 40.7225 99.3214 39.6793 100.686L39.6792 100.685L39.6721 100.695C38.403 102.44 36.4397 103.896 33.7401 105.041L33.74 105.041L33.7349 105.043C31.1314 106.182 28.2346 106.756 25.0369 106.756C20.7324 106.756 17.6388 106.049 15.6733 104.716C13.7144 103.303 12.7533 101.448 12.7533 99.1094C12.7533 95.53 14.5818 91.8052 18.3758 87.9288L18.3758 87.9288L18.3795 87.925C22.1766 83.9627 27.226 80.3165 33.5416 76.9925L33.5437 76.9914C37.6127 74.8247 41.9866 72.9258 46.6662 71.2953L46.4347 71.6261L41.1708 79.1459L40.3358 80.3387L41.7275 79.9105ZM82.9999 167.269C82.8338 167.984 82.6597 168.688 82.4776 169.379C82.4242 168.553 82.3802 167.709 82.3454 166.848L82.9999 167.269ZM81.3215 166.228C81.3926 168.288 81.5158 170.255 81.6912 172.128C80.1352 177.15 78.1145 181.456 75.6345 185.052L75.6312 185.057C72.4143 189.841 68.5065 193.415 63.9098 195.796L63.9066 195.798C59.3907 198.179 54.2919 199.374 48.5989 199.374C36.5626 199.374 27.3846 196.428 20.9893 190.608C14.6756 184.703 11.5 176.699 11.5 166.537C11.5 161.414 12.3672 156.846 14.0905 152.824C15.881 148.756 19.3157 144.895 24.449 141.252L24.4502 141.251C29.6664 137.525 37.3106 133.658 47.4046 129.653L47.4066 129.652C56.2454 126.102 67.5459 122.172 81.3113 117.861V123.63C76.6416 125.459 72.6761 127.249 69.4177 128.999C64.8749 131.438 61.3552 134.019 58.8814 136.748L58.8809 136.749C56.4956 139.39 54.8268 142.295 53.8848 145.464L53.8846 145.464L53.8814 145.476C53.0321 148.619 52.6108 152.173 52.6108 156.134C52.6108 162.949 53.9535 168.025 56.7431 171.25L56.7479 171.256L56.7527 171.261C59.6114 174.38 63.2996 175.935 67.7743 175.935C70.6847 175.935 73.2368 175.335 75.4131 174.117C77.607 172.888 79.3028 170.964 80.5097 168.377C80.8212 167.71 81.0917 166.993 81.3215 166.228ZM86.8391 121.562C85.2653 122.126 83.756 122.685 82.3113 123.241V117.549C83.8601 117.066 85.4396 116.578 87.0498 116.086L86.8391 121.562Z" fill="url(#paint8_radial_1854_676)" fill-opacity="0.15"/>
<path d="M88.076 115.421L88.1031 114.719L87.4306 114.924C85.6888 115.455 83.9824 115.981 82.3113 116.501V98.8587C82.3113 92.0833 80.4463 86.7236 76.6583 82.8471C72.9383 78.8702 67.3108 76.9273 59.8786 76.9273C56.1042 76.9273 52.619 77.0951 49.4239 77.4314L49.4225 77.4315C48.4724 77.5343 47.564 77.6528 46.6974 77.7873C46.9176 75.9681 47.1324 74.0267 47.3417 71.9633L47.4364 71.0303C49.8734 70.2023 52.3921 69.4462 54.9926 68.7618C62.8887 66.6839 70.9088 65.645 79.054 65.645C90.293 65.645 99.2335 67.2696 105.908 70.4834L105.915 70.4865C112.677 73.6201 117.516 78.1406 120.467 84.0428L120.468 84.0453C123.434 89.8938 124.926 96.8315 124.926 104.875V172.302C124.926 174.439 125.267 176.236 125.981 177.664C126.694 179.088 127.726 180.17 129.076 180.889L129.093 180.899L129.111 180.906C130.522 181.524 132.139 181.826 133.948 181.826C135.996 181.826 138.042 181.57 140.085 181.059L140.086 181.059L140.099 181.055C141.988 180.526 143.907 179.796 145.856 178.868V184.116C139.51 190.025 133.559 194.068 128.002 196.275C122.387 198.421 116.017 199.5 108.882 199.5C102.507 199.5 97.4265 198.34 93.6029 196.064C89.8724 193.711 87.0965 190.092 85.2903 185.169C84.0514 181.568 83.188 177.258 82.7056 172.232C83.2031 170.608 83.6524 168.914 84.0534 167.149L84.1311 166.807L83.8363 166.617L82.0816 165.489L81.6033 165.182C82.0779 163.205 82.3113 160.939 82.3113 158.39V124.313C83.9518 123.678 85.6792 123.037 87.4936 122.39L87.8124 122.277L87.8254 121.939L88.076 115.421ZM46.1468 73.7811C45.9905 75.2404 45.8313 76.6326 45.6693 77.9578C44.6471 78.1387 43.688 78.3436 42.7925 78.573L46.1468 73.7811ZM41.7275 79.9105C42.8655 79.5603 44.136 79.2557 45.5399 78.9973C45.1964 81.7068 44.8403 84.1205 44.4719 86.239C43.8058 89.9857 43.1006 93.01 42.3585 95.3192C41.6188 97.5378 40.7225 99.3214 39.6793 100.686L39.6792 100.685L39.6721 100.695C38.403 102.44 36.4397 103.896 33.7401 105.041L33.74 105.041L33.7349 105.043C31.1314 106.182 28.2346 106.756 25.0369 106.756C20.7324 106.756 17.6388 106.049 15.6733 104.716C13.7144 103.303 12.7533 101.448 12.7533 99.1094C12.7533 95.53 14.5818 91.8052 18.3758 87.9288L18.3758 87.9288L18.3795 87.925C22.1766 83.9627 27.226 80.3165 33.5416 76.9925L33.5437 76.9914C37.6127 74.8247 41.9866 72.9258 46.6662 71.2953L46.4347 71.6261L41.1708 79.1459L40.3358 80.3387L41.7275 79.9105ZM82.9999 167.269C82.8338 167.984 82.6597 168.688 82.4776 169.379C82.4242 168.553 82.3802 167.709 82.3454 166.848L82.9999 167.269ZM81.3215 166.228C81.3926 168.288 81.5158 170.255 81.6912 172.128C80.1352 177.15 78.1145 181.456 75.6345 185.052L75.6312 185.057C72.4143 189.841 68.5065 193.415 63.9098 195.796L63.9066 195.798C59.3907 198.179 54.2919 199.374 48.5989 199.374C36.5626 199.374 27.3846 196.428 20.9893 190.608C14.6756 184.703 11.5 176.699 11.5 166.537C11.5 161.414 12.3672 156.846 14.0905 152.824C15.881 148.756 19.3157 144.895 24.449 141.252L24.4502 141.251C29.6664 137.525 37.3106 133.658 47.4046 129.653L47.4066 129.652C56.2454 126.102 67.5459 122.172 81.3113 117.861V123.63C76.6416 125.459 72.6761 127.249 69.4177 128.999C64.8749 131.438 61.3552 134.019 58.8814 136.748L58.8809 136.749C56.4956 139.39 54.8268 142.295 53.8848 145.464L53.8846 145.464L53.8814 145.476C53.0321 148.619 52.6108 152.173 52.6108 156.134C52.6108 162.949 53.9535 168.025 56.7431 171.25L56.7479 171.256L56.7527 171.261C59.6114 174.38 63.2996 175.935 67.7743 175.935C70.6847 175.935 73.2368 175.335 75.4131 174.117C77.607 172.888 79.3028 170.964 80.5097 168.377C80.8212 167.71 81.0917 166.993 81.3215 166.228ZM86.8391 121.562C85.2653 122.126 83.756 122.685 82.3113 123.241V117.549C83.8601 117.066 85.4396 116.578 87.0498 116.086L86.8391 121.562Z" stroke="#030025"/>
<defs>
<radialGradient id="paint0_radial_1854_676" cx="0" cy="0" r="1" gradientUnits="userSpaceOnUse" gradientTransform="translate(1219.33 115.836) rotate(91.4826) scale(116.038 95.0021)">
<stop offset="0.681485" stop-color="white" stop-opacity="0"/>
<stop offset="1" stop-color="white"/>
</radialGradient>
<radialGradient id="paint1_radial_1854_676" cx="0" cy="0" r="1" gradientUnits="userSpaceOnUse" gradientTransform="translate(1081.25 117.406) rotate(91.2654) scale(118.449 82.7785)">
<stop offset="0.681485" stop-color="white" stop-opacity="0"/>
<stop offset="1" stop-color="white"/>
</radialGradient>
<radialGradient id="paint2_radial_1854_676" cx="0" cy="0" r="1" gradientUnits="userSpaceOnUse" gradientTransform="translate(913.432 117.732) rotate(92.1241) scale(114.978 134.802)">
<stop offset="0.681485" stop-color="white" stop-opacity="0"/>
<stop offset="1" stop-color="white"/>
</radialGradient>
<radialGradient id="paint3_radial_1854_676" cx="0" cy="0" r="1" gradientUnits="userSpaceOnUse" gradientTransform="translate(760.704 117.406) rotate(91.1278) scale(118.443 73.7812)">
<stop offset="0.681485" stop-color="white" stop-opacity="0"/>
<stop offset="1" stop-color="white"/>
</radialGradient>
<radialGradient id="paint4_radial_1854_676" cx="0" cy="0" r="1" gradientUnits="userSpaceOnUse" gradientTransform="translate(641.541 117.406) rotate(91.1278) scale(118.443 73.7812)">
<stop offset="0.681485" stop-color="white" stop-opacity="0"/>
<stop offset="1" stop-color="white"/>
</radialGradient>
<radialGradient id="paint5_radial_1854_676" cx="0" cy="0" r="1" gradientUnits="userSpaceOnUse" gradientTransform="translate(501.667 82.3683) rotate(91.082) scale(164.013 98.0174)">
<stop offset="0.681485" stop-color="white" stop-opacity="0"/>
<stop offset="1" stop-color="white"/>
</radialGradient>
<radialGradient id="paint6_radial_1854_676" cx="0" cy="0" r="1" gradientUnits="userSpaceOnUse" gradientTransform="translate(356.075 115.836) rotate(91.4826) scale(116.038 95.002)">
<stop offset="0.681485" stop-color="white" stop-opacity="0"/>
<stop offset="1" stop-color="white"/>
</radialGradient>
<radialGradient id="paint7_radial_1854_676" cx="0" cy="0" r="1" gradientUnits="userSpaceOnUse" gradientTransform="translate(203.126 82.3683) rotate(91.082) scale(164.013 98.0174)">
<stop offset="0.681485" stop-color="white" stop-opacity="0"/>
<stop offset="1" stop-color="white"/>
</radialGradient>
<radialGradient id="paint8_radial_1854_676" cx="0" cy="0" r="1" gradientUnits="userSpaceOnUse" gradientTransform="translate(72.9444 117.406) rotate(91.2701) scale(118.449 83.0861)">
<stop offset="0.681485" stop-color="white" stop-opacity="0"/>
<stop offset="1" stop-color="white"/>
</radialGradient>
</defs>
</svg>
