<svg width="799" height="373" viewBox="0 0 799 373" fill="none" xmlns="http://www.w3.org/2000/svg">
<path d="M727.787 131.619L704.832 126.454V120.142H764.516V126.454L744.047 131.811L692.207 317.747H651.653L590.631 163.374L603.639 158.974L547.016 317.747H506.462L449.457 134.106L429.18 126.072V120.142H541.66V126.454L518.896 132.385L558.685 273.559L546.633 286.566L601.343 118.038H642.471L702.346 272.411L689.72 286.375L727.787 131.619Z" fill="white"/>
<path d="M354.477 310.096L373.606 304.166V187.286C373.606 180.4 372.522 174.852 370.354 170.644C368.314 166.435 365.189 163.374 360.981 161.462C356.772 159.421 351.352 158.401 344.721 158.401C338.472 158.401 332.223 159.294 325.974 161.079C319.853 162.737 313.668 165.096 307.419 168.157L306.462 164.522C316.282 153.937 324.699 145.457 331.713 139.08C338.855 132.576 345.231 127.73 350.842 124.542C356.581 121.226 362.192 119.058 367.676 118.038C373.287 116.89 379.6 116.316 386.614 116.316C404.34 116.316 417.667 121.226 426.594 131.046C435.649 140.866 440.176 155.149 440.176 173.896V303.783L460.453 310.096V316.026H354.477V310.096ZM333.243 316.026H227.458V310.096L247.735 303.783V86.4749C246.078 84.9445 243.782 82.8403 240.849 80.1622C237.916 77.4841 234.409 74.3597 230.328 70.7889C226.247 67.0905 221.72 63.0096 216.746 58.5461V53.1899L310.862 31H314.497V99.8653V304.166L333.243 310.096V316.026Z" fill="white"/>
<path d="M150.88 191.878L150.497 201.825C139.402 205.778 130.411 209.604 123.525 213.303C116.638 217.001 111.346 220.89 107.648 224.971C104.077 228.925 101.59 233.261 100.187 237.979C98.9119 242.698 98.2743 248.054 98.2743 254.048C98.2743 264.378 100.315 271.902 104.396 276.62C108.604 281.211 114.024 283.507 120.656 283.507C124.991 283.507 128.754 282.614 131.942 280.829C135.13 279.043 137.617 276.238 139.402 272.412C141.188 268.586 142.08 263.612 142.08 257.491V166.627C142.08 156.425 139.275 148.454 133.663 142.716C128.18 136.849 119.827 133.916 108.604 133.916C102.865 133.916 97.5729 134.171 92.7268 134.681C88.0083 135.191 83.9911 135.957 80.6754 136.977L88.7097 125.499C87.817 134.299 86.8605 141.632 85.8403 147.498C84.8201 153.237 83.7361 157.891 82.5883 161.462C81.4406 164.906 80.0377 167.711 78.3799 169.879C76.3394 172.685 73.215 174.98 69.0065 176.766C64.9256 178.551 60.3984 179.444 55.4248 179.444C48.7933 179.444 43.8834 178.36 40.6952 176.192C37.507 173.896 35.9129 170.836 35.9129 167.01C35.9129 161.271 38.8461 155.405 44.7124 149.411C50.5787 143.289 58.3579 137.678 68.0501 132.577C77.8698 127.348 88.8372 123.14 100.952 119.952C113.068 116.764 125.374 115.169 137.872 115.169C155.088 115.169 168.861 117.656 179.191 122.63C189.648 127.476 197.173 134.49 201.764 143.672C206.355 152.727 208.65 163.439 208.65 175.809V278.725C208.65 281.913 209.16 284.527 210.18 286.568C211.201 288.608 212.667 290.138 214.58 291.159C216.621 292.051 218.98 292.498 221.658 292.498C224.719 292.498 227.779 292.115 230.84 291.35C234.028 290.457 237.28 289.182 240.596 287.524V297.089C230.776 306.271 221.53 312.583 212.859 316.027C204.187 319.342 194.367 321 183.4 321C173.58 321 165.673 319.215 159.679 315.644C153.813 311.946 149.477 306.271 146.671 298.619C143.993 290.84 142.463 280.956 142.08 268.969L144.758 270.69C142.208 281.913 138.382 291.222 133.281 298.619C128.307 306.016 122.25 311.563 115.108 315.262C108.094 318.96 100.187 320.809 91.3878 320.809C72.8962 320.809 58.6767 316.282 48.7295 307.227C38.9098 298.045 34 285.611 34 269.925C34 262.018 35.339 254.941 38.0171 248.692C40.8228 242.315 46.179 236.321 54.0857 230.71C62.12 224.971 73.8526 219.041 89.2836 212.92C104.842 206.671 125.374 199.657 150.88 191.878Z" fill="white"/>
</svg>
