<svg width="300" height="300" viewBox="0 0 300 300" fill="none" xmlns="http://www.w3.org/2000/svg">
<g clip-path="url(#clip0_1920_3266)">
<path fill-rule="evenodd" clip-rule="evenodd" d="M18.866 0C8.4466 0 0 8.44662 0 18.866V280.248C0 290.667 8.44662 299.114 18.866 299.114H280.248C290.667 299.114 299.114 290.667 299.114 280.248V18.866C299.114 8.4466 290.667 0 280.248 0H18.866ZM206.633 237.152H245.703V156.89C245.703 122.931 226.452 106.511 199.564 106.511C172.663 106.511 161.342 127.46 161.342 127.46V110.384H123.689V237.152H161.342V170.606C161.342 152.776 169.55 142.166 185.259 142.166C199.7 142.166 206.633 152.362 206.633 170.606V237.152ZM55.5519 70.393C55.5519 83.311 65.9445 93.7852 78.7698 93.7852C91.5951 93.7852 101.982 83.311 101.982 70.393C101.982 57.4749 91.5951 47.0007 78.7698 47.0007C65.9445 47.0007 55.5519 57.4749 55.5519 70.393ZM98.5896 237.152H59.3277V110.384H98.5896V237.152Z" fill="black"/>
</g>
<defs>
<clipPath id="clip0_1920_3266">
<rect width="300" height="300" fill="white"/>
</clipPath>
</defs>
</svg>
