<svg width="200" height="300" viewBox="0 0 200 300" fill="none" xmlns="http://www.w3.org/2000/svg">
<g clip-path="url(#clip0_1918_3154)">
<path d="M50.01 300C77.6045 300 100 277.6 100 250V200H50.01C22.4155 200 0.0200195 222.4 0.0200195 250C0.0200195 277.6 22.4155 300 50.01 300Z" fill="#0ACF83"/>
<path d="M0.0200195 150C0.0200195 122.4 22.4155 100 50.01 100H100V200H50.01C22.4155 200 0.0200195 177.6 0.0200195 150Z" fill="#A259FF"/>
<path d="M0.0200195 50C0.0200195 22.4 22.4155 0 50.01 0H100V100H50.01C22.4155 100 0.0200195 77.6 0.0200195 50Z" fill="#F24E1E"/>
<path d="M100 0H149.99C177.584 0 199.98 22.4 199.98 50C199.98 77.6 177.584 100 149.99 100H100V0Z" fill="#FF7262"/>
<path d="M199.98 150C199.98 177.6 177.584 200 149.99 200C122.396 200 100 177.6 100 150C100 122.4 122.396 100 149.99 100C177.584 100 199.98 122.4 199.98 150Z" fill="#1ABCFE"/>
</g>
<defs>
<clipPath id="clip0_1918_3154">
<rect width="200" height="300" fill="white"/>
</clipPath>
</defs>
</svg>
