<svg width="300" height="300" viewBox="0 0 300 300" fill="none" xmlns="http://www.w3.org/2000/svg">
<path fill-rule="evenodd" clip-rule="evenodd" d="M150 0C67.125 0 0 67.125 0 150C0 216.375 42.9375 272.438 102.562 292.313C110.062 293.625 112.875 289.125 112.875 285.188C112.875 281.625 112.688 269.813 112.688 257.25C75 264.188 65.25 248.062 62.25 239.625C60.5625 235.312 53.25 222 46.875 218.437C41.625 215.625 34.125 208.687 46.6875 208.5C58.5 208.312 66.9375 219.375 69.75 223.875C83.25 246.562 104.813 240.188 113.438 236.25C114.75 226.5 118.687 219.937 123 216.187C89.625 212.437 54.75 199.5 54.75 142.125C54.75 125.812 60.5625 112.312 70.125 101.812C68.625 98.0625 63.375 82.6875 71.625 62.0625C71.625 62.0625 84.1875 58.125 112.875 77.4375C124.875 74.0625 137.625 72.375 150.375 72.375C163.125 72.375 175.875 74.0625 187.875 77.4375C216.563 57.9375 229.125 62.0625 229.125 62.0625C237.375 82.6875 232.125 98.0625 230.625 101.812C240.188 112.312 246 125.625 246 142.125C246 199.687 210.938 212.437 177.563 216.187C183 220.875 187.688 229.875 187.688 243.938C187.688 264 187.5 280.125 187.5 285.188C187.5 289.125 190.313 293.813 197.813 292.313C257.063 272.438 300 216.187 300 150C300 67.125 232.875 0 150 0Z" fill="#1B1F23"/>
</svg>
