<svg width="316" height="300" viewBox="0 0 316 300" fill="none" xmlns="http://www.w3.org/2000/svg">
<g clip-path="url(#clip0_1918_3046)">
<path d="M55.9583 0H260.042C290.983 0 316 24.359 316 54.4872V245.513C316 275.641 290.983 300 260.042 300H55.9583C25.0167 300 0 275.641 0 245.513V54.4872C0 24.359 25.0167 0 55.9583 0Z" fill="#001E36"/>
<path d="M71.1 210.385V78.4617C71.1 77.5643 71.495 77.0515 72.4166 77.0515C74.655 77.0515 76.7616 77.0515 79.79 76.9233C82.95 76.795 86.2416 76.795 89.7966 76.6668C93.3516 76.5386 97.17 76.5386 101.252 76.4104C105.333 76.2822 109.283 76.2822 113.233 76.2822C124.03 76.2822 132.983 77.5643 140.357 80.2566C146.94 82.4361 152.997 86.0258 158 90.7694C162.213 94.872 165.505 99.872 167.612 105.385C169.587 110.769 170.64 116.282 170.64 122.051C170.64 133.077 168.007 142.18 162.74 149.359C157.473 156.539 150.1 161.923 141.542 165C132.588 168.205 122.713 169.359 111.917 169.359C108.757 169.359 106.65 169.359 105.333 169.231C104.017 169.103 102.173 169.103 99.6716 169.103V210.257C99.8033 211.154 99.145 211.923 98.2233 212.051C98.0916 212.051 97.96 212.051 97.6966 212.051H72.68C71.6266 212.051 71.1 211.539 71.1 210.385ZM99.8033 101.795V144.872C101.647 145 103.358 145.128 104.938 145.128H111.917C117.052 145.128 122.187 144.359 127.058 142.821C131.272 141.667 134.958 139.231 137.855 136.026C140.62 132.821 141.937 128.462 141.937 122.821C142.068 118.846 141.015 114.872 138.908 111.41C136.67 108.077 133.51 105.513 129.692 104.103C124.82 102.18 119.553 101.41 114.155 101.539C110.732 101.539 107.703 101.539 105.202 101.667C102.568 101.539 100.725 101.667 99.8033 101.795Z" fill="#31A8FF"/>
<path d="M252.8 137.052C248.85 135 244.637 133.59 240.16 132.693C235.288 131.667 230.417 131.026 225.413 131.026C222.78 130.898 220.015 131.282 217.513 131.923C215.802 132.308 214.353 133.205 213.432 134.487C212.773 135.513 212.378 136.795 212.378 137.949C212.378 139.103 212.905 140.257 213.695 141.282C214.88 142.693 216.46 143.846 218.172 144.744C221.2 146.282 224.36 147.693 227.52 148.975C234.63 151.282 241.477 154.487 247.797 158.334C252.142 161.026 255.697 164.616 258.198 168.975C260.305 173.077 261.358 177.564 261.227 182.18C261.358 188.205 259.515 194.231 256.092 199.231C252.405 204.359 247.27 208.334 241.345 210.641C234.893 213.334 226.993 214.744 217.513 214.744C211.457 214.744 205.532 214.231 199.607 213.077C194.998 212.308 190.39 210.898 186.177 208.975C185.255 208.462 184.597 207.564 184.728 206.539V184.231C184.728 183.846 184.86 183.334 185.255 183.077C185.65 182.821 186.045 182.949 186.44 183.205C191.575 186.154 196.973 188.205 202.767 189.487C207.77 190.769 213.037 191.41 218.303 191.41C223.307 191.41 226.862 190.769 229.232 189.616C231.338 188.718 232.787 186.539 232.787 184.231C232.787 182.436 231.733 180.769 229.627 179.103C227.52 177.436 223.175 175.513 216.723 173.077C210.008 170.769 203.82 167.693 198.027 163.846C193.945 161.026 190.522 157.308 188.02 152.949C185.913 148.846 184.86 144.359 184.992 139.872C184.992 134.359 186.572 129.103 189.468 124.359C192.76 119.231 197.632 115.128 203.293 112.564C209.482 109.487 217.25 108.077 226.598 108.077C231.997 108.077 237.527 108.462 242.925 109.231C246.875 109.744 250.693 110.769 254.248 112.18C254.775 112.308 255.302 112.821 255.565 113.334C255.697 113.846 255.828 114.359 255.828 114.872V135.769C255.828 136.282 255.565 136.795 255.17 137.052C253.985 137.308 253.327 137.308 252.8 137.052Z" fill="#31A8FF"/>
</g>
<defs>
<clipPath id="clip0_1918_3046">
<rect width="316" height="300" fill="white"/>
</clipPath>
</defs>
</svg>
