<svg width="273" height="300" viewBox="0 0 273 300" fill="none" xmlns="http://www.w3.org/2000/svg">
<g clip-path="url(#clip0_1918_3175)">
<path d="M135.158 0.00226944C123.877 0.0548485 113.105 1.01992 103.626 2.70244C75.7021 7.65102 70.6323 18.0088 70.6323 37.1104V62.3377H136.619V70.7468H70.6323H45.8679C26.6903 70.7468 9.8978 82.3097 4.64532 104.306C-1.41334 129.519 -1.68208 145.253 4.64532 171.579C9.33591 191.175 20.5377 205.138 39.7153 205.138H62.4031V174.896C62.4031 153.048 81.2478 133.777 103.626 133.777H169.536C187.883 133.777 202.529 118.623 202.529 100.14V37.1104C202.529 19.1717 187.443 5.69633 169.536 2.70244C158.2 0.809605 146.439 -0.0503103 135.158 0.00226944ZM99.4727 20.2921C106.289 20.2921 111.855 25.9669 111.855 32.9444C111.855 39.8972 106.289 45.5195 99.4727 45.5195C92.6323 45.5195 87.0906 39.8972 87.0906 32.9444C87.0906 25.9669 92.6323 20.2921 99.4727 20.2921Z" fill="url(#paint0_linear_1918_3175)"/>
<path d="M211.13 70.5532V99.9758C211.13 122.787 191.797 141.986 169.751 141.986H103.59C85.4672 141.986 70.4707 157.501 70.4707 175.656V238.748C70.4707 256.705 86.0802 267.267 103.59 272.418C124.557 278.585 144.663 279.7 169.751 272.418C186.426 267.589 202.87 257.869 202.87 238.748V213.496H136.709V205.078H202.87H235.989C255.239 205.078 262.413 191.647 269.107 171.486C276.023 150.731 275.729 130.771 269.107 104.146C264.35 84.9758 255.264 70.5532 235.989 70.5532H211.13ZM173.919 230.331C180.786 230.331 186.349 235.959 186.349 242.918C186.349 249.903 180.786 255.583 173.919 255.583C167.077 255.583 161.49 249.903 161.49 242.918C161.49 235.959 167.077 230.331 173.919 230.331Z" fill="url(#paint1_linear_1918_3175)"/>
</g>
<defs>
<linearGradient id="paint0_linear_1918_3175" x1="-8.21708e-07" y1="-7.16021e-07" x2="152.557" y2="129.596" gradientUnits="userSpaceOnUse">
<stop stop-color="#5A9FD4"/>
<stop offset="1" stop-color="#306998"/>
</linearGradient>
<linearGradient id="paint1_linear_1918_3175" x1="172.328" y1="240.795" x2="117.508" y2="164.001" gradientUnits="userSpaceOnUse">
<stop stop-color="#FFD43B"/>
<stop offset="1" stop-color="#FFE873"/>
</linearGradient>
<clipPath id="clip0_1918_3175">
<rect width="273" height="300" fill="white"/>
</clipPath>
</defs>
</svg>
