<svg width="100" height="100" viewBox="0 0 100 100" fill="none" xmlns="http://www.w3.org/2000/svg">
<g clip-path="url(#clip0_1855_687)">
<mask id="mask0_1855_687" style="mask-type:luminance" maskUnits="userSpaceOnUse" x="3" y="3" width="94" height="94">
<path d="M5.19961 35.5994C6.08326 35.5994 6.79961 34.8831 6.79961 33.9994C6.79961 33.1158 6.08326 32.3994 5.19961 32.3994C4.31595 32.3994 3.59961 33.1158 3.59961 33.9994C3.59961 34.8831 4.31595 35.5994 5.19961 35.5994Z" fill="white"/>
<path d="M5.19961 38.7996C6.08326 38.7996 6.79961 38.0833 6.79961 37.1996C6.79961 36.316 6.08326 35.5996 5.19961 35.5996C4.31595 35.5996 3.59961 36.316 3.59961 37.1996C3.59961 38.0833 4.31595 38.7996 5.19961 38.7996Z" fill="white"/>
<path d="M5.19961 45.2C6.08326 45.2 6.79961 44.4837 6.79961 43.6C6.79961 42.7163 6.08326 42 5.19961 42C4.31595 42 3.59961 42.7163 3.59961 43.6C3.59961 44.4837 4.31595 45.2 5.19961 45.2Z" fill="white"/>
<path d="M5.19961 51.5994C6.08326 51.5994 6.79961 50.8831 6.79961 49.9994C6.79961 49.1158 6.08326 48.3994 5.19961 48.3994C4.31595 48.3994 3.59961 49.1158 3.59961 49.9994C3.59961 50.8831 4.31595 51.5994 5.19961 51.5994Z" fill="white"/>
<path d="M5.19961 57.9998C6.08326 57.9998 6.79961 57.2835 6.79961 56.3998C6.79961 55.5161 6.08326 54.7998 5.19961 54.7998C4.31595 54.7998 3.59961 55.5161 3.59961 56.3998C3.59961 57.2835 4.31595 57.9998 5.19961 57.9998Z" fill="white"/>
<path d="M5.19961 61.2C6.08326 61.2 6.79961 60.4837 6.79961 59.6C6.79961 58.7163 6.08326 58 5.19961 58C4.31595 58 3.59961 58.7163 3.59961 59.6C3.59961 60.4837 4.31595 61.2 5.19961 61.2Z" fill="white"/>
<path d="M5.19961 67.5994C6.08326 67.5994 6.79961 66.8831 6.79961 65.9994C6.79961 65.1158 6.08326 64.3994 5.19961 64.3994C4.31595 64.3994 3.59961 65.1158 3.59961 65.9994C3.59961 66.8831 4.31595 67.5994 5.19961 67.5994Z" fill="white"/>
<path d="M5.19961 70.7996C6.08326 70.7996 6.79961 70.0833 6.79961 69.1996C6.79961 68.316 6.08326 67.5996 5.19961 67.5996C4.31595 67.5996 3.59961 68.316 3.59961 69.1996C3.59961 70.0833 4.31595 70.7996 5.19961 70.7996Z" fill="white"/>
<path d="M8.3998 45.2C9.28346 45.2 9.9998 44.4837 9.9998 43.6C9.9998 42.7163 9.28346 42 8.3998 42C7.51615 42 6.7998 42.7163 6.7998 43.6C6.7998 44.4837 7.51615 45.2 8.3998 45.2Z" fill="white"/>
<path d="M8.3998 48.3992C9.28346 48.3992 9.9998 47.6829 9.9998 46.7992C9.9998 45.9156 9.28346 45.1992 8.3998 45.1992C7.51615 45.1992 6.7998 45.9156 6.7998 46.7992C6.7998 47.6829 7.51615 48.3992 8.3998 48.3992Z" fill="white"/>
<path d="M8.3998 51.5994C9.28346 51.5994 9.9998 50.8831 9.9998 49.9994C9.9998 49.1158 9.28346 48.3994 8.3998 48.3994C7.51615 48.3994 6.7998 49.1158 6.7998 49.9994C6.7998 50.8831 7.51615 51.5994 8.3998 51.5994Z" fill="white"/>
<path d="M8.3998 61.2C9.28346 61.2 9.9998 60.4837 9.9998 59.6C9.9998 58.7163 9.28346 58 8.3998 58C7.51615 58 6.7998 58.7163 6.7998 59.6C6.7998 60.4837 7.51615 61.2 8.3998 61.2Z" fill="white"/>
<path d="M8.3998 67.5994C9.28346 67.5994 9.9998 66.8831 9.9998 65.9994C9.9998 65.1158 9.28346 64.3994 8.3998 64.3994C7.51615 64.3994 6.7998 65.1158 6.7998 65.9994C6.7998 66.8831 7.51615 67.5994 8.3998 67.5994Z" fill="white"/>
<path d="M11.6 32.3992C12.4837 32.3992 13.2 31.6829 13.2 30.7992C13.2 29.9156 12.4837 29.1992 11.6 29.1992C10.7163 29.1992 10 29.9156 10 30.7992C10 31.6829 10.7163 32.3992 11.6 32.3992Z" fill="white"/>
<path d="M11.6 41.9998C12.4837 41.9998 13.2 41.2835 13.2 40.3998C13.2 39.5161 12.4837 38.7998 11.6 38.7998C10.7163 38.7998 10 39.5161 10 40.3998C10 41.2835 10.7163 41.9998 11.6 41.9998Z" fill="white"/>
<path d="M11.6 51.5994C12.4837 51.5994 13.2 50.8831 13.2 49.9994C13.2 49.1158 12.4837 48.3994 11.6 48.3994C10.7163 48.3994 10 49.1158 10 49.9994C10 50.8831 10.7163 51.5994 11.6 51.5994Z" fill="white"/>
<path d="M11.6 54.7996C12.4837 54.7996 13.2 54.0833 13.2 53.1996C13.2 52.316 12.4837 51.5996 11.6 51.5996C10.7163 51.5996 10 52.316 10 53.1996C10 54.0833 10.7163 54.7996 11.6 54.7996Z" fill="white"/>
<path d="M11.6 61.2C12.4837 61.2 13.2 60.4837 13.2 59.6C13.2 58.7163 12.4837 58 11.6 58C10.7163 58 10 58.7163 10 59.6C10 60.4837 10.7163 61.2 11.6 61.2Z" fill="white"/>
<path d="M14.7992 38.7996C15.6829 38.7996 16.3992 38.0833 16.3992 37.1996C16.3992 36.316 15.6829 35.5996 14.7992 35.5996C13.9156 35.5996 13.1992 36.316 13.1992 37.1996C13.1992 38.0833 13.9156 38.7996 14.7992 38.7996Z" fill="white"/>
<path d="M14.7992 51.5994C15.6829 51.5994 16.3992 50.8831 16.3992 49.9994C16.3992 49.1158 15.6829 48.3994 14.7992 48.3994C13.9156 48.3994 13.1992 49.1158 13.1992 49.9994C13.1992 50.8831 13.9156 51.5994 14.7992 51.5994Z" fill="white"/>
<path d="M14.7992 64.3992C15.6829 64.3992 16.3992 63.6829 16.3992 62.7992C16.3992 61.9156 15.6829 61.1992 14.7992 61.1992C13.9156 61.1992 13.1992 61.9156 13.1992 62.7992C13.1992 63.6829 13.9156 64.3992 14.7992 64.3992Z" fill="white"/>
<path d="M17.9994 32.3992C18.8831 32.3992 19.5994 31.6829 19.5994 30.7992C19.5994 29.9156 18.8831 29.1992 17.9994 29.1992C17.1158 29.1992 16.3994 29.9156 16.3994 30.7992C16.3994 31.6829 17.1158 32.3992 17.9994 32.3992Z" fill="white"/>
<path d="M17.9994 35.5994C18.8831 35.5994 19.5994 34.8831 19.5994 33.9994C19.5994 33.1158 18.8831 32.3994 17.9994 32.3994C17.1158 32.3994 16.3994 33.1158 16.3994 33.9994C16.3994 34.8831 17.1158 35.5994 17.9994 35.5994Z" fill="white"/>
<path d="M17.9994 51.5994C18.8831 51.5994 19.5994 50.8831 19.5994 49.9994C19.5994 49.1158 18.8831 48.3994 17.9994 48.3994C17.1158 48.3994 16.3994 49.1158 16.3994 49.9994C16.3994 50.8831 17.1158 51.5994 17.9994 51.5994Z" fill="white"/>
<path d="M17.9994 57.9998C18.8831 57.9998 19.5994 57.2835 19.5994 56.3998C19.5994 55.5161 18.8831 54.7998 17.9994 54.7998C17.1158 54.7998 16.3994 55.5161 16.3994 56.3998C16.3994 57.2835 17.1158 57.9998 17.9994 57.9998Z" fill="white"/>
<path d="M17.9994 61.2C18.8831 61.2 19.5994 60.4837 19.5994 59.6C19.5994 58.7163 18.8831 58 17.9994 58C17.1158 58 16.3994 58.7163 16.3994 59.6C16.3994 60.4837 17.1158 61.2 17.9994 61.2Z" fill="white"/>
<path d="M17.9994 64.3992C18.8831 64.3992 19.5994 63.6829 19.5994 62.7992C19.5994 61.9156 18.8831 61.1992 17.9994 61.1992C17.1158 61.1992 16.3994 61.9156 16.3994 62.7992C16.3994 63.6829 17.1158 64.3992 17.9994 64.3992Z" fill="white"/>
<path d="M21.1996 32.3992C22.0833 32.3992 22.7996 31.6829 22.7996 30.7992C22.7996 29.9156 22.0833 29.1992 21.1996 29.1992C20.316 29.1992 19.5996 29.9156 19.5996 30.7992C19.5996 31.6829 20.316 32.3992 21.1996 32.3992Z" fill="white"/>
<path d="M21.1996 38.7996C22.0833 38.7996 22.7996 38.0833 22.7996 37.1996C22.7996 36.316 22.0833 35.5996 21.1996 35.5996C20.316 35.5996 19.5996 36.316 19.5996 37.1996C19.5996 38.0833 20.316 38.7996 21.1996 38.7996Z" fill="white"/>
<path d="M21.1996 45.2C22.0833 45.2 22.7996 44.4837 22.7996 43.6C22.7996 42.7163 22.0833 42 21.1996 42C20.316 42 19.5996 42.7163 19.5996 43.6C19.5996 44.4837 20.316 45.2 21.1996 45.2Z" fill="white"/>
<path d="M21.1996 48.3992C22.0833 48.3992 22.7996 47.6829 22.7996 46.7992C22.7996 45.9156 22.0833 45.1992 21.1996 45.1992C20.316 45.1992 19.5996 45.9156 19.5996 46.7992C19.5996 47.6829 20.316 48.3992 21.1996 48.3992Z" fill="white"/>
<path d="M21.1996 57.9998C22.0833 57.9998 22.7996 57.2835 22.7996 56.3998C22.7996 55.5161 22.0833 54.7998 21.1996 54.7998C20.316 54.7998 19.5996 55.5161 19.5996 56.3998C19.5996 57.2835 20.316 57.9998 21.1996 57.9998Z" fill="white"/>
<path d="M21.1996 61.2C22.0833 61.2 22.7996 60.4837 22.7996 59.6C22.7996 58.7163 22.0833 58 21.1996 58C20.316 58 19.5996 58.7163 19.5996 59.6C19.5996 60.4837 20.316 61.2 21.1996 61.2Z" fill="white"/>
<path d="M21.1996 67.5994C22.0833 67.5994 22.7996 66.8831 22.7996 65.9994C22.7996 65.1158 22.0833 64.3994 21.1996 64.3994C20.316 64.3994 19.5996 65.1158 19.5996 65.9994C19.5996 66.8831 20.316 67.5994 21.1996 67.5994Z" fill="white"/>
<path d="M21.1996 70.7996C22.0833 70.7996 22.7996 70.0833 22.7996 69.1996C22.7996 68.316 22.0833 67.5996 21.1996 67.5996C20.316 67.5996 19.5996 68.316 19.5996 69.1996C19.5996 70.0833 20.316 70.7996 21.1996 70.7996Z" fill="white"/>
<path d="M24.3998 32.3992C25.2835 32.3992 25.9998 31.6829 25.9998 30.7992C25.9998 29.9156 25.2835 29.1992 24.3998 29.1992C23.5161 29.1992 22.7998 29.9156 22.7998 30.7992C22.7998 31.6829 23.5161 32.3992 24.3998 32.3992Z" fill="white"/>
<path d="M24.3998 38.7996C25.2835 38.7996 25.9998 38.0833 25.9998 37.1996C25.9998 36.316 25.2835 35.5996 24.3998 35.5996C23.5161 35.5996 22.7998 36.316 22.7998 37.1996C22.7998 38.0833 23.5161 38.7996 24.3998 38.7996Z" fill="white"/>
<path d="M24.3998 45.2C25.2835 45.2 25.9998 44.4837 25.9998 43.6C25.9998 42.7163 25.2835 42 24.3998 42C23.5161 42 22.7998 42.7163 22.7998 43.6C22.7998 44.4837 23.5161 45.2 24.3998 45.2Z" fill="white"/>
<path d="M24.3998 51.5994C25.2835 51.5994 25.9998 50.8831 25.9998 49.9994C25.9998 49.1158 25.2835 48.3994 24.3998 48.3994C23.5161 48.3994 22.7998 49.1158 22.7998 49.9994C22.7998 50.8831 23.5161 51.5994 24.3998 51.5994Z" fill="white"/>
<path d="M24.3998 57.9998C25.2835 57.9998 25.9998 57.2835 25.9998 56.3998C25.9998 55.5161 25.2835 54.7998 24.3998 54.7998C23.5161 54.7998 22.7998 55.5161 22.7998 56.3998C22.7998 57.2835 23.5161 57.9998 24.3998 57.9998Z" fill="white"/>
<path d="M24.3998 64.3992C25.2835 64.3992 25.9998 63.6829 25.9998 62.7992C25.9998 61.9156 25.2835 61.1992 24.3998 61.1992C23.5161 61.1992 22.7998 61.9156 22.7998 62.7992C22.7998 63.6829 23.5161 64.3992 24.3998 64.3992Z" fill="white"/>
<path d="M24.3998 70.7996C25.2835 70.7996 25.9998 70.0833 25.9998 69.1996C25.9998 68.316 25.2835 67.5996 24.3998 67.5996C23.5161 67.5996 22.7998 68.316 22.7998 69.1996C22.7998 70.0833 23.5161 70.7996 24.3998 70.7996Z" fill="white"/>
<path d="M27.6 35.5994C28.4837 35.5994 29.2 34.8831 29.2 33.9994C29.2 33.1158 28.4837 32.3994 27.6 32.3994C26.7163 32.3994 26 33.1158 26 33.9994C26 34.8831 26.7163 35.5994 27.6 35.5994Z" fill="white"/>
<path d="M27.6 41.9998C28.4837 41.9998 29.2 41.2835 29.2 40.3998C29.2 39.5161 28.4837 38.7998 27.6 38.7998C26.7163 38.7998 26 39.5161 26 40.3998C26 41.2835 26.7163 41.9998 27.6 41.9998Z" fill="white"/>
<path d="M27.6 48.3992C28.4837 48.3992 29.2 47.6829 29.2 46.7992C29.2 45.9156 28.4837 45.1992 27.6 45.1992C26.7163 45.1992 26 45.9156 26 46.7992C26 47.6829 26.7163 48.3992 27.6 48.3992Z" fill="white"/>
<path d="M27.6 51.5994C28.4837 51.5994 29.2 50.8831 29.2 49.9994C29.2 49.1158 28.4837 48.3994 27.6 48.3994C26.7163 48.3994 26 49.1158 26 49.9994C26 50.8831 26.7163 51.5994 27.6 51.5994Z" fill="white"/>
<path d="M27.6 54.7996C28.4837 54.7996 29.2 54.0833 29.2 53.1996C29.2 52.316 28.4837 51.5996 27.6 51.5996C26.7163 51.5996 26 52.316 26 53.1996C26 54.0833 26.7163 54.7996 27.6 54.7996Z" fill="white"/>
<path d="M30.7992 9.9998C31.6829 9.9998 32.3992 9.28346 32.3992 8.3998C32.3992 7.51615 31.6829 6.7998 30.7992 6.7998C29.9156 6.7998 29.1992 7.51615 29.1992 8.3998C29.1992 9.28346 29.9156 9.9998 30.7992 9.9998Z" fill="white"/>
<path d="M30.7992 19.5994C31.6829 19.5994 32.3992 18.8831 32.3992 17.9994C32.3992 17.1158 31.6829 16.3994 30.7992 16.3994C29.9156 16.3994 29.1992 17.1158 29.1992 17.9994C29.1992 18.8831 29.9156 19.5994 30.7992 19.5994Z" fill="white"/>
<path d="M30.7992 25.9998C31.6829 25.9998 32.3992 25.2835 32.3992 24.3998C32.3992 23.5161 31.6829 22.7998 30.7992 22.7998C29.9156 22.7998 29.1992 23.5161 29.1992 24.3998C29.1992 25.2835 29.9156 25.9998 30.7992 25.9998Z" fill="white"/>
<path d="M30.7992 32.3992C31.6829 32.3992 32.3992 31.6829 32.3992 30.7992C32.3992 29.9156 31.6829 29.1992 30.7992 29.1992C29.9156 29.1992 29.1992 29.9156 29.1992 30.7992C29.1992 31.6829 29.9156 32.3992 30.7992 32.3992Z" fill="white"/>
<path d="M30.7992 41.9998C31.6829 41.9998 32.3992 41.2835 32.3992 40.3998C32.3992 39.5161 31.6829 38.7998 30.7992 38.7998C29.9156 38.7998 29.1992 39.5161 29.1992 40.3998C29.1992 41.2835 29.9156 41.9998 30.7992 41.9998Z" fill="white"/>
<path d="M30.7992 70.7996C31.6829 70.7996 32.3992 70.0833 32.3992 69.1996C32.3992 68.316 31.6829 67.5996 30.7992 67.5996C29.9156 67.5996 29.1992 68.316 29.1992 69.1996C29.1992 70.0833 29.9156 70.7996 30.7992 70.7996Z" fill="white"/>
<path d="M30.7992 73.9998C31.6829 73.9998 32.3992 73.2835 32.3992 72.3998C32.3992 71.5161 31.6829 70.7998 30.7992 70.7998C29.9156 70.7998 29.1992 71.5161 29.1992 72.3998C29.1992 73.2835 29.9156 73.9998 30.7992 73.9998Z" fill="white"/>
<path d="M30.7992 80.3992C31.6829 80.3992 32.3992 79.6829 32.3992 78.7992C32.3992 77.9156 31.6829 77.1992 30.7992 77.1992C29.9156 77.1992 29.1992 77.9156 29.1992 78.7992C29.1992 79.6829 29.9156 80.3992 30.7992 80.3992Z" fill="white"/>
<path d="M30.7992 83.5994C31.6829 83.5994 32.3992 82.8831 32.3992 81.9994C32.3992 81.1158 31.6829 80.3994 30.7992 80.3994C29.9156 80.3994 29.1992 81.1158 29.1992 81.9994C29.1992 82.8831 29.9156 83.5994 30.7992 83.5994Z" fill="white"/>
<path d="M30.7992 89.9998C31.6829 89.9998 32.3992 89.2835 32.3992 88.3998C32.3992 87.5161 31.6829 86.7998 30.7992 86.7998C29.9156 86.7998 29.1992 87.5161 29.1992 88.3998C29.1992 89.2835 29.9156 89.9998 30.7992 89.9998Z" fill="white"/>
<path d="M33.9994 6.79961C34.8831 6.79961 35.5994 6.08326 35.5994 5.19961C35.5994 4.31595 34.8831 3.59961 33.9994 3.59961C33.1158 3.59961 32.3994 4.31595 32.3994 5.19961C32.3994 6.08326 33.1158 6.79961 33.9994 6.79961Z" fill="white"/>
<path d="M33.9994 9.9998C34.8831 9.9998 35.5994 9.28346 35.5994 8.3998C35.5994 7.51615 34.8831 6.7998 33.9994 6.7998C33.1158 6.7998 32.3994 7.51615 32.3994 8.3998C32.3994 9.28346 33.1158 9.9998 33.9994 9.9998Z" fill="white"/>
<path d="M33.9994 16.3992C34.8831 16.3992 35.5994 15.6829 35.5994 14.7992C35.5994 13.9156 34.8831 13.1992 33.9994 13.1992C33.1158 13.1992 32.3994 13.9156 32.3994 14.7992C32.3994 15.6829 33.1158 16.3992 33.9994 16.3992Z" fill="white"/>
<path d="M33.9994 29.2C34.8831 29.2 35.5994 28.4837 35.5994 27.6C35.5994 26.7163 34.8831 26 33.9994 26C33.1158 26 32.3994 26.7163 32.3994 27.6C32.3994 28.4837 33.1158 29.2 33.9994 29.2Z" fill="white"/>
<path d="M33.9994 32.3992C34.8831 32.3992 35.5994 31.6829 35.5994 30.7992C35.5994 29.9156 34.8831 29.1992 33.9994 29.1992C33.1158 29.1992 32.3994 29.9156 32.3994 30.7992C32.3994 31.6829 33.1158 32.3992 33.9994 32.3992Z" fill="white"/>
<path d="M33.9994 41.9998C34.8831 41.9998 35.5994 41.2835 35.5994 40.3998C35.5994 39.5161 34.8831 38.7998 33.9994 38.7998C33.1158 38.7998 32.3994 39.5161 32.3994 40.3998C32.3994 41.2835 33.1158 41.9998 33.9994 41.9998Z" fill="white"/>
<path d="M33.9994 51.5994C34.8831 51.5994 35.5994 50.8831 35.5994 49.9994C35.5994 49.1158 34.8831 48.3994 33.9994 48.3994C33.1158 48.3994 32.3994 49.1158 32.3994 49.9994C32.3994 50.8831 33.1158 51.5994 33.9994 51.5994Z" fill="white"/>
<path d="M33.9994 54.7996C34.8831 54.7996 35.5994 54.0833 35.5994 53.1996C35.5994 52.316 34.8831 51.5996 33.9994 51.5996C33.1158 51.5996 32.3994 52.316 32.3994 53.1996C32.3994 54.0833 33.1158 54.7996 33.9994 54.7996Z" fill="white"/>
<path d="M33.9994 57.9998C34.8831 57.9998 35.5994 57.2835 35.5994 56.3998C35.5994 55.5161 34.8831 54.7998 33.9994 54.7998C33.1158 54.7998 32.3994 55.5161 32.3994 56.3998C32.3994 57.2835 33.1158 57.9998 33.9994 57.9998Z" fill="white"/>
<path d="M33.9994 61.2C34.8831 61.2 35.5994 60.4837 35.5994 59.6C35.5994 58.7163 34.8831 58 33.9994 58C33.1158 58 32.3994 58.7163 32.3994 59.6C32.3994 60.4837 33.1158 61.2 33.9994 61.2Z" fill="white"/>
<path d="M33.9994 64.3992C34.8831 64.3992 35.5994 63.6829 35.5994 62.7992C35.5994 61.9156 34.8831 61.1992 33.9994 61.1992C33.1158 61.1992 32.3994 61.9156 32.3994 62.7992C32.3994 63.6829 33.1158 64.3992 33.9994 64.3992Z" fill="white"/>
<path d="M33.9994 67.5994C34.8831 67.5994 35.5994 66.8831 35.5994 65.9994C35.5994 65.1158 34.8831 64.3994 33.9994 64.3994C33.1158 64.3994 32.3994 65.1158 32.3994 65.9994C32.3994 66.8831 33.1158 67.5994 33.9994 67.5994Z" fill="white"/>
<path d="M33.9994 80.3992C34.8831 80.3992 35.5994 79.6829 35.5994 78.7992C35.5994 77.9156 34.8831 77.1992 33.9994 77.1992C33.1158 77.1992 32.3994 77.9156 32.3994 78.7992C32.3994 79.6829 33.1158 80.3992 33.9994 80.3992Z" fill="white"/>
<path d="M33.9994 93.2C34.8831 93.2 35.5994 92.4837 35.5994 91.6C35.5994 90.7163 34.8831 90 33.9994 90C33.1158 90 32.3994 90.7163 32.3994 91.6C32.3994 92.4837 33.1158 93.2 33.9994 93.2Z" fill="white"/>
<path d="M33.9994 96.3992C34.8831 96.3992 35.5994 95.6829 35.5994 94.7992C35.5994 93.9156 34.8831 93.1992 33.9994 93.1992C33.1158 93.1992 32.3994 93.9156 32.3994 94.7992C32.3994 95.6829 33.1158 96.3992 33.9994 96.3992Z" fill="white"/>
<path d="M37.1996 9.9998C38.0833 9.9998 38.7996 9.28346 38.7996 8.3998C38.7996 7.51615 38.0833 6.7998 37.1996 6.7998C36.316 6.7998 35.5996 7.51615 35.5996 8.3998C35.5996 9.28346 36.316 9.9998 37.1996 9.9998Z" fill="white"/>
<path d="M37.1996 13.2C38.0833 13.2 38.7996 12.4837 38.7996 11.6C38.7996 10.7163 38.0833 10 37.1996 10C36.316 10 35.5996 10.7163 35.5996 11.6C35.5996 12.4837 36.316 13.2 37.1996 13.2Z" fill="white"/>
<path d="M37.1996 25.9998C38.0833 25.9998 38.7996 25.2835 38.7996 24.3998C38.7996 23.5161 38.0833 22.7998 37.1996 22.7998C36.316 22.7998 35.5996 23.5161 35.5996 24.3998C35.5996 25.2835 36.316 25.9998 37.1996 25.9998Z" fill="white"/>
<path d="M37.1996 32.3992C38.0833 32.3992 38.7996 31.6829 38.7996 30.7992C38.7996 29.9156 38.0833 29.1992 37.1996 29.1992C36.316 29.1992 35.5996 29.9156 35.5996 30.7992C35.5996 31.6829 36.316 32.3992 37.1996 32.3992Z" fill="white"/>
<path d="M37.1996 35.5994C38.0833 35.5994 38.7996 34.8831 38.7996 33.9994C38.7996 33.1158 38.0833 32.3994 37.1996 32.3994C36.316 32.3994 35.5996 33.1158 35.5996 33.9994C35.5996 34.8831 36.316 35.5994 37.1996 35.5994Z" fill="white"/>
<path d="M37.1996 38.7996C38.0833 38.7996 38.7996 38.0833 38.7996 37.1996C38.7996 36.316 38.0833 35.5996 37.1996 35.5996C36.316 35.5996 35.5996 36.316 35.5996 37.1996C35.5996 38.0833 36.316 38.7996 37.1996 38.7996Z" fill="white"/>
<path d="M37.1996 41.9998C38.0833 41.9998 38.7996 41.2835 38.7996 40.3998C38.7996 39.5161 38.0833 38.7998 37.1996 38.7998C36.316 38.7998 35.5996 39.5161 35.5996 40.3998C35.5996 41.2835 36.316 41.9998 37.1996 41.9998Z" fill="white"/>
<path d="M37.1996 45.2C38.0833 45.2 38.7996 44.4837 38.7996 43.6C38.7996 42.7163 38.0833 42 37.1996 42C36.316 42 35.5996 42.7163 35.5996 43.6C35.5996 44.4837 36.316 45.2 37.1996 45.2Z" fill="white"/>
<path d="M37.1996 48.3992C38.0833 48.3992 38.7996 47.6829 38.7996 46.7992C38.7996 45.9156 38.0833 45.1992 37.1996 45.1992C36.316 45.1992 35.5996 45.9156 35.5996 46.7992C35.5996 47.6829 36.316 48.3992 37.1996 48.3992Z" fill="white"/>
<path d="M37.1996 61.2C38.0833 61.2 38.7996 60.4837 38.7996 59.6C38.7996 58.7163 38.0833 58 37.1996 58C36.316 58 35.5996 58.7163 35.5996 59.6C35.5996 60.4837 36.316 61.2 37.1996 61.2Z" fill="white"/>
<path d="M37.1996 67.5994C38.0833 67.5994 38.7996 66.8831 38.7996 65.9994C38.7996 65.1158 38.0833 64.3994 37.1996 64.3994C36.316 64.3994 35.5996 65.1158 35.5996 65.9994C35.5996 66.8831 36.316 67.5994 37.1996 67.5994Z" fill="white"/>
<path d="M37.1996 73.9998C38.0833 73.9998 38.7996 73.2835 38.7996 72.3998C38.7996 71.5161 38.0833 70.7998 37.1996 70.7998C36.316 70.7998 35.5996 71.5161 35.5996 72.3998C35.5996 73.2835 36.316 73.9998 37.1996 73.9998Z" fill="white"/>
<path d="M37.1996 80.3992C38.0833 80.3992 38.7996 79.6829 38.7996 78.7992C38.7996 77.9156 38.0833 77.1992 37.1996 77.1992C36.316 77.1992 35.5996 77.9156 35.5996 78.7992C35.5996 79.6829 36.316 80.3992 37.1996 80.3992Z" fill="white"/>
<path d="M37.1996 83.5994C38.0833 83.5994 38.7996 82.8831 38.7996 81.9994C38.7996 81.1158 38.0833 80.3994 37.1996 80.3994C36.316 80.3994 35.5996 81.1158 35.5996 81.9994C35.5996 82.8831 36.316 83.5994 37.1996 83.5994Z" fill="white"/>
<path d="M37.1996 89.9998C38.0833 89.9998 38.7996 89.2835 38.7996 88.3998C38.7996 87.5161 38.0833 86.7998 37.1996 86.7998C36.316 86.7998 35.5996 87.5161 35.5996 88.3998C35.5996 89.2835 36.316 89.9998 37.1996 89.9998Z" fill="white"/>
<path d="M37.1996 96.3992C38.0833 96.3992 38.7996 95.6829 38.7996 94.7992C38.7996 93.9156 38.0833 93.1992 37.1996 93.1992C36.316 93.1992 35.5996 93.9156 35.5996 94.7992C35.5996 95.6829 36.316 96.3992 37.1996 96.3992Z" fill="white"/>
<path d="M40.3998 9.9998C41.2835 9.9998 41.9998 9.28346 41.9998 8.3998C41.9998 7.51615 41.2835 6.7998 40.3998 6.7998C39.5161 6.7998 38.7998 7.51615 38.7998 8.3998C38.7998 9.28346 39.5161 9.9998 40.3998 9.9998Z" fill="white"/>
<path d="M40.3998 16.3992C41.2835 16.3992 41.9998 15.6829 41.9998 14.7992C41.9998 13.9156 41.2835 13.1992 40.3998 13.1992C39.5161 13.1992 38.7998 13.9156 38.7998 14.7992C38.7998 15.6829 39.5161 16.3992 40.3998 16.3992Z" fill="white"/>
<path d="M40.3998 35.5994C41.2835 35.5994 41.9998 34.8831 41.9998 33.9994C41.9998 33.1158 41.2835 32.3994 40.3998 32.3994C39.5161 32.3994 38.7998 33.1158 38.7998 33.9994C38.7998 34.8831 39.5161 35.5994 40.3998 35.5994Z" fill="white"/>
<path d="M40.3998 48.3992C41.2835 48.3992 41.9998 47.6829 41.9998 46.7992C41.9998 45.9156 41.2835 45.1992 40.3998 45.1992C39.5161 45.1992 38.7998 45.9156 38.7998 46.7992C38.7998 47.6829 39.5161 48.3992 40.3998 48.3992Z" fill="white"/>
<path d="M40.3998 51.5994C41.2835 51.5994 41.9998 50.8831 41.9998 49.9994C41.9998 49.1158 41.2835 48.3994 40.3998 48.3994C39.5161 48.3994 38.7998 49.1158 38.7998 49.9994C38.7998 50.8831 39.5161 51.5994 40.3998 51.5994Z" fill="white"/>
<path d="M40.3998 54.7996C41.2835 54.7996 41.9998 54.0833 41.9998 53.1996C41.9998 52.316 41.2835 51.5996 40.3998 51.5996C39.5161 51.5996 38.7998 52.316 38.7998 53.1996C38.7998 54.0833 39.5161 54.7996 40.3998 54.7996Z" fill="white"/>
<path d="M40.3998 61.2C41.2835 61.2 41.9998 60.4837 41.9998 59.6C41.9998 58.7163 41.2835 58 40.3998 58C39.5161 58 38.7998 58.7163 38.7998 59.6C38.7998 60.4837 39.5161 61.2 40.3998 61.2Z" fill="white"/>
<path d="M40.3998 67.5994C41.2835 67.5994 41.9998 66.8831 41.9998 65.9994C41.9998 65.1158 41.2835 64.3994 40.3998 64.3994C39.5161 64.3994 38.7998 65.1158 38.7998 65.9994C38.7998 66.8831 39.5161 67.5994 40.3998 67.5994Z" fill="white"/>
<path d="M40.3998 70.7996C41.2835 70.7996 41.9998 70.0833 41.9998 69.1996C41.9998 68.316 41.2835 67.5996 40.3998 67.5996C39.5161 67.5996 38.7998 68.316 38.7998 69.1996C38.7998 70.0833 39.5161 70.7996 40.3998 70.7996Z" fill="white"/>
<path d="M40.3998 73.9998C41.2835 73.9998 41.9998 73.2835 41.9998 72.3998C41.9998 71.5161 41.2835 70.7998 40.3998 70.7998C39.5161 70.7998 38.7998 71.5161 38.7998 72.3998C38.7998 73.2835 39.5161 73.9998 40.3998 73.9998Z" fill="white"/>
<path d="M40.3998 83.5994C41.2835 83.5994 41.9998 82.8831 41.9998 81.9994C41.9998 81.1158 41.2835 80.3994 40.3998 80.3994C39.5161 80.3994 38.7998 81.1158 38.7998 81.9994C38.7998 82.8831 39.5161 83.5994 40.3998 83.5994Z" fill="white"/>
<path d="M40.3998 86.7996C41.2835 86.7996 41.9998 86.0833 41.9998 85.1996C41.9998 84.316 41.2835 83.5996 40.3998 83.5996C39.5161 83.5996 38.7998 84.316 38.7998 85.1996C38.7998 86.0833 39.5161 86.7996 40.3998 86.7996Z" fill="white"/>
<path d="M40.3998 93.2C41.2835 93.2 41.9998 92.4837 41.9998 91.6C41.9998 90.7163 41.2835 90 40.3998 90C39.5161 90 38.7998 90.7163 38.7998 91.6C38.7998 92.4837 39.5161 93.2 40.3998 93.2Z" fill="white"/>
<path d="M40.3998 96.3992C41.2835 96.3992 41.9998 95.6829 41.9998 94.7992C41.9998 93.9156 41.2835 93.1992 40.3998 93.1992C39.5161 93.1992 38.7998 93.9156 38.7998 94.7992C38.7998 95.6829 39.5161 96.3992 40.3998 96.3992Z" fill="white"/>
<path d="M43.6 13.2C44.4837 13.2 45.2 12.4837 45.2 11.6C45.2 10.7163 44.4837 10 43.6 10C42.7163 10 42 10.7163 42 11.6C42 12.4837 42.7163 13.2 43.6 13.2Z" fill="white"/>
<path d="M43.6 16.3992C44.4837 16.3992 45.2 15.6829 45.2 14.7992C45.2 13.9156 44.4837 13.1992 43.6 13.1992C42.7163 13.1992 42 13.9156 42 14.7992C42 15.6829 42.7163 16.3992 43.6 16.3992Z" fill="white"/>
<path d="M43.6 19.5994C44.4837 19.5994 45.2 18.8831 45.2 17.9994C45.2 17.1158 44.4837 16.3994 43.6 16.3994C42.7163 16.3994 42 17.1158 42 17.9994C42 18.8831 42.7163 19.5994 43.6 19.5994Z" fill="white"/>
<path d="M43.6 22.7996C44.4837 22.7996 45.2 22.0833 45.2 21.1996C45.2 20.316 44.4837 19.5996 43.6 19.5996C42.7163 19.5996 42 20.316 42 21.1996C42 22.0833 42.7163 22.7996 43.6 22.7996Z" fill="white"/>
<path d="M43.6 25.9998C44.4837 25.9998 45.2 25.2835 45.2 24.3998C45.2 23.5161 44.4837 22.7998 43.6 22.7998C42.7163 22.7998 42 23.5161 42 24.3998C42 25.2835 42.7163 25.9998 43.6 25.9998Z" fill="white"/>
<path d="M43.6 29.2C44.4837 29.2 45.2 28.4837 45.2 27.6C45.2 26.7163 44.4837 26 43.6 26C42.7163 26 42 26.7163 42 27.6C42 28.4837 42.7163 29.2 43.6 29.2Z" fill="white"/>
<path d="M43.6 32.3992C44.4837 32.3992 45.2 31.6829 45.2 30.7992C45.2 29.9156 44.4837 29.1992 43.6 29.1992C42.7163 29.1992 42 29.9156 42 30.7992C42 31.6829 42.7163 32.3992 43.6 32.3992Z" fill="white"/>
<path d="M43.6 35.5994C44.4837 35.5994 45.2 34.8831 45.2 33.9994C45.2 33.1158 44.4837 32.3994 43.6 32.3994C42.7163 32.3994 42 33.1158 42 33.9994C42 34.8831 42.7163 35.5994 43.6 35.5994Z" fill="white"/>
<path d="M43.6 45.2C44.4837 45.2 45.2 44.4837 45.2 43.6C45.2 42.7163 44.4837 42 43.6 42C42.7163 42 42 42.7163 42 43.6C42 44.4837 42.7163 45.2 43.6 45.2Z" fill="white"/>
<path d="M43.6 51.5994C44.4837 51.5994 45.2 50.8831 45.2 49.9994C45.2 49.1158 44.4837 48.3994 43.6 48.3994C42.7163 48.3994 42 49.1158 42 49.9994C42 50.8831 42.7163 51.5994 43.6 51.5994Z" fill="white"/>
<path d="M43.6 57.9998C44.4837 57.9998 45.2 57.2835 45.2 56.3998C45.2 55.5161 44.4837 54.7998 43.6 54.7998C42.7163 54.7998 42 55.5161 42 56.3998C42 57.2835 42.7163 57.9998 43.6 57.9998Z" fill="white"/>
<path d="M43.6 61.2C44.4837 61.2 45.2 60.4837 45.2 59.6C45.2 58.7163 44.4837 58 43.6 58C42.7163 58 42 58.7163 42 59.6C42 60.4837 42.7163 61.2 43.6 61.2Z" fill="white"/>
<path d="M43.6 70.7996C44.4837 70.7996 45.2 70.0833 45.2 69.1996C45.2 68.316 44.4837 67.5996 43.6 67.5996C42.7163 67.5996 42 68.316 42 69.1996C42 70.0833 42.7163 70.7996 43.6 70.7996Z" fill="white"/>
<path d="M43.6 80.3992C44.4837 80.3992 45.2 79.6829 45.2 78.7992C45.2 77.9156 44.4837 77.1992 43.6 77.1992C42.7163 77.1992 42 77.9156 42 78.7992C42 79.6829 42.7163 80.3992 43.6 80.3992Z" fill="white"/>
<path d="M43.6 86.7996C44.4837 86.7996 45.2 86.0833 45.2 85.1996C45.2 84.316 44.4837 83.5996 43.6 83.5996C42.7163 83.5996 42 84.316 42 85.1996C42 86.0833 42.7163 86.7996 43.6 86.7996Z" fill="white"/>
<path d="M43.6 96.3992C44.4837 96.3992 45.2 95.6829 45.2 94.7992C45.2 93.9156 44.4837 93.1992 43.6 93.1992C42.7163 93.1992 42 93.9156 42 94.7992C42 95.6829 42.7163 96.3992 43.6 96.3992Z" fill="white"/>
<path d="M46.7992 16.3992C47.6829 16.3992 48.3992 15.6829 48.3992 14.7992C48.3992 13.9156 47.6829 13.1992 46.7992 13.1992C45.9156 13.1992 45.1992 13.9156 45.1992 14.7992C45.1992 15.6829 45.9156 16.3992 46.7992 16.3992Z" fill="white"/>
<path d="M46.7992 19.5994C47.6829 19.5994 48.3992 18.8831 48.3992 17.9994C48.3992 17.1158 47.6829 16.3994 46.7992 16.3994C45.9156 16.3994 45.1992 17.1158 45.1992 17.9994C45.1992 18.8831 45.9156 19.5994 46.7992 19.5994Z" fill="white"/>
<path d="M46.7992 22.7996C47.6829 22.7996 48.3992 22.0833 48.3992 21.1996C48.3992 20.316 47.6829 19.5996 46.7992 19.5996C45.9156 19.5996 45.1992 20.316 45.1992 21.1996C45.1992 22.0833 45.9156 22.7996 46.7992 22.7996Z" fill="white"/>
<path d="M46.7992 29.2C47.6829 29.2 48.3992 28.4837 48.3992 27.6C48.3992 26.7163 47.6829 26 46.7992 26C45.9156 26 45.1992 26.7163 45.1992 27.6C45.1992 28.4837 45.9156 29.2 46.7992 29.2Z" fill="white"/>
<path d="M46.7992 32.3992C47.6829 32.3992 48.3992 31.6829 48.3992 30.7992C48.3992 29.9156 47.6829 29.1992 46.7992 29.1992C45.9156 29.1992 45.1992 29.9156 45.1992 30.7992C45.1992 31.6829 45.9156 32.3992 46.7992 32.3992Z" fill="white"/>
<path d="M46.7992 35.5994C47.6829 35.5994 48.3992 34.8831 48.3992 33.9994C48.3992 33.1158 47.6829 32.3994 46.7992 32.3994C45.9156 32.3994 45.1992 33.1158 45.1992 33.9994C45.1992 34.8831 45.9156 35.5994 46.7992 35.5994Z" fill="white"/>
<path d="M46.7992 38.7996C47.6829 38.7996 48.3992 38.0833 48.3992 37.1996C48.3992 36.316 47.6829 35.5996 46.7992 35.5996C45.9156 35.5996 45.1992 36.316 45.1992 37.1996C45.1992 38.0833 45.9156 38.7996 46.7992 38.7996Z" fill="white"/>
<path d="M46.7992 41.9998C47.6829 41.9998 48.3992 41.2835 48.3992 40.3998C48.3992 39.5161 47.6829 38.7998 46.7992 38.7998C45.9156 38.7998 45.1992 39.5161 45.1992 40.3998C45.1992 41.2835 45.9156 41.9998 46.7992 41.9998Z" fill="white"/>
<path d="M46.7992 48.3992C47.6829 48.3992 48.3992 47.6829 48.3992 46.7992C48.3992 45.9156 47.6829 45.1992 46.7992 45.1992C45.9156 45.1992 45.1992 45.9156 45.1992 46.7992C45.1992 47.6829 45.9156 48.3992 46.7992 48.3992Z" fill="white"/>
<path d="M46.7992 51.5994C47.6829 51.5994 48.3992 50.8831 48.3992 49.9994C48.3992 49.1158 47.6829 48.3994 46.7992 48.3994C45.9156 48.3994 45.1992 49.1158 45.1992 49.9994C45.1992 50.8831 45.9156 51.5994 46.7992 51.5994Z" fill="white"/>
<path d="M46.7992 57.9998C47.6829 57.9998 48.3992 57.2835 48.3992 56.3998C48.3992 55.5161 47.6829 54.7998 46.7992 54.7998C45.9156 54.7998 45.1992 55.5161 45.1992 56.3998C45.1992 57.2835 45.9156 57.9998 46.7992 57.9998Z" fill="white"/>
<path d="M46.7992 64.3992C47.6829 64.3992 48.3992 63.6829 48.3992 62.7992C48.3992 61.9156 47.6829 61.1992 46.7992 61.1992C45.9156 61.1992 45.1992 61.9156 45.1992 62.7992C45.1992 63.6829 45.9156 64.3992 46.7992 64.3992Z" fill="white"/>
<path d="M46.7992 77.2C47.6829 77.2 48.3992 76.4837 48.3992 75.6C48.3992 74.7163 47.6829 74 46.7992 74C45.9156 74 45.1992 74.7163 45.1992 75.6C45.1992 76.4837 45.9156 77.2 46.7992 77.2Z" fill="white"/>
<path d="M46.7992 83.5994C47.6829 83.5994 48.3992 82.8831 48.3992 81.9994C48.3992 81.1158 47.6829 80.3994 46.7992 80.3994C45.9156 80.3994 45.1992 81.1158 45.1992 81.9994C45.1992 82.8831 45.9156 83.5994 46.7992 83.5994Z" fill="white"/>
<path d="M46.7992 89.9998C47.6829 89.9998 48.3992 89.2835 48.3992 88.3998C48.3992 87.5161 47.6829 86.7998 46.7992 86.7998C45.9156 86.7998 45.1992 87.5161 45.1992 88.3998C45.1992 89.2835 45.9156 89.9998 46.7992 89.9998Z" fill="white"/>
<path d="M46.7992 96.3992C47.6829 96.3992 48.3992 95.6829 48.3992 94.7992C48.3992 93.9156 47.6829 93.1992 46.7992 93.1992C45.9156 93.1992 45.1992 93.9156 45.1992 94.7992C45.1992 95.6829 45.9156 96.3992 46.7992 96.3992Z" fill="white"/>
<path d="M49.9994 6.79961C50.8831 6.79961 51.5994 6.08326 51.5994 5.19961C51.5994 4.31595 50.8831 3.59961 49.9994 3.59961C49.1158 3.59961 48.3994 4.31595 48.3994 5.19961C48.3994 6.08326 49.1158 6.79961 49.9994 6.79961Z" fill="white"/>
<path d="M49.9994 16.3992C50.8831 16.3992 51.5994 15.6829 51.5994 14.7992C51.5994 13.9156 50.8831 13.1992 49.9994 13.1992C49.1158 13.1992 48.3994 13.9156 48.3994 14.7992C48.3994 15.6829 49.1158 16.3992 49.9994 16.3992Z" fill="white"/>
<path d="M49.9994 22.7996C50.8831 22.7996 51.5994 22.0833 51.5994 21.1996C51.5994 20.316 50.8831 19.5996 49.9994 19.5996C49.1158 19.5996 48.3994 20.316 48.3994 21.1996C48.3994 22.0833 49.1158 22.7996 49.9994 22.7996Z" fill="white"/>
<path d="M49.9994 25.9998C50.8831 25.9998 51.5994 25.2835 51.5994 24.3998C51.5994 23.5161 50.8831 22.7998 49.9994 22.7998C49.1158 22.7998 48.3994 23.5161 48.3994 24.3998C48.3994 25.2835 49.1158 25.9998 49.9994 25.9998Z" fill="white"/>
<path d="M49.9994 32.3992C50.8831 32.3992 51.5994 31.6829 51.5994 30.7992C51.5994 29.9156 50.8831 29.1992 49.9994 29.1992C49.1158 29.1992 48.3994 29.9156 48.3994 30.7992C48.3994 31.6829 49.1158 32.3992 49.9994 32.3992Z" fill="white"/>
<path d="M49.9994 45.2C50.8831 45.2 51.5994 44.4837 51.5994 43.6C51.5994 42.7163 50.8831 42 49.9994 42C49.1158 42 48.3994 42.7163 48.3994 43.6C48.3994 44.4837 49.1158 45.2 49.9994 45.2Z" fill="white"/>
<path d="M49.9994 51.5994C50.8831 51.5994 51.5994 50.8831 51.5994 49.9994C51.5994 49.1158 50.8831 48.3994 49.9994 48.3994C49.1158 48.3994 48.3994 49.1158 48.3994 49.9994C48.3994 50.8831 49.1158 51.5994 49.9994 51.5994Z" fill="white"/>
<path d="M49.9994 57.9998C50.8831 57.9998 51.5994 57.2835 51.5994 56.3998C51.5994 55.5161 50.8831 54.7998 49.9994 54.7998C49.1158 54.7998 48.3994 55.5161 48.3994 56.3998C48.3994 57.2835 49.1158 57.9998 49.9994 57.9998Z" fill="white"/>
<path d="M49.9994 61.2C50.8831 61.2 51.5994 60.4837 51.5994 59.6C51.5994 58.7163 50.8831 58 49.9994 58C49.1158 58 48.3994 58.7163 48.3994 59.6C48.3994 60.4837 49.1158 61.2 49.9994 61.2Z" fill="white"/>
<path d="M49.9994 70.7996C50.8831 70.7996 51.5994 70.0833 51.5994 69.1996C51.5994 68.316 50.8831 67.5996 49.9994 67.5996C49.1158 67.5996 48.3994 68.316 48.3994 69.1996C48.3994 70.0833 49.1158 70.7996 49.9994 70.7996Z" fill="white"/>
<path d="M49.9994 73.9998C50.8831 73.9998 51.5994 73.2835 51.5994 72.3998C51.5994 71.5161 50.8831 70.7998 49.9994 70.7998C49.1158 70.7998 48.3994 71.5161 48.3994 72.3998C48.3994 73.2835 49.1158 73.9998 49.9994 73.9998Z" fill="white"/>
<path d="M49.9994 77.2C50.8831 77.2 51.5994 76.4837 51.5994 75.6C51.5994 74.7163 50.8831 74 49.9994 74C49.1158 74 48.3994 74.7163 48.3994 75.6C48.3994 76.4837 49.1158 77.2 49.9994 77.2Z" fill="white"/>
<path d="M49.9994 83.5994C50.8831 83.5994 51.5994 82.8831 51.5994 81.9994C51.5994 81.1158 50.8831 80.3994 49.9994 80.3994C49.1158 80.3994 48.3994 81.1158 48.3994 81.9994C48.3994 82.8831 49.1158 83.5994 49.9994 83.5994Z" fill="white"/>
<path d="M49.9994 93.2C50.8831 93.2 51.5994 92.4837 51.5994 91.6C51.5994 90.7163 50.8831 90 49.9994 90C49.1158 90 48.3994 90.7163 48.3994 91.6C48.3994 92.4837 49.1158 93.2 49.9994 93.2Z" fill="white"/>
<path d="M49.9994 96.3992C50.8831 96.3992 51.5994 95.6829 51.5994 94.7992C51.5994 93.9156 50.8831 93.1992 49.9994 93.1992C49.1158 93.1992 48.3994 93.9156 48.3994 94.7992C48.3994 95.6829 49.1158 96.3992 49.9994 96.3992Z" fill="white"/>
<path d="M53.1996 6.79961C54.0833 6.79961 54.7996 6.08326 54.7996 5.19961C54.7996 4.31595 54.0833 3.59961 53.1996 3.59961C52.316 3.59961 51.5996 4.31595 51.5996 5.19961C51.5996 6.08326 52.316 6.79961 53.1996 6.79961Z" fill="white"/>
<path d="M53.1996 9.9998C54.0833 9.9998 54.7996 9.28346 54.7996 8.3998C54.7996 7.51615 54.0833 6.7998 53.1996 6.7998C52.316 6.7998 51.5996 7.51615 51.5996 8.3998C51.5996 9.28346 52.316 9.9998 53.1996 9.9998Z" fill="white"/>
<path d="M53.1996 13.2C54.0833 13.2 54.7996 12.4837 54.7996 11.6C54.7996 10.7163 54.0833 10 53.1996 10C52.316 10 51.5996 10.7163 51.5996 11.6C51.5996 12.4837 52.316 13.2 53.1996 13.2Z" fill="white"/>
<path d="M53.1996 16.3992C54.0833 16.3992 54.7996 15.6829 54.7996 14.7992C54.7996 13.9156 54.0833 13.1992 53.1996 13.1992C52.316 13.1992 51.5996 13.9156 51.5996 14.7992C51.5996 15.6829 52.316 16.3992 53.1996 16.3992Z" fill="white"/>
<path d="M53.1996 29.2C54.0833 29.2 54.7996 28.4837 54.7996 27.6C54.7996 26.7163 54.0833 26 53.1996 26C52.316 26 51.5996 26.7163 51.5996 27.6C51.5996 28.4837 52.316 29.2 53.1996 29.2Z" fill="white"/>
<path d="M53.1996 38.7996C54.0833 38.7996 54.7996 38.0833 54.7996 37.1996C54.7996 36.316 54.0833 35.5996 53.1996 35.5996C52.316 35.5996 51.5996 36.316 51.5996 37.1996C51.5996 38.0833 52.316 38.7996 53.1996 38.7996Z" fill="white"/>
<path d="M53.1996 41.9998C54.0833 41.9998 54.7996 41.2835 54.7996 40.3998C54.7996 39.5161 54.0833 38.7998 53.1996 38.7998C52.316 38.7998 51.5996 39.5161 51.5996 40.3998C51.5996 41.2835 52.316 41.9998 53.1996 41.9998Z" fill="white"/>
<path d="M53.1996 45.2C54.0833 45.2 54.7996 44.4837 54.7996 43.6C54.7996 42.7163 54.0833 42 53.1996 42C52.316 42 51.5996 42.7163 51.5996 43.6C51.5996 44.4837 52.316 45.2 53.1996 45.2Z" fill="white"/>
<path d="M53.1996 54.7996C54.0833 54.7996 54.7996 54.0833 54.7996 53.1996C54.7996 52.316 54.0833 51.5996 53.1996 51.5996C52.316 51.5996 51.5996 52.316 51.5996 53.1996C51.5996 54.0833 52.316 54.7996 53.1996 54.7996Z" fill="white"/>
<path d="M53.1996 61.2C54.0833 61.2 54.7996 60.4837 54.7996 59.6C54.7996 58.7163 54.0833 58 53.1996 58C52.316 58 51.5996 58.7163 51.5996 59.6C51.5996 60.4837 52.316 61.2 53.1996 61.2Z" fill="white"/>
<path d="M53.1996 64.3992C54.0833 64.3992 54.7996 63.6829 54.7996 62.7992C54.7996 61.9156 54.0833 61.1992 53.1996 61.1992C52.316 61.1992 51.5996 61.9156 51.5996 62.7992C51.5996 63.6829 52.316 64.3992 53.1996 64.3992Z" fill="white"/>
<path d="M53.1996 77.2C54.0833 77.2 54.7996 76.4837 54.7996 75.6C54.7996 74.7163 54.0833 74 53.1996 74C52.316 74 51.5996 74.7163 51.5996 75.6C51.5996 76.4837 52.316 77.2 53.1996 77.2Z" fill="white"/>
<path d="M53.1996 80.3992C54.0833 80.3992 54.7996 79.6829 54.7996 78.7992C54.7996 77.9156 54.0833 77.1992 53.1996 77.1992C52.316 77.1992 51.5996 77.9156 51.5996 78.7992C51.5996 79.6829 52.316 80.3992 53.1996 80.3992Z" fill="white"/>
<path d="M53.1996 86.7996C54.0833 86.7996 54.7996 86.0833 54.7996 85.1996C54.7996 84.316 54.0833 83.5996 53.1996 83.5996C52.316 83.5996 51.5996 84.316 51.5996 85.1996C51.5996 86.0833 52.316 86.7996 53.1996 86.7996Z" fill="white"/>
<path d="M53.1996 93.2C54.0833 93.2 54.7996 92.4837 54.7996 91.6C54.7996 90.7163 54.0833 90 53.1996 90C52.316 90 51.5996 90.7163 51.5996 91.6C51.5996 92.4837 52.316 93.2 53.1996 93.2Z" fill="white"/>
<path d="M56.3998 6.79961C57.2835 6.79961 57.9998 6.08326 57.9998 5.19961C57.9998 4.31595 57.2835 3.59961 56.3998 3.59961C55.5161 3.59961 54.7998 4.31595 54.7998 5.19961C54.7998 6.08326 55.5161 6.79961 56.3998 6.79961Z" fill="white"/>
<path d="M56.3998 9.9998C57.2835 9.9998 57.9998 9.28346 57.9998 8.3998C57.9998 7.51615 57.2835 6.7998 56.3998 6.7998C55.5161 6.7998 54.7998 7.51615 54.7998 8.3998C54.7998 9.28346 55.5161 9.9998 56.3998 9.9998Z" fill="white"/>
<path d="M56.3998 16.3992C57.2835 16.3992 57.9998 15.6829 57.9998 14.7992C57.9998 13.9156 57.2835 13.1992 56.3998 13.1992C55.5161 13.1992 54.7998 13.9156 54.7998 14.7992C54.7998 15.6829 55.5161 16.3992 56.3998 16.3992Z" fill="white"/>
<path d="M56.3998 22.7996C57.2835 22.7996 57.9998 22.0833 57.9998 21.1996C57.9998 20.316 57.2835 19.5996 56.3998 19.5996C55.5161 19.5996 54.7998 20.316 54.7998 21.1996C54.7998 22.0833 55.5161 22.7996 56.3998 22.7996Z" fill="white"/>
<path d="M56.3998 25.9998C57.2835 25.9998 57.9998 25.2835 57.9998 24.3998C57.9998 23.5161 57.2835 22.7998 56.3998 22.7998C55.5161 22.7998 54.7998 23.5161 54.7998 24.3998C54.7998 25.2835 55.5161 25.9998 56.3998 25.9998Z" fill="white"/>
<path d="M56.3998 29.2C57.2835 29.2 57.9998 28.4837 57.9998 27.6C57.9998 26.7163 57.2835 26 56.3998 26C55.5161 26 54.7998 26.7163 54.7998 27.6C54.7998 28.4837 55.5161 29.2 56.3998 29.2Z" fill="white"/>
<path d="M56.3998 38.7996C57.2835 38.7996 57.9998 38.0833 57.9998 37.1996C57.9998 36.316 57.2835 35.5996 56.3998 35.5996C55.5161 35.5996 54.7998 36.316 54.7998 37.1996C54.7998 38.0833 55.5161 38.7996 56.3998 38.7996Z" fill="white"/>
<path d="M56.3998 41.9998C57.2835 41.9998 57.9998 41.2835 57.9998 40.3998C57.9998 39.5161 57.2835 38.7998 56.3998 38.7998C55.5161 38.7998 54.7998 39.5161 54.7998 40.3998C54.7998 41.2835 55.5161 41.9998 56.3998 41.9998Z" fill="white"/>
<path d="M56.3998 45.2C57.2835 45.2 57.9998 44.4837 57.9998 43.6C57.9998 42.7163 57.2835 42 56.3998 42C55.5161 42 54.7998 42.7163 54.7998 43.6C54.7998 44.4837 55.5161 45.2 56.3998 45.2Z" fill="white"/>
<path d="M56.3998 51.5994C57.2835 51.5994 57.9998 50.8831 57.9998 49.9994C57.9998 49.1158 57.2835 48.3994 56.3998 48.3994C55.5161 48.3994 54.7998 49.1158 54.7998 49.9994C54.7998 50.8831 55.5161 51.5994 56.3998 51.5994Z" fill="white"/>
<path d="M56.3998 54.7996C57.2835 54.7996 57.9998 54.0833 57.9998 53.1996C57.9998 52.316 57.2835 51.5996 56.3998 51.5996C55.5161 51.5996 54.7998 52.316 54.7998 53.1996C54.7998 54.0833 55.5161 54.7996 56.3998 54.7996Z" fill="white"/>
<path d="M56.3998 64.3992C57.2835 64.3992 57.9998 63.6829 57.9998 62.7992C57.9998 61.9156 57.2835 61.1992 56.3998 61.1992C55.5161 61.1992 54.7998 61.9156 54.7998 62.7992C54.7998 63.6829 55.5161 64.3992 56.3998 64.3992Z" fill="white"/>
<path d="M56.3998 67.5994C57.2835 67.5994 57.9998 66.8831 57.9998 65.9994C57.9998 65.1158 57.2835 64.3994 56.3998 64.3994C55.5161 64.3994 54.7998 65.1158 54.7998 65.9994C54.7998 66.8831 55.5161 67.5994 56.3998 67.5994Z" fill="white"/>
<path d="M56.3998 83.5994C57.2835 83.5994 57.9998 82.8831 57.9998 81.9994C57.9998 81.1158 57.2835 80.3994 56.3998 80.3994C55.5161 80.3994 54.7998 81.1158 54.7998 81.9994C54.7998 82.8831 55.5161 83.5994 56.3998 83.5994Z" fill="white"/>
<path d="M56.3998 93.2C57.2835 93.2 57.9998 92.4837 57.9998 91.6C57.9998 90.7163 57.2835 90 56.3998 90C55.5161 90 54.7998 90.7163 54.7998 91.6C54.7998 92.4837 55.5161 93.2 56.3998 93.2Z" fill="white"/>
<path d="M56.3998 96.3992C57.2835 96.3992 57.9998 95.6829 57.9998 94.7992C57.9998 93.9156 57.2835 93.1992 56.3998 93.1992C55.5161 93.1992 54.7998 93.9156 54.7998 94.7992C54.7998 95.6829 55.5161 96.3992 56.3998 96.3992Z" fill="white"/>
<path d="M59.6 6.79961C60.4837 6.79961 61.2 6.08326 61.2 5.19961C61.2 4.31595 60.4837 3.59961 59.6 3.59961C58.7163 3.59961 58 4.31595 58 5.19961C58 6.08326 58.7163 6.79961 59.6 6.79961Z" fill="white"/>
<path d="M59.6 16.3992C60.4837 16.3992 61.2 15.6829 61.2 14.7992C61.2 13.9156 60.4837 13.1992 59.6 13.1992C58.7163 13.1992 58 13.9156 58 14.7992C58 15.6829 58.7163 16.3992 59.6 16.3992Z" fill="white"/>
<path d="M59.6 35.5994C60.4837 35.5994 61.2 34.8831 61.2 33.9994C61.2 33.1158 60.4837 32.3994 59.6 32.3994C58.7163 32.3994 58 33.1158 58 33.9994C58 34.8831 58.7163 35.5994 59.6 35.5994Z" fill="white"/>
<path d="M59.6 41.9998C60.4837 41.9998 61.2 41.2835 61.2 40.3998C61.2 39.5161 60.4837 38.7998 59.6 38.7998C58.7163 38.7998 58 39.5161 58 40.3998C58 41.2835 58.7163 41.9998 59.6 41.9998Z" fill="white"/>
<path d="M59.6 48.3992C60.4837 48.3992 61.2 47.6829 61.2 46.7992C61.2 45.9156 60.4837 45.1992 59.6 45.1992C58.7163 45.1992 58 45.9156 58 46.7992C58 47.6829 58.7163 48.3992 59.6 48.3992Z" fill="white"/>
<path d="M59.6 51.5994C60.4837 51.5994 61.2 50.8831 61.2 49.9994C61.2 49.1158 60.4837 48.3994 59.6 48.3994C58.7163 48.3994 58 49.1158 58 49.9994C58 50.8831 58.7163 51.5994 59.6 51.5994Z" fill="white"/>
<path d="M59.6 57.9998C60.4837 57.9998 61.2 57.2835 61.2 56.3998C61.2 55.5161 60.4837 54.7998 59.6 54.7998C58.7163 54.7998 58 55.5161 58 56.3998C58 57.2835 58.7163 57.9998 59.6 57.9998Z" fill="white"/>
<path d="M59.6 67.5994C60.4837 67.5994 61.2 66.8831 61.2 65.9994C61.2 65.1158 60.4837 64.3994 59.6 64.3994C58.7163 64.3994 58 65.1158 58 65.9994C58 66.8831 58.7163 67.5994 59.6 67.5994Z" fill="white"/>
<path d="M59.6 70.7996C60.4837 70.7996 61.2 70.0833 61.2 69.1996C61.2 68.316 60.4837 67.5996 59.6 67.5996C58.7163 67.5996 58 68.316 58 69.1996C58 70.0833 58.7163 70.7996 59.6 70.7996Z" fill="white"/>
<path d="M59.6 73.9998C60.4837 73.9998 61.2 73.2835 61.2 72.3998C61.2 71.5161 60.4837 70.7998 59.6 70.7998C58.7163 70.7998 58 71.5161 58 72.3998C58 73.2835 58.7163 73.9998 59.6 73.9998Z" fill="white"/>
<path d="M59.6 83.5994C60.4837 83.5994 61.2 82.8831 61.2 81.9994C61.2 81.1158 60.4837 80.3994 59.6 80.3994C58.7163 80.3994 58 81.1158 58 81.9994C58 82.8831 58.7163 83.5994 59.6 83.5994Z" fill="white"/>
<path d="M59.6 86.7996C60.4837 86.7996 61.2 86.0833 61.2 85.1996C61.2 84.316 60.4837 83.5996 59.6 83.5996C58.7163 83.5996 58 84.316 58 85.1996C58 86.0833 58.7163 86.7996 59.6 86.7996Z" fill="white"/>
<path d="M59.6 89.9998C60.4837 89.9998 61.2 89.2835 61.2 88.3998C61.2 87.5161 60.4837 86.7998 59.6 86.7998C58.7163 86.7998 58 87.5161 58 88.3998C58 89.2835 58.7163 89.9998 59.6 89.9998Z" fill="white"/>
<path d="M59.6 96.3992C60.4837 96.3992 61.2 95.6829 61.2 94.7992C61.2 93.9156 60.4837 93.1992 59.6 93.1992C58.7163 93.1992 58 93.9156 58 94.7992C58 95.6829 58.7163 96.3992 59.6 96.3992Z" fill="white"/>
<path d="M62.7992 16.3992C63.6829 16.3992 64.3992 15.6829 64.3992 14.7992C64.3992 13.9156 63.6829 13.1992 62.7992 13.1992C61.9156 13.1992 61.1992 13.9156 61.1992 14.7992C61.1992 15.6829 61.9156 16.3992 62.7992 16.3992Z" fill="white"/>
<path d="M62.7992 19.5994C63.6829 19.5994 64.3992 18.8831 64.3992 17.9994C64.3992 17.1158 63.6829 16.3994 62.7992 16.3994C61.9156 16.3994 61.1992 17.1158 61.1992 17.9994C61.1992 18.8831 61.9156 19.5994 62.7992 19.5994Z" fill="white"/>
<path d="M62.7992 22.7996C63.6829 22.7996 64.3992 22.0833 64.3992 21.1996C64.3992 20.316 63.6829 19.5996 62.7992 19.5996C61.9156 19.5996 61.1992 20.316 61.1992 21.1996C61.1992 22.0833 61.9156 22.7996 62.7992 22.7996Z" fill="white"/>
<path d="M62.7992 25.9998C63.6829 25.9998 64.3992 25.2835 64.3992 24.3998C64.3992 23.5161 63.6829 22.7998 62.7992 22.7998C61.9156 22.7998 61.1992 23.5161 61.1992 24.3998C61.1992 25.2835 61.9156 25.9998 62.7992 25.9998Z" fill="white"/>
<path d="M62.7992 38.7996C63.6829 38.7996 64.3992 38.0833 64.3992 37.1996C64.3992 36.316 63.6829 35.5996 62.7992 35.5996C61.9156 35.5996 61.1992 36.316 61.1992 37.1996C61.1992 38.0833 61.9156 38.7996 62.7992 38.7996Z" fill="white"/>
<path d="M62.7992 57.9998C63.6829 57.9998 64.3992 57.2835 64.3992 56.3998C64.3992 55.5161 63.6829 54.7998 62.7992 54.7998C61.9156 54.7998 61.1992 55.5161 61.1992 56.3998C61.1992 57.2835 61.9156 57.9998 62.7992 57.9998Z" fill="white"/>
<path d="M62.7992 61.2C63.6829 61.2 64.3992 60.4837 64.3992 59.6C64.3992 58.7163 63.6829 58 62.7992 58C61.9156 58 61.1992 58.7163 61.1992 59.6C61.1992 60.4837 61.9156 61.2 62.7992 61.2Z" fill="white"/>
<path d="M62.7992 64.3992C63.6829 64.3992 64.3992 63.6829 64.3992 62.7992C64.3992 61.9156 63.6829 61.1992 62.7992 61.1992C61.9156 61.1992 61.1992 61.9156 61.1992 62.7992C61.1992 63.6829 61.9156 64.3992 62.7992 64.3992Z" fill="white"/>
<path d="M62.7992 70.7996C63.6829 70.7996 64.3992 70.0833 64.3992 69.1996C64.3992 68.316 63.6829 67.5996 62.7992 67.5996C61.9156 67.5996 61.1992 68.316 61.1992 69.1996C61.1992 70.0833 61.9156 70.7996 62.7992 70.7996Z" fill="white"/>
<path d="M62.7992 86.7996C63.6829 86.7996 64.3992 86.0833 64.3992 85.1996C64.3992 84.316 63.6829 83.5996 62.7992 83.5996C61.9156 83.5996 61.1992 84.316 61.1992 85.1996C61.1992 86.0833 61.9156 86.7996 62.7992 86.7996Z" fill="white"/>
<path d="M62.7992 89.9998C63.6829 89.9998 64.3992 89.2835 64.3992 88.3998C64.3992 87.5161 63.6829 86.7998 62.7992 86.7998C61.9156 86.7998 61.1992 87.5161 61.1992 88.3998C61.1992 89.2835 61.9156 89.9998 62.7992 89.9998Z" fill="white"/>
<path d="M62.7992 96.3992C63.6829 96.3992 64.3992 95.6829 64.3992 94.7992C64.3992 93.9156 63.6829 93.1992 62.7992 93.1992C61.9156 93.1992 61.1992 93.9156 61.1992 94.7992C61.1992 95.6829 61.9156 96.3992 62.7992 96.3992Z" fill="white"/>
<path d="M65.9994 13.2C66.8831 13.2 67.5994 12.4837 67.5994 11.6C67.5994 10.7163 66.8831 10 65.9994 10C65.1158 10 64.3994 10.7163 64.3994 11.6C64.3994 12.4837 65.1158 13.2 65.9994 13.2Z" fill="white"/>
<path d="M65.9994 19.5994C66.8831 19.5994 67.5994 18.8831 67.5994 17.9994C67.5994 17.1158 66.8831 16.3994 65.9994 16.3994C65.1158 16.3994 64.3994 17.1158 64.3994 17.9994C64.3994 18.8831 65.1158 19.5994 65.9994 19.5994Z" fill="white"/>
<path d="M65.9994 22.7996C66.8831 22.7996 67.5994 22.0833 67.5994 21.1996C67.5994 20.316 66.8831 19.5996 65.9994 19.5996C65.1158 19.5996 64.3994 20.316 64.3994 21.1996C64.3994 22.0833 65.1158 22.7996 65.9994 22.7996Z" fill="white"/>
<path d="M65.9994 29.2C66.8831 29.2 67.5994 28.4837 67.5994 27.6C67.5994 26.7163 66.8831 26 65.9994 26C65.1158 26 64.3994 26.7163 64.3994 27.6C64.3994 28.4837 65.1158 29.2 65.9994 29.2Z" fill="white"/>
<path d="M65.9994 32.3992C66.8831 32.3992 67.5994 31.6829 67.5994 30.7992C67.5994 29.9156 66.8831 29.1992 65.9994 29.1992C65.1158 29.1992 64.3994 29.9156 64.3994 30.7992C64.3994 31.6829 65.1158 32.3992 65.9994 32.3992Z" fill="white"/>
<path d="M65.9994 35.5994C66.8831 35.5994 67.5994 34.8831 67.5994 33.9994C67.5994 33.1158 66.8831 32.3994 65.9994 32.3994C65.1158 32.3994 64.3994 33.1158 64.3994 33.9994C64.3994 34.8831 65.1158 35.5994 65.9994 35.5994Z" fill="white"/>
<path d="M65.9994 38.7996C66.8831 38.7996 67.5994 38.0833 67.5994 37.1996C67.5994 36.316 66.8831 35.5996 65.9994 35.5996C65.1158 35.5996 64.3994 36.316 64.3994 37.1996C64.3994 38.0833 65.1158 38.7996 65.9994 38.7996Z" fill="white"/>
<path d="M65.9994 41.9998C66.8831 41.9998 67.5994 41.2835 67.5994 40.3998C67.5994 39.5161 66.8831 38.7998 65.9994 38.7998C65.1158 38.7998 64.3994 39.5161 64.3994 40.3998C64.3994 41.2835 65.1158 41.9998 65.9994 41.9998Z" fill="white"/>
<path d="M65.9994 45.2C66.8831 45.2 67.5994 44.4837 67.5994 43.6C67.5994 42.7163 66.8831 42 65.9994 42C65.1158 42 64.3994 42.7163 64.3994 43.6C64.3994 44.4837 65.1158 45.2 65.9994 45.2Z" fill="white"/>
<path d="M65.9994 51.5994C66.8831 51.5994 67.5994 50.8831 67.5994 49.9994C67.5994 49.1158 66.8831 48.3994 65.9994 48.3994C65.1158 48.3994 64.3994 49.1158 64.3994 49.9994C64.3994 50.8831 65.1158 51.5994 65.9994 51.5994Z" fill="white"/>
<path d="M65.9994 61.2C66.8831 61.2 67.5994 60.4837 67.5994 59.6C67.5994 58.7163 66.8831 58 65.9994 58C65.1158 58 64.3994 58.7163 64.3994 59.6C64.3994 60.4837 65.1158 61.2 65.9994 61.2Z" fill="white"/>
<path d="M65.9994 64.3992C66.8831 64.3992 67.5994 63.6829 67.5994 62.7992C67.5994 61.9156 66.8831 61.1992 65.9994 61.1992C65.1158 61.1992 64.3994 61.9156 64.3994 62.7992C64.3994 63.6829 65.1158 64.3992 65.9994 64.3992Z" fill="white"/>
<path d="M65.9994 83.5994C66.8831 83.5994 67.5994 82.8831 67.5994 81.9994C67.5994 81.1158 66.8831 80.3994 65.9994 80.3994C65.1158 80.3994 64.3994 81.1158 64.3994 81.9994C64.3994 82.8831 65.1158 83.5994 65.9994 83.5994Z" fill="white"/>
<path d="M65.9994 86.7996C66.8831 86.7996 67.5994 86.0833 67.5994 85.1996C67.5994 84.316 66.8831 83.5996 65.9994 83.5996C65.1158 83.5996 64.3994 84.316 64.3994 85.1996C64.3994 86.0833 65.1158 86.7996 65.9994 86.7996Z" fill="white"/>
<path d="M65.9994 96.3992C66.8831 96.3992 67.5994 95.6829 67.5994 94.7992C67.5994 93.9156 66.8831 93.1992 65.9994 93.1992C65.1158 93.1992 64.3994 93.9156 64.3994 94.7992C64.3994 95.6829 65.1158 96.3992 65.9994 96.3992Z" fill="white"/>
<path d="M69.1996 6.79961C70.0833 6.79961 70.7996 6.08326 70.7996 5.19961C70.7996 4.31595 70.0833 3.59961 69.1996 3.59961C68.316 3.59961 67.5996 4.31595 67.5996 5.19961C67.5996 6.08326 68.316 6.79961 69.1996 6.79961Z" fill="white"/>
<path d="M69.1996 9.9998C70.0833 9.9998 70.7996 9.28346 70.7996 8.3998C70.7996 7.51615 70.0833 6.7998 69.1996 6.7998C68.316 6.7998 67.5996 7.51615 67.5996 8.3998C67.5996 9.28346 68.316 9.9998 69.1996 9.9998Z" fill="white"/>
<path d="M69.1996 13.2C70.0833 13.2 70.7996 12.4837 70.7996 11.6C70.7996 10.7163 70.0833 10 69.1996 10C68.316 10 67.5996 10.7163 67.5996 11.6C67.5996 12.4837 68.316 13.2 69.1996 13.2Z" fill="white"/>
<path d="M69.1996 19.5994C70.0833 19.5994 70.7996 18.8831 70.7996 17.9994C70.7996 17.1158 70.0833 16.3994 69.1996 16.3994C68.316 16.3994 67.5996 17.1158 67.5996 17.9994C67.5996 18.8831 68.316 19.5994 69.1996 19.5994Z" fill="white"/>
<path d="M69.1996 25.9998C70.0833 25.9998 70.7996 25.2835 70.7996 24.3998C70.7996 23.5161 70.0833 22.7998 69.1996 22.7998C68.316 22.7998 67.5996 23.5161 67.5996 24.3998C67.5996 25.2835 68.316 25.9998 69.1996 25.9998Z" fill="white"/>
<path d="M69.1996 32.3992C70.0833 32.3992 70.7996 31.6829 70.7996 30.7992C70.7996 29.9156 70.0833 29.1992 69.1996 29.1992C68.316 29.1992 67.5996 29.9156 67.5996 30.7992C67.5996 31.6829 68.316 32.3992 69.1996 32.3992Z" fill="white"/>
<path d="M69.1996 41.9998C70.0833 41.9998 70.7996 41.2835 70.7996 40.3998C70.7996 39.5161 70.0833 38.7998 69.1996 38.7998C68.316 38.7998 67.5996 39.5161 67.5996 40.3998C67.5996 41.2835 68.316 41.9998 69.1996 41.9998Z" fill="white"/>
<path d="M69.1996 48.3992C70.0833 48.3992 70.7996 47.6829 70.7996 46.7992C70.7996 45.9156 70.0833 45.1992 69.1996 45.1992C68.316 45.1992 67.5996 45.9156 67.5996 46.7992C67.5996 47.6829 68.316 48.3992 69.1996 48.3992Z" fill="white"/>
<path d="M69.1996 54.7996C70.0833 54.7996 70.7996 54.0833 70.7996 53.1996C70.7996 52.316 70.0833 51.5996 69.1996 51.5996C68.316 51.5996 67.5996 52.316 67.5996 53.1996C67.5996 54.0833 68.316 54.7996 69.1996 54.7996Z" fill="white"/>
<path d="M69.1996 61.2C70.0833 61.2 70.7996 60.4837 70.7996 59.6C70.7996 58.7163 70.0833 58 69.1996 58C68.316 58 67.5996 58.7163 67.5996 59.6C67.5996 60.4837 68.316 61.2 69.1996 61.2Z" fill="white"/>
<path d="M69.1996 67.5994C70.0833 67.5994 70.7996 66.8831 70.7996 65.9994C70.7996 65.1158 70.0833 64.3994 69.1996 64.3994C68.316 64.3994 67.5996 65.1158 67.5996 65.9994C67.5996 66.8831 68.316 67.5994 69.1996 67.5994Z" fill="white"/>
<path d="M69.1996 70.7996C70.0833 70.7996 70.7996 70.0833 70.7996 69.1996C70.7996 68.316 70.0833 67.5996 69.1996 67.5996C68.316 67.5996 67.5996 68.316 67.5996 69.1996C67.5996 70.0833 68.316 70.7996 69.1996 70.7996Z" fill="white"/>
<path d="M69.1996 73.9998C70.0833 73.9998 70.7996 73.2835 70.7996 72.3998C70.7996 71.5161 70.0833 70.7998 69.1996 70.7998C68.316 70.7998 67.5996 71.5161 67.5996 72.3998C67.5996 73.2835 68.316 73.9998 69.1996 73.9998Z" fill="white"/>
<path d="M69.1996 77.2C70.0833 77.2 70.7996 76.4837 70.7996 75.6C70.7996 74.7163 70.0833 74 69.1996 74C68.316 74 67.5996 74.7163 67.5996 75.6C67.5996 76.4837 68.316 77.2 69.1996 77.2Z" fill="white"/>
<path d="M69.1996 80.3992C70.0833 80.3992 70.7996 79.6829 70.7996 78.7992C70.7996 77.9156 70.0833 77.1992 69.1996 77.1992C68.316 77.1992 67.5996 77.9156 67.5996 78.7992C67.5996 79.6829 68.316 80.3992 69.1996 80.3992Z" fill="white"/>
<path d="M69.1996 83.5994C70.0833 83.5994 70.7996 82.8831 70.7996 81.9994C70.7996 81.1158 70.0833 80.3994 69.1996 80.3994C68.316 80.3994 67.5996 81.1158 67.5996 81.9994C67.5996 82.8831 68.316 83.5994 69.1996 83.5994Z" fill="white"/>
<path d="M69.1996 86.7996C70.0833 86.7996 70.7996 86.0833 70.7996 85.1996C70.7996 84.316 70.0833 83.5996 69.1996 83.5996C68.316 83.5996 67.5996 84.316 67.5996 85.1996C67.5996 86.0833 68.316 86.7996 69.1996 86.7996Z" fill="white"/>
<path d="M69.1996 93.2C70.0833 93.2 70.7996 92.4837 70.7996 91.6C70.7996 90.7163 70.0833 90 69.1996 90C68.316 90 67.5996 90.7163 67.5996 91.6C67.5996 92.4837 68.316 93.2 69.1996 93.2Z" fill="white"/>
<path d="M72.3998 32.3992C73.2835 32.3992 73.9998 31.6829 73.9998 30.7992C73.9998 29.9156 73.2835 29.1992 72.3998 29.1992C71.5161 29.1992 70.7998 29.9156 70.7998 30.7992C70.7998 31.6829 71.5161 32.3992 72.3998 32.3992Z" fill="white"/>
<path d="M72.3998 54.7996C73.2835 54.7996 73.9998 54.0833 73.9998 53.1996C73.9998 52.316 73.2835 51.5996 72.3998 51.5996C71.5161 51.5996 70.7998 52.316 70.7998 53.1996C70.7998 54.0833 71.5161 54.7996 72.3998 54.7996Z" fill="white"/>
<path d="M72.3998 57.9998C73.2835 57.9998 73.9998 57.2835 73.9998 56.3998C73.9998 55.5161 73.2835 54.7998 72.3998 54.7998C71.5161 54.7998 70.7998 55.5161 70.7998 56.3998C70.7998 57.2835 71.5161 57.9998 72.3998 57.9998Z" fill="white"/>
<path d="M72.3998 61.2C73.2835 61.2 73.9998 60.4837 73.9998 59.6C73.9998 58.7163 73.2835 58 72.3998 58C71.5161 58 70.7998 58.7163 70.7998 59.6C70.7998 60.4837 71.5161 61.2 72.3998 61.2Z" fill="white"/>
<path d="M72.3998 64.3992C73.2835 64.3992 73.9998 63.6829 73.9998 62.7992C73.9998 61.9156 73.2835 61.1992 72.3998 61.1992C71.5161 61.1992 70.7998 61.9156 70.7998 62.7992C70.7998 63.6829 71.5161 64.3992 72.3998 64.3992Z" fill="white"/>
<path d="M72.3998 67.5994C73.2835 67.5994 73.9998 66.8831 73.9998 65.9994C73.9998 65.1158 73.2835 64.3994 72.3998 64.3994C71.5161 64.3994 70.7998 65.1158 70.7998 65.9994C70.7998 66.8831 71.5161 67.5994 72.3998 67.5994Z" fill="white"/>
<path d="M72.3998 70.7996C73.2835 70.7996 73.9998 70.0833 73.9998 69.1996C73.9998 68.316 73.2835 67.5996 72.3998 67.5996C71.5161 67.5996 70.7998 68.316 70.7998 69.1996C70.7998 70.0833 71.5161 70.7996 72.3998 70.7996Z" fill="white"/>
<path d="M72.3998 83.5994C73.2835 83.5994 73.9998 82.8831 73.9998 81.9994C73.9998 81.1158 73.2835 80.3994 72.3998 80.3994C71.5161 80.3994 70.7998 81.1158 70.7998 81.9994C70.7998 82.8831 71.5161 83.5994 72.3998 83.5994Z" fill="white"/>
<path d="M72.3998 89.9998C73.2835 89.9998 73.9998 89.2835 73.9998 88.3998C73.9998 87.5161 73.2835 86.7998 72.3998 86.7998C71.5161 86.7998 70.7998 87.5161 70.7998 88.3998C70.7998 89.2835 71.5161 89.9998 72.3998 89.9998Z" fill="white"/>
<path d="M72.3998 96.3992C73.2835 96.3992 73.9998 95.6829 73.9998 94.7992C73.9998 93.9156 73.2835 93.1992 72.3998 93.1992C71.5161 93.1992 70.7998 93.9156 70.7998 94.7992C70.7998 95.6829 71.5161 96.3992 72.3998 96.3992Z" fill="white"/>
<path d="M75.6 48.3992C76.4837 48.3992 77.2 47.6829 77.2 46.7992C77.2 45.9156 76.4837 45.1992 75.6 45.1992C74.7163 45.1992 74 45.9156 74 46.7992C74 47.6829 74.7163 48.3992 75.6 48.3992Z" fill="white"/>
<path d="M75.6 54.7996C76.4837 54.7996 77.2 54.0833 77.2 53.1996C77.2 52.316 76.4837 51.5996 75.6 51.5996C74.7163 51.5996 74 52.316 74 53.1996C74 54.0833 74.7163 54.7996 75.6 54.7996Z" fill="white"/>
<path d="M75.6 64.3992C76.4837 64.3992 77.2 63.6829 77.2 62.7992C77.2 61.9156 76.4837 61.1992 75.6 61.1992C74.7163 61.1992 74 61.9156 74 62.7992C74 63.6829 74.7163 64.3992 75.6 64.3992Z" fill="white"/>
<path d="M75.6 67.5994C76.4837 67.5994 77.2 66.8831 77.2 65.9994C77.2 65.1158 76.4837 64.3994 75.6 64.3994C74.7163 64.3994 74 65.1158 74 65.9994C74 66.8831 74.7163 67.5994 75.6 67.5994Z" fill="white"/>
<path d="M75.6 70.7996C76.4837 70.7996 77.2 70.0833 77.2 69.1996C77.2 68.316 76.4837 67.5996 75.6 67.5996C74.7163 67.5996 74 68.316 74 69.1996C74 70.0833 74.7163 70.7996 75.6 70.7996Z" fill="white"/>
<path d="M75.6 77.2C76.4837 77.2 77.2 76.4837 77.2 75.6C77.2 74.7163 76.4837 74 75.6 74C74.7163 74 74 74.7163 74 75.6C74 76.4837 74.7163 77.2 75.6 77.2Z" fill="white"/>
<path d="M75.6 83.5994C76.4837 83.5994 77.2 82.8831 77.2 81.9994C77.2 81.1158 76.4837 80.3994 75.6 80.3994C74.7163 80.3994 74 81.1158 74 81.9994C74 82.8831 74.7163 83.5994 75.6 83.5994Z" fill="white"/>
<path d="M75.6 96.3992C76.4837 96.3992 77.2 95.6829 77.2 94.7992C77.2 93.9156 76.4837 93.1992 75.6 93.1992C74.7163 93.1992 74 93.9156 74 94.7992C74 95.6829 74.7163 96.3992 75.6 96.3992Z" fill="white"/>
<path d="M78.7992 38.7996C79.6829 38.7996 80.3992 38.0833 80.3992 37.1996C80.3992 36.316 79.6829 35.5996 78.7992 35.5996C77.9156 35.5996 77.1992 36.316 77.1992 37.1996C77.1992 38.0833 77.9156 38.7996 78.7992 38.7996Z" fill="white"/>
<path d="M78.7992 41.9998C79.6829 41.9998 80.3992 41.2835 80.3992 40.3998C80.3992 39.5161 79.6829 38.7998 78.7992 38.7998C77.9156 38.7998 77.1992 39.5161 77.1992 40.3998C77.1992 41.2835 77.9156 41.9998 78.7992 41.9998Z" fill="white"/>
<path d="M78.7992 45.2C79.6829 45.2 80.3992 44.4837 80.3992 43.6C80.3992 42.7163 79.6829 42 78.7992 42C77.9156 42 77.1992 42.7163 77.1992 43.6C77.1992 44.4837 77.9156 45.2 78.7992 45.2Z" fill="white"/>
<path d="M78.7992 48.3992C79.6829 48.3992 80.3992 47.6829 80.3992 46.7992C80.3992 45.9156 79.6829 45.1992 78.7992 45.1992C77.9156 45.1992 77.1992 45.9156 77.1992 46.7992C77.1992 47.6829 77.9156 48.3992 78.7992 48.3992Z" fill="white"/>
<path d="M78.7992 67.5994C79.6829 67.5994 80.3992 66.8831 80.3992 65.9994C80.3992 65.1158 79.6829 64.3994 78.7992 64.3994C77.9156 64.3994 77.1992 65.1158 77.1992 65.9994C77.1992 66.8831 77.9156 67.5994 78.7992 67.5994Z" fill="white"/>
<path d="M78.7992 70.7996C79.6829 70.7996 80.3992 70.0833 80.3992 69.1996C80.3992 68.316 79.6829 67.5996 78.7992 67.5996C77.9156 67.5996 77.1992 68.316 77.1992 69.1996C77.1992 70.0833 77.9156 70.7996 78.7992 70.7996Z" fill="white"/>
<path d="M78.7992 83.5994C79.6829 83.5994 80.3992 82.8831 80.3992 81.9994C80.3992 81.1158 79.6829 80.3994 78.7992 80.3994C77.9156 80.3994 77.1992 81.1158 77.1992 81.9994C77.1992 82.8831 77.9156 83.5994 78.7992 83.5994Z" fill="white"/>
<path d="M78.7992 86.7996C79.6829 86.7996 80.3992 86.0833 80.3992 85.1996C80.3992 84.316 79.6829 83.5996 78.7992 83.5996C77.9156 83.5996 77.1992 84.316 77.1992 85.1996C77.1992 86.0833 77.9156 86.7996 78.7992 86.7996Z" fill="white"/>
<path d="M81.9994 32.3992C82.8831 32.3992 83.5994 31.6829 83.5994 30.7992C83.5994 29.9156 82.8831 29.1992 81.9994 29.1992C81.1158 29.1992 80.3994 29.9156 80.3994 30.7992C80.3994 31.6829 81.1158 32.3992 81.9994 32.3992Z" fill="white"/>
<path d="M81.9994 35.5994C82.8831 35.5994 83.5994 34.8831 83.5994 33.9994C83.5994 33.1158 82.8831 32.3994 81.9994 32.3994C81.1158 32.3994 80.3994 33.1158 80.3994 33.9994C80.3994 34.8831 81.1158 35.5994 81.9994 35.5994Z" fill="white"/>
<path d="M81.9994 48.3992C82.8831 48.3992 83.5994 47.6829 83.5994 46.7992C83.5994 45.9156 82.8831 45.1992 81.9994 45.1992C81.1158 45.1992 80.3994 45.9156 80.3994 46.7992C80.3994 47.6829 81.1158 48.3992 81.9994 48.3992Z" fill="white"/>
<path d="M81.9994 57.9998C82.8831 57.9998 83.5994 57.2835 83.5994 56.3998C83.5994 55.5161 82.8831 54.7998 81.9994 54.7998C81.1158 54.7998 80.3994 55.5161 80.3994 56.3998C80.3994 57.2835 81.1158 57.9998 81.9994 57.9998Z" fill="white"/>
<path d="M81.9994 67.5994C82.8831 67.5994 83.5994 66.8831 83.5994 65.9994C83.5994 65.1158 82.8831 64.3994 81.9994 64.3994C81.1158 64.3994 80.3994 65.1158 80.3994 65.9994C80.3994 66.8831 81.1158 67.5994 81.9994 67.5994Z" fill="white"/>
<path d="M81.9994 70.7996C82.8831 70.7996 83.5994 70.0833 83.5994 69.1996C83.5994 68.316 82.8831 67.5996 81.9994 67.5996C81.1158 67.5996 80.3994 68.316 80.3994 69.1996C80.3994 70.0833 81.1158 70.7996 81.9994 70.7996Z" fill="white"/>
<path d="M81.9994 73.9998C82.8831 73.9998 83.5994 73.2835 83.5994 72.3998C83.5994 71.5161 82.8831 70.7998 81.9994 70.7998C81.1158 70.7998 80.3994 71.5161 80.3994 72.3998C80.3994 73.2835 81.1158 73.9998 81.9994 73.9998Z" fill="white"/>
<path d="M81.9994 77.2C82.8831 77.2 83.5994 76.4837 83.5994 75.6C83.5994 74.7163 82.8831 74 81.9994 74C81.1158 74 80.3994 74.7163 80.3994 75.6C80.3994 76.4837 81.1158 77.2 81.9994 77.2Z" fill="white"/>
<path d="M81.9994 80.3992C82.8831 80.3992 83.5994 79.6829 83.5994 78.7992C83.5994 77.9156 82.8831 77.1992 81.9994 77.1992C81.1158 77.1992 80.3994 77.9156 80.3994 78.7992C80.3994 79.6829 81.1158 80.3992 81.9994 80.3992Z" fill="white"/>
<path d="M81.9994 83.5994C82.8831 83.5994 83.5994 82.8831 83.5994 81.9994C83.5994 81.1158 82.8831 80.3994 81.9994 80.3994C81.1158 80.3994 80.3994 81.1158 80.3994 81.9994C80.3994 82.8831 81.1158 83.5994 81.9994 83.5994Z" fill="white"/>
<path d="M81.9994 93.2C82.8831 93.2 83.5994 92.4837 83.5994 91.6C83.5994 90.7163 82.8831 90 81.9994 90C81.1158 90 80.3994 90.7163 80.3994 91.6C80.3994 92.4837 81.1158 93.2 81.9994 93.2Z" fill="white"/>
<path d="M81.9994 96.3992C82.8831 96.3992 83.5994 95.6829 83.5994 94.7992C83.5994 93.9156 82.8831 93.1992 81.9994 93.1992C81.1158 93.1992 80.3994 93.9156 80.3994 94.7992C80.3994 95.6829 81.1158 96.3992 81.9994 96.3992Z" fill="white"/>
<path d="M85.1996 35.5994C86.0833 35.5994 86.7996 34.8831 86.7996 33.9994C86.7996 33.1158 86.0833 32.3994 85.1996 32.3994C84.316 32.3994 83.5996 33.1158 83.5996 33.9994C83.5996 34.8831 84.316 35.5994 85.1996 35.5994Z" fill="white"/>
<path d="M85.1996 38.7996C86.0833 38.7996 86.7996 38.0833 86.7996 37.1996C86.7996 36.316 86.0833 35.5996 85.1996 35.5996C84.316 35.5996 83.5996 36.316 83.5996 37.1996C83.5996 38.0833 84.316 38.7996 85.1996 38.7996Z" fill="white"/>
<path d="M85.1996 48.3992C86.0833 48.3992 86.7996 47.6829 86.7996 46.7992C86.7996 45.9156 86.0833 45.1992 85.1996 45.1992C84.316 45.1992 83.5996 45.9156 83.5996 46.7992C83.5996 47.6829 84.316 48.3992 85.1996 48.3992Z" fill="white"/>
<path d="M85.1996 51.5994C86.0833 51.5994 86.7996 50.8831 86.7996 49.9994C86.7996 49.1158 86.0833 48.3994 85.1996 48.3994C84.316 48.3994 83.5996 49.1158 83.5996 49.9994C83.5996 50.8831 84.316 51.5994 85.1996 51.5994Z" fill="white"/>
<path d="M85.1996 64.3992C86.0833 64.3992 86.7996 63.6829 86.7996 62.7992C86.7996 61.9156 86.0833 61.1992 85.1996 61.1992C84.316 61.1992 83.5996 61.9156 83.5996 62.7992C83.5996 63.6829 84.316 64.3992 85.1996 64.3992Z" fill="white"/>
<path d="M85.1996 80.3992C86.0833 80.3992 86.7996 79.6829 86.7996 78.7992C86.7996 77.9156 86.0833 77.1992 85.1996 77.1992C84.316 77.1992 83.5996 77.9156 83.5996 78.7992C83.5996 79.6829 84.316 80.3992 85.1996 80.3992Z" fill="white"/>
<path d="M85.1996 93.2C86.0833 93.2 86.7996 92.4837 86.7996 91.6C86.7996 90.7163 86.0833 90 85.1996 90C84.316 90 83.5996 90.7163 83.5996 91.6C83.5996 92.4837 84.316 93.2 85.1996 93.2Z" fill="white"/>
<path d="M88.3998 38.7996C89.2835 38.7996 89.9998 38.0833 89.9998 37.1996C89.9998 36.316 89.2835 35.5996 88.3998 35.5996C87.5161 35.5996 86.7998 36.316 86.7998 37.1996C86.7998 38.0833 87.5161 38.7996 88.3998 38.7996Z" fill="white"/>
<path d="M88.3998 45.2C89.2835 45.2 89.9998 44.4837 89.9998 43.6C89.9998 42.7163 89.2835 42 88.3998 42C87.5161 42 86.7998 42.7163 86.7998 43.6C86.7998 44.4837 87.5161 45.2 88.3998 45.2Z" fill="white"/>
<path d="M88.3998 54.7996C89.2835 54.7996 89.9998 54.0833 89.9998 53.1996C89.9998 52.316 89.2835 51.5996 88.3998 51.5996C87.5161 51.5996 86.7998 52.316 86.7998 53.1996C86.7998 54.0833 87.5161 54.7996 88.3998 54.7996Z" fill="white"/>
<path d="M88.3998 61.2C89.2835 61.2 89.9998 60.4837 89.9998 59.6C89.9998 58.7163 89.2835 58 88.3998 58C87.5161 58 86.7998 58.7163 86.7998 59.6C86.7998 60.4837 87.5161 61.2 88.3998 61.2Z" fill="white"/>
<path d="M88.3998 64.3992C89.2835 64.3992 89.9998 63.6829 89.9998 62.7992C89.9998 61.9156 89.2835 61.1992 88.3998 61.1992C87.5161 61.1992 86.7998 61.9156 86.7998 62.7992C86.7998 63.6829 87.5161 64.3992 88.3998 64.3992Z" fill="white"/>
<path d="M88.3998 67.5994C89.2835 67.5994 89.9998 66.8831 89.9998 65.9994C89.9998 65.1158 89.2835 64.3994 88.3998 64.3994C87.5161 64.3994 86.7998 65.1158 86.7998 65.9994C86.7998 66.8831 87.5161 67.5994 88.3998 67.5994Z" fill="white"/>
<path d="M88.3998 70.7996C89.2835 70.7996 89.9998 70.0833 89.9998 69.1996C89.9998 68.316 89.2835 67.5996 88.3998 67.5996C87.5161 67.5996 86.7998 68.316 86.7998 69.1996C86.7998 70.0833 87.5161 70.7996 88.3998 70.7996Z" fill="white"/>
<path d="M88.3998 73.9998C89.2835 73.9998 89.9998 73.2835 89.9998 72.3998C89.9998 71.5161 89.2835 70.7998 88.3998 70.7998C87.5161 70.7998 86.7998 71.5161 86.7998 72.3998C86.7998 73.2835 87.5161 73.9998 88.3998 73.9998Z" fill="white"/>
<path d="M88.3998 86.7996C89.2835 86.7996 89.9998 86.0833 89.9998 85.1996C89.9998 84.316 89.2835 83.5996 88.3998 83.5996C87.5161 83.5996 86.7998 84.316 86.7998 85.1996C86.7998 86.0833 87.5161 86.7996 88.3998 86.7996Z" fill="white"/>
<path d="M88.3998 89.9998C89.2835 89.9998 89.9998 89.2835 89.9998 88.3998C89.9998 87.5161 89.2835 86.7998 88.3998 86.7998C87.5161 86.7998 86.7998 87.5161 86.7998 88.3998C86.7998 89.2835 87.5161 89.9998 88.3998 89.9998Z" fill="white"/>
<path d="M88.3998 93.2C89.2835 93.2 89.9998 92.4837 89.9998 91.6C89.9998 90.7163 89.2835 90 88.3998 90C87.5161 90 86.7998 90.7163 86.7998 91.6C86.7998 92.4837 87.5161 93.2 88.3998 93.2Z" fill="white"/>
<path d="M88.3998 96.3992C89.2835 96.3992 89.9998 95.6829 89.9998 94.7992C89.9998 93.9156 89.2835 93.1992 88.3998 93.1992C87.5161 93.1992 86.7998 93.9156 86.7998 94.7992C86.7998 95.6829 87.5161 96.3992 88.3998 96.3992Z" fill="white"/>
<path d="M91.6 32.3992C92.4837 32.3992 93.2 31.6829 93.2 30.7992C93.2 29.9156 92.4837 29.1992 91.6 29.1992C90.7163 29.1992 90 29.9156 90 30.7992C90 31.6829 90.7163 32.3992 91.6 32.3992Z" fill="white"/>
<path d="M91.6 35.5994C92.4837 35.5994 93.2 34.8831 93.2 33.9994C93.2 33.1158 92.4837 32.3994 91.6 32.3994C90.7163 32.3994 90 33.1158 90 33.9994C90 34.8831 90.7163 35.5994 91.6 35.5994Z" fill="white"/>
<path d="M91.6 45.2C92.4837 45.2 93.2 44.4837 93.2 43.6C93.2 42.7163 92.4837 42 91.6 42C90.7163 42 90 42.7163 90 43.6C90 44.4837 90.7163 45.2 91.6 45.2Z" fill="white"/>
<path d="M91.6 51.5994C92.4837 51.5994 93.2 50.8831 93.2 49.9994C93.2 49.1158 92.4837 48.3994 91.6 48.3994C90.7163 48.3994 90 49.1158 90 49.9994C90 50.8831 90.7163 51.5994 91.6 51.5994Z" fill="white"/>
<path d="M91.6 54.7996C92.4837 54.7996 93.2 54.0833 93.2 53.1996C93.2 52.316 92.4837 51.5996 91.6 51.5996C90.7163 51.5996 90 52.316 90 53.1996C90 54.0833 90.7163 54.7996 91.6 54.7996Z" fill="white"/>
<path d="M91.6 57.9998C92.4837 57.9998 93.2 57.2835 93.2 56.3998C93.2 55.5161 92.4837 54.7998 91.6 54.7998C90.7163 54.7998 90 55.5161 90 56.3998C90 57.2835 90.7163 57.9998 91.6 57.9998Z" fill="white"/>
<path d="M91.6 61.2C92.4837 61.2 93.2 60.4837 93.2 59.6C93.2 58.7163 92.4837 58 91.6 58C90.7163 58 90 58.7163 90 59.6C90 60.4837 90.7163 61.2 91.6 61.2Z" fill="white"/>
<path d="M91.6 64.3992C92.4837 64.3992 93.2 63.6829 93.2 62.7992C93.2 61.9156 92.4837 61.1992 91.6 61.1992C90.7163 61.1992 90 61.9156 90 62.7992C90 63.6829 90.7163 64.3992 91.6 64.3992Z" fill="white"/>
<path d="M91.6 80.3992C92.4837 80.3992 93.2 79.6829 93.2 78.7992C93.2 77.9156 92.4837 77.1992 91.6 77.1992C90.7163 77.1992 90 77.9156 90 78.7992C90 79.6829 90.7163 80.3992 91.6 80.3992Z" fill="white"/>
<path d="M91.6 86.7996C92.4837 86.7996 93.2 86.0833 93.2 85.1996C93.2 84.316 92.4837 83.5996 91.6 83.5996C90.7163 83.5996 90 84.316 90 85.1996C90 86.0833 90.7163 86.7996 91.6 86.7996Z" fill="white"/>
<path d="M91.6 93.2C92.4837 93.2 93.2 92.4837 93.2 91.6C93.2 90.7163 92.4837 90 91.6 90C90.7163 90 90 90.7163 90 91.6C90 92.4837 90.7163 93.2 91.6 93.2Z" fill="white"/>
<path d="M91.6 96.3992C92.4837 96.3992 93.2 95.6829 93.2 94.7992C93.2 93.9156 92.4837 93.1992 91.6 93.1992C90.7163 93.1992 90 93.9156 90 94.7992C90 95.6829 90.7163 96.3992 91.6 96.3992Z" fill="white"/>
<path d="M94.7992 35.5994C95.6829 35.5994 96.3992 34.8831 96.3992 33.9994C96.3992 33.1158 95.6829 32.3994 94.7992 32.3994C93.9156 32.3994 93.1992 33.1158 93.1992 33.9994C93.1992 34.8831 93.9156 35.5994 94.7992 35.5994Z" fill="white"/>
<path d="M94.7992 38.7996C95.6829 38.7996 96.3992 38.0833 96.3992 37.1996C96.3992 36.316 95.6829 35.5996 94.7992 35.5996C93.9156 35.5996 93.1992 36.316 93.1992 37.1996C93.1992 38.0833 93.9156 38.7996 94.7992 38.7996Z" fill="white"/>
<path d="M94.7992 41.9998C95.6829 41.9998 96.3992 41.2835 96.3992 40.3998C96.3992 39.5161 95.6829 38.7998 94.7992 38.7998C93.9156 38.7998 93.1992 39.5161 93.1992 40.3998C93.1992 41.2835 93.9156 41.9998 94.7992 41.9998Z" fill="white"/>
<path d="M94.7992 51.5994C95.6829 51.5994 96.3992 50.8831 96.3992 49.9994C96.3992 49.1158 95.6829 48.3994 94.7992 48.3994C93.9156 48.3994 93.1992 49.1158 93.1992 49.9994C93.1992 50.8831 93.9156 51.5994 94.7992 51.5994Z" fill="white"/>
<path d="M94.7992 57.9998C95.6829 57.9998 96.3992 57.2835 96.3992 56.3998C96.3992 55.5161 95.6829 54.7998 94.7992 54.7998C93.9156 54.7998 93.1992 55.5161 93.1992 56.3998C93.1992 57.2835 93.9156 57.9998 94.7992 57.9998Z" fill="white"/>
<path d="M94.7992 61.2C95.6829 61.2 96.3992 60.4837 96.3992 59.6C96.3992 58.7163 95.6829 58 94.7992 58C93.9156 58 93.1992 58.7163 93.1992 59.6C93.1992 60.4837 93.9156 61.2 94.7992 61.2Z" fill="white"/>
<path d="M94.7992 77.2C95.6829 77.2 96.3992 76.4837 96.3992 75.6C96.3992 74.7163 95.6829 74 94.7992 74C93.9156 74 93.1992 74.7163 93.1992 75.6C93.1992 76.4837 93.9156 77.2 94.7992 77.2Z" fill="white"/>
<path d="M94.7992 83.5994C95.6829 83.5994 96.3992 82.8831 96.3992 81.9994C96.3992 81.1158 95.6829 80.3994 94.7992 80.3994C93.9156 80.3994 93.1992 81.1158 93.1992 81.9994C93.1992 82.8831 93.9156 83.5994 94.7992 83.5994Z" fill="white"/>
<path d="M94.7992 86.7996C95.6829 86.7996 96.3992 86.0833 96.3992 85.1996C96.3992 84.316 95.6829 83.5996 94.7992 83.5996C93.9156 83.5996 93.1992 84.316 93.1992 85.1996C93.1992 86.0833 93.9156 86.7996 94.7992 86.7996Z" fill="white"/>
<path d="M94.7992 93.2C95.6829 93.2 96.3992 92.4837 96.3992 91.6C96.3992 90.7163 95.6829 90 94.7992 90C93.9156 90 93.1992 90.7163 93.1992 91.6C93.1992 92.4837 93.9156 93.2 94.7992 93.2Z" fill="white"/>
</mask>
<g mask="url(#mask0_1855_687)">
<path d="M100 0H0V100H100V0Z" fill="#0A2F66"/>
</g>
<mask id="mask1_1855_687" style="mask-type:luminance" maskUnits="userSpaceOnUse" x="3" y="3" width="23" height="23">
<path fill-rule="evenodd" clip-rule="evenodd" d="M3.59961 11.5996V17.9996C3.59961 20.1213 4.44246 22.1562 5.94276 23.6565C6.68562 24.3993 7.56754 24.9886 8.53814 25.3906C9.50875 25.7927 10.549 25.9996 11.5996 25.9996H17.9996C20.1213 25.9996 22.1562 25.1568 23.6565 23.6565C25.1568 22.1562 25.9996 20.1213 25.9996 17.9996V11.5996C25.9996 10.549 25.7927 9.50875 25.3906 8.53814C24.9886 7.56754 24.3993 6.68562 23.6565 5.94276C22.9136 5.19989 22.0317 4.61061 21.0611 4.20857C20.0905 3.80654 19.0502 3.59961 17.9996 3.59961H11.5996C10.549 3.59961 9.50875 3.80654 8.53814 4.20857C7.56754 4.61061 6.68562 5.19989 5.94276 5.94276C4.44246 7.44305 3.59961 9.47788 3.59961 11.5996ZM11.5996 6.79961H17.9996C19.2726 6.79961 20.4935 7.30532 21.3937 8.2055C22.2939 9.10567 22.7996 10.3266 22.7996 11.5996V17.9996C22.7996 19.2726 22.2939 20.4935 21.3937 21.3937C20.4935 22.2939 19.2726 22.7996 17.9996 22.7996H11.5996C10.3266 22.7996 9.10567 22.2939 8.2055 21.3937C7.30532 20.4935 6.79961 19.2726 6.79961 17.9996V11.5996C6.79961 10.3266 7.30532 9.10567 8.2055 8.2055C9.10567 7.30532 10.3266 6.79961 11.5996 6.79961Z" fill="white"/>
</mask>
<g mask="url(#mask1_1855_687)">
<path d="M25.9996 3.59961H3.59961V25.9996H25.9996V3.59961Z" fill="#0A2F66"/>
</g>
<mask id="mask2_1855_687" style="mask-type:luminance" maskUnits="userSpaceOnUse" x="10" y="10" width="10" height="10">
<path d="M14.8 19.6C17.451 19.6 19.6 17.451 19.6 14.8C19.6 12.149 17.451 10 14.8 10C12.149 10 10 12.149 10 14.8C10 17.451 12.149 19.6 14.8 19.6Z" fill="white"/>
</mask>
<g mask="url(#mask2_1855_687)">
<path d="M19.6 10H10V19.6H19.6V10Z" fill="#0A2F66"/>
</g>
<mask id="mask3_1855_687" style="mask-type:luminance" maskUnits="userSpaceOnUse" x="74" y="3" width="23" height="23">
<path fill-rule="evenodd" clip-rule="evenodd" d="M88.4004 3.59961L82.0004 3.59961C79.8787 3.59961 77.8438 4.44246 76.3435 5.94276C74.8432 7.44305 74.0004 9.47788 74.0004 11.5996V17.9996C74.0004 20.1213 74.8432 22.1562 76.3435 23.6565C77.8438 25.1568 79.8787 25.9996 82.0004 25.9996H88.4004C89.451 25.9996 90.4913 25.7927 91.4619 25.3906C92.4325 24.9886 93.3144 24.3993 94.0572 23.6565C94.8001 22.9136 95.3894 22.0317 95.7914 21.0611C96.1935 20.0905 96.4004 19.0502 96.4004 17.9996V11.5996C96.4004 9.47788 95.5575 7.44305 94.0572 5.94276C92.557 4.44246 90.5221 3.59961 88.4004 3.59961ZM93.2004 11.5996V17.9996C93.2004 19.2726 92.6947 20.4935 91.7945 21.3937C90.8943 22.2939 89.6734 22.7996 88.4004 22.7996H82.0004C80.7274 22.7996 79.5065 22.2939 78.6063 21.3937C77.7061 20.4935 77.2004 19.2726 77.2004 17.9996V11.5996C77.2004 10.3266 77.7061 9.10567 78.6063 8.2055C79.5065 7.30532 80.7274 6.79961 82.0004 6.79961L88.4004 6.79961C89.6734 6.79961 90.8943 7.30532 91.7945 8.2055C92.6947 9.10567 93.2004 10.3266 93.2004 11.5996Z" fill="white"/>
</mask>
<g mask="url(#mask3_1855_687)">
<path d="M96.4 3.59961H74V25.9996H96.4V3.59961Z" fill="#0A2F66"/>
</g>
<mask id="mask4_1855_687" style="mask-type:luminance" maskUnits="userSpaceOnUse" x="80" y="10" width="10" height="10">
<path d="M80.4 14.8C80.4 17.451 82.549 19.6 85.2 19.6C87.851 19.6 90 17.451 90 14.8C90 12.149 87.851 10 85.2 10C82.549 10 80.4 12.149 80.4 14.8Z" fill="white"/>
</mask>
<g mask="url(#mask4_1855_687)">
<path d="M90.0004 10H80.4004V19.6H90.0004V10Z" fill="#0A2F66"/>
</g>
<mask id="mask5_1855_687" style="mask-type:luminance" maskUnits="userSpaceOnUse" x="3" y="74" width="23" height="23">
<path fill-rule="evenodd" clip-rule="evenodd" d="M11.5996 96.4004H17.9996C20.1213 96.4004 22.1562 95.5575 23.6565 94.0572C24.3993 93.3144 24.9886 92.4325 25.3906 91.4619C25.7927 90.4913 25.9996 89.451 25.9996 88.4004V82.0004C25.9996 79.8787 25.1568 77.8438 23.6565 76.3435C22.1562 74.8432 20.1213 74.0004 17.9996 74.0004H11.5996C9.47788 74.0004 7.44305 74.8432 5.94276 76.3435C4.44246 77.8438 3.59961 79.8787 3.59961 82.0004L3.59961 88.4004C3.59961 89.451 3.80654 90.4913 4.20858 91.4619C4.61061 92.4325 5.19989 93.3144 5.94276 94.0572C7.44305 95.5575 9.47788 96.4004 11.5996 96.4004ZM6.79961 88.4004L6.79961 82.0004C6.79961 80.7274 7.30532 79.5065 8.2055 78.6063C9.10567 77.7061 10.3266 77.2004 11.5996 77.2004H17.9996C19.2726 77.2004 20.4935 77.7061 21.3937 78.6063C22.2939 79.5065 22.7996 80.7274 22.7996 82.0004V88.4004C22.7996 89.6734 22.2939 90.8943 21.3937 91.7945C20.4935 92.6947 19.2726 93.2004 17.9996 93.2004H11.5996C10.3266 93.2004 9.10567 92.6947 8.2055 91.7945C7.30532 90.8943 6.79961 89.6734 6.79961 88.4004Z" fill="white"/>
</mask>
<g mask="url(#mask5_1855_687)">
<path d="M25.9996 74H3.59961V96.4H25.9996V74Z" fill="#0A2F66"/>
</g>
<mask id="mask6_1855_687" style="mask-type:luminance" maskUnits="userSpaceOnUse" x="10" y="80" width="10" height="10">
<path d="M19.6 85.2C19.6 82.549 17.451 80.4 14.8 80.4C12.149 80.4 10 82.549 10 85.2C10 87.851 12.149 90 14.8 90C17.451 90 19.6 87.851 19.6 85.2Z" fill="white"/>
</mask>
<g mask="url(#mask6_1855_687)">
<path d="M19.6 80.4004H10V90.0004H19.6V80.4004Z" fill="#0A2F66"/>
</g>
</g>
<defs>
<clipPath id="clip0_1855_687">
<rect width="100" height="100" fill="white"/>
</clipPath>
</defs>
</svg>
