<svg width="200" height="200" viewBox="0 0 200 200" fill="none" xmlns="http://www.w3.org/2000/svg">
<path fill-rule="evenodd" clip-rule="evenodd" d="M113.91 35.5287C81.6008 35.5287 54.8892 63.2541 54.8892 98.1133V111.575L15.7863 74.2866C13.4823 72.0895 13.3957 68.4408 15.5927 66.1368C17.7898 63.8329 21.4386 63.7462 23.7425 65.9433L44.364 85.6082C50.0054 50.8299 78.7717 24 113.91 24C153.161 24 184.461 57.4763 184.461 98.1133C184.461 138.75 153.161 172.227 113.91 172.227H111.812L77.8201 143.703C75.3814 141.657 75.0633 138.021 77.1097 135.582C79.1561 133.143 82.792 132.825 85.2308 134.872L115.964 160.66C147.344 159.515 172.932 132.231 172.932 98.1133C172.932 63.2541 146.22 35.5287 113.91 35.5287Z" fill="#18153C"/>
<path fill-rule="evenodd" clip-rule="evenodd" d="M118.888 67.674C121.602 67.3884 124.033 69.3568 124.319 72.0705L127.613 103.363C127.899 106.077 125.93 108.508 123.217 108.794C120.503 109.079 118.071 107.111 117.786 104.397L114.492 73.105C114.206 70.3912 116.174 67.9597 118.888 67.674Z" fill="#18153C"/>
<path fill-rule="evenodd" clip-rule="evenodd" d="M146.887 67.674C149.601 67.3884 152.032 69.3568 152.318 72.0705L155.612 103.363C155.897 106.077 153.929 108.508 151.215 108.794C148.502 109.079 146.07 107.111 145.784 104.397L142.49 73.105C142.205 70.3912 144.173 67.9597 146.887 67.674Z" fill="#18153C"/>
<path fill-rule="evenodd" clip-rule="evenodd" d="M108.397 122.018C111.113 122.284 113.099 124.702 112.832 127.417C112.732 128.437 113.074 130.275 115.384 131.671C117.936 133.214 123.576 134.62 134.875 132.284C137.547 131.731 140.161 133.449 140.714 136.122C141.266 138.794 139.548 141.408 136.876 141.961C124.528 144.514 115.922 143.543 110.272 140.128C104.38 136.567 102.565 130.867 102.998 126.453C103.264 123.738 105.681 121.752 108.397 122.018Z" fill="#18153C"/>
</svg>
