<svg width="24" height="24" viewBox="0 0 24 24" fill="none" xmlns="http://www.w3.org/2000/svg">
<path fill-rule="evenodd" clip-rule="evenodd" d="M18.0889 11.1127C18.0889 8.46346 16.3945 6.20969 14.0297 5.37441L14.0297 5.02817C14.0297 4.85309 14.0075 4.68319 13.9657 4.52113C13.7404 3.64636 12.9458 3 12 3C11.0543 3 10.2597 3.64636 10.0344 4.52113C9.99263 4.68319 9.97043 4.85309 9.97043 5.02817L9.97043 5.37437C7.60551 6.20963 5.91115 8.46343 5.91115 11.1127L5.91115 12.9015C5.91115 13.0589 5.87447 13.2142 5.80401 13.355L4.10845 16.7437C3.77107 17.4179 4.26173 18.2113 5.01612 18.2113H9.20932C9.20932 19.7514 10.4588 21 12 21C13.5413 21 14.7908 19.7514 14.7908 18.2113H18.9839C19.7383 18.2113 20.2289 17.4179 19.8916 16.7437L18.196 13.355C18.1255 13.2142 18.0889 13.0589 18.0889 12.9015V11.1127ZM13.2686 18.2113H10.7315C10.7315 18.9113 11.2995 19.4789 12 19.4789C12.7006 19.4789 13.2686 18.9113 13.2686 18.2113ZM16.5666 12.9015V11.1127C16.5666 8.59239 14.5221 6.5493 12 6.5493C9.47791 6.5493 7.43336 8.59239 7.43336 11.1127L7.43336 12.9015C7.43336 13.295 7.34166 13.6832 7.16552 14.0352L5.83712 16.6901H18.1629L16.8345 14.0352C16.6583 13.6832 16.5666 13.295 16.5666 12.9015Z" fill="#131F60"/>
</svg>
