<svg width="24" height="24" viewBox="0 0 24 24" fill="none" xmlns="http://www.w3.org/2000/svg">
<path fill-rule="evenodd" clip-rule="evenodd" d="M5 6.25C4.86193 6.25 4.75 6.36193 4.75 6.5V17.5C4.75 17.6381 4.86193 17.75 5 17.75H19C19.1381 17.75 19.25 17.6381 19.25 17.5V9.38889C19.25 9.25082 19.1381 9.13889 19 9.13889H12.7797C12.2723 9.13889 11.7899 8.91869 11.4576 8.53537L9.55059 6.33622C9.50311 6.28146 9.4342 6.25 9.36171 6.25H5ZM3.25 6.5C3.25 5.5335 4.0335 4.75 5 4.75H9.36171C9.86908 4.75 10.3515 4.9702 10.6839 5.35352L12.5908 7.55267C12.6383 7.60743 12.7072 7.63889 12.7797 7.63889H19C19.9665 7.63889 20.75 8.42239 20.75 9.38889V17.5C20.75 18.4665 19.9665 19.25 19 19.25H5C4.0335 19.25 3.25 18.4665 3.25 17.5V6.5Z" fill="#131F60"/>
</svg>
