<svg width="24" height="24" viewBox="0 0 24 24" fill="none" xmlns="http://www.w3.org/2000/svg">
<path fill-rule="evenodd" clip-rule="evenodd" d="M12 19.5C16.1421 19.5 19.5 16.1421 19.5 12C19.5 7.85786 16.1421 4.5 12 4.5C7.85786 4.5 4.5 7.85786 4.5 12C4.5 16.1421 7.85786 19.5 12 19.5ZM12 21C16.9706 21 21 16.9706 21 12C21 7.02944 16.9706 3 12 3C7.02944 3 3 7.02944 3 12C3 16.9706 7.02944 21 12 21Z" fill="#131F60"/>
<path d="M13.0019 8.87596C13.0019 9.4978 12.4978 10.0019 11.876 10.0019C11.2541 10.0019 10.75 9.4978 10.75 8.87596C10.75 8.25411 11.2541 7.75 11.876 7.75C12.4978 7.75 13.0019 8.25411 13.0019 8.87596Z" fill="#131F60"/>
<path fill-rule="evenodd" clip-rule="evenodd" d="M11.25 11.25C10.8358 11.25 10.5 11.5858 10.5 12C10.5 12.4142 10.8358 12.75 11.25 12.75H11.2999V14.75H11.25C10.8358 14.75 10.5 15.0858 10.5 15.5C10.5 15.9142 10.8358 16.25 11.25 16.25H12.75C13.1642 16.25 13.5 15.9142 13.5 15.5C13.5 15.1026 13.1909 14.7773 12.7999 14.7516V12.1C12.7999 11.6306 12.4194 11.25 11.9499 11.25H11.25Z" fill="#131F60"/>
</svg>
