<svg width="24" height="24" viewBox="0 0 24 24" fill="none" xmlns="http://www.w3.org/2000/svg">
<path d="M15.9668 10.8359C15.4866 12.1552 15.2836 13.3657 15.8105 14.1274C15.8646 14.2062 15.9437 14.2645 16.0331 14.297L16.1397 14.3358C16.3847 14.425 16.5107 14.6992 16.4206 14.9469L16.0704 15.909C15.9802 16.1567 15.7074 16.2858 15.4624 16.1966L11.4374 14.7316L9.40905 20.3044C9.2958 20.6156 8.95508 20.776 8.64817 20.6643L7.59937 20.2826C7.29246 20.1709 7.13458 19.8289 7.24783 19.5178L9.27616 13.945L5.3569 12.5185C5.11189 12.4293 4.98584 12.1551 5.07599 11.9074L5.42617 10.9453C5.51633 10.6976 5.78916 10.5685 6.03417 10.6577L6.14421 10.6977C6.23362 10.7303 6.33111 10.7353 6.42339 10.7118C7.33931 10.4743 8.06812 9.44818 8.54863 8.12798C9.06015 6.72261 9.13644 5.40293 8.46022 4.65286C8.40754 4.59432 8.34197 4.54978 8.26804 4.52287C8.02303 4.4337 7.89698 4.15947 7.98713 3.91177L8.33731 2.94965C8.42661 2.70164 8.69944 2.57259 8.94445 2.66177L19.05 6.33987C19.295 6.42904 19.421 6.70327 19.3309 6.95097L18.9807 7.91309C18.8905 8.16079 18.6177 8.28984 18.3727 8.20066C18.2979 8.17344 18.217 8.16565 18.1387 8.1775C17.1508 8.32385 16.4777 9.43222 15.9668 10.8359Z" fill="#131F60"/>
</svg>
