<svg width="24" height="24" viewBox="0 0 24 24" fill="none" xmlns="http://www.w3.org/2000/svg">
<path d="M18.929 11.214C18.9289 9.67433 18.4681 8.16991 17.6058 6.89431C16.7436 5.61871 15.5194 4.63029 14.0908 4.05624C12.6621 3.48219 11.0943 3.34877 9.58922 3.67315C8.0841 3.99753 6.71048 4.76486 5.64509 5.87641C4.57971 6.98797 3.8713 8.39289 3.61103 9.91041C3.35076 11.4279 3.55052 12.9886 4.18463 14.3916C4.81873 15.7947 5.85816 16.9759 7.16916 17.7833C8.48017 18.5906 10.0028 18.9873 11.5411 18.9221C11.3953 18.5082 11.2974 18.0789 11.2492 17.6428H11.2145C9.94301 17.6428 8.70008 17.2657 7.64288 16.5593C6.58568 15.8529 5.76169 14.8489 5.27511 13.6742C4.78854 12.4995 4.66123 11.2069 4.90928 9.95982C5.15733 8.71277 5.76961 7.56728 6.66869 6.6682C7.56777 5.76912 8.71326 5.15685 9.96031 4.90879C11.2074 4.66074 12.5 4.78805 13.6747 5.27462C14.8494 5.7612 15.8534 6.58519 16.5598 7.64239C17.2662 8.69959 17.6432 9.94252 17.6432 11.214V11.2487C18.0868 11.2989 18.515 11.3979 18.9226 11.5406C18.9264 11.4326 18.929 11.3233 18.929 11.214ZM11.3585 15.7116C11.4665 15.2384 11.6311 14.7871 11.8471 14.3667C11.298 14.4778 10.7294 14.4431 10.1979 14.266C9.66635 14.0889 9.19055 13.7756 8.81786 13.3574C8.70243 13.2376 8.54509 13.1673 8.3789 13.1611C8.21271 13.155 8.05059 13.2134 7.9266 13.3243C7.80261 13.4351 7.72641 13.5897 7.71398 13.7555C7.70156 13.9214 7.75389 14.0856 7.85998 14.2137C8.29776 14.7041 8.83786 15.0924 9.44215 15.3512C10.0464 15.61 10.7015 15.7331 11.3585 15.7116ZM9.92875 9.92826C9.92875 10.184 9.82715 10.4293 9.64631 10.6101C9.46547 10.791 9.22019 10.8926 8.96444 10.8926C8.70869 10.8926 8.46341 10.791 8.28257 10.6101C8.10172 10.4293 8.00013 10.184 8.00013 9.92826C8.00013 9.67251 8.10172 9.42723 8.28257 9.24639C8.46341 9.06555 8.70869 8.96395 8.96444 8.96395C9.22019 8.96395 9.46547 9.06555 9.64631 9.24639C9.82715 9.42723 9.92875 9.67251 9.92875 9.92826ZM13.4646 10.8926C13.7203 10.8926 13.9656 10.791 14.1464 10.6101C14.3273 10.4293 14.4289 10.184 14.4289 9.92826C14.4289 9.67251 14.3273 9.42723 14.1464 9.24639C13.9656 9.06555 13.7203 8.96395 13.4646 8.96395C13.2088 8.96395 12.9635 9.06555 12.7827 9.24639C12.6018 9.42723 12.5002 9.67251 12.5002 9.92826C12.5002 10.184 12.6018 10.4293 12.7827 10.6101C12.9635 10.791 13.2088 10.8926 13.4646 10.8926ZM21.5005 16.9999C21.5005 18.1934 21.0264 19.338 20.1824 20.1819C19.3385 21.0259 18.1939 21.5 17.0004 21.5C15.8069 21.5 14.6622 21.0259 13.8183 20.1819C12.9744 19.338 12.5002 18.1934 12.5002 16.9999C12.5002 15.8064 12.9744 14.6617 13.8183 13.8178C14.6622 12.9739 15.8069 12.4998 17.0004 12.4998C18.1939 12.4998 19.3385 12.9739 20.1824 13.8178C21.0264 14.6617 21.5005 15.8064 21.5005 16.9999ZM17.6432 14.4284C17.6432 14.2579 17.5755 14.0944 17.4549 13.9738C17.3344 13.8532 17.1709 13.7855 17.0004 13.7855C16.8299 13.7855 16.6663 13.8532 16.5458 13.9738C16.4252 14.0944 16.3575 14.2579 16.3575 14.4284V16.357H14.4289C14.2584 16.357 14.0949 16.4247 13.9743 16.5453C13.8537 16.6659 13.786 16.8294 13.786 16.9999C13.786 17.1704 13.8537 17.3339 13.9743 17.4545C14.0949 17.575 14.2584 17.6428 14.4289 17.6428H16.3575V19.5714C16.3575 19.7419 16.4252 19.9054 16.5458 20.026C16.6663 20.1465 16.8299 20.2143 17.0004 20.2143C17.1709 20.2143 17.3344 20.1465 17.4549 20.026C17.5755 19.9054 17.6432 19.7419 17.6432 19.5714V17.6428H19.5719C19.7424 17.6428 19.9059 17.575 20.0264 17.4545C20.147 17.3339 20.2147 17.1704 20.2147 16.9999C20.2147 16.8294 20.147 16.6659 20.0264 16.5453C19.9059 16.4247 19.7424 16.357 19.5719 16.357H17.6432V14.4284Z" fill="#131F60"/>
</svg>
