<svg width="24" height="24" viewBox="0 0 24 24" fill="none" xmlns="http://www.w3.org/2000/svg">
<g clip-path="url(#clip0_3928_30606)">
<path d="M20.877 9.59553C20.7236 9.1072 20.4171 8.68121 20.0029 8.38055C19.5886 8.07989 19.0886 7.92053 18.5768 7.92603H15.3L14.3048 4.82403C14.1483 4.33575 13.8407 3.90979 13.4265 3.60758C13.0123 3.30536 12.5128 3.14252 12 3.14252C11.4873 3.14252 10.9878 3.30536 10.5735 3.60758C10.1593 3.90979 9.85178 4.33575 9.69527 4.82403L8.70002 7.92603H5.42327C4.91308 7.92675 4.41617 8.08869 4.00351 8.38871C3.59085 8.68872 3.28355 9.11147 3.12551 9.59657C2.96747 10.0817 2.96677 10.6043 3.12352 11.0898C3.28026 11.5753 3.58642 11.9989 3.99827 12.3L6.66527 14.25L5.65127 17.3903C5.48741 17.8773 5.48533 18.4043 5.64535 18.8926C5.80538 19.3809 6.11893 19.8044 6.53927 20.1C6.95241 20.4051 7.45307 20.5685 7.96664 20.566C8.48021 20.5634 8.9792 20.395 9.38927 20.0858L12 18.1643L14.6115 20.0835C15.0239 20.3869 15.5219 20.5516 16.0338 20.5541C16.5457 20.5566 17.0453 20.3967 17.4606 20.0974C17.8759 19.7981 18.1856 19.3748 18.3452 18.8884C18.5048 18.402 18.5061 17.8775 18.3488 17.3903L17.3348 14.25L20.0048 12.3C20.4213 12.0027 20.7311 11.5791 20.8882 11.092C21.0453 10.6049 21.0414 10.0802 20.877 9.59553ZM19.1198 11.0888L16.0118 13.3605C15.8841 13.4537 15.7891 13.5847 15.7404 13.735C15.6916 13.8853 15.6916 14.0472 15.7403 14.1975L16.9215 17.85C16.9813 18.0353 16.9808 18.2347 16.9201 18.4197C16.8593 18.6046 16.7415 18.7655 16.5836 18.8793C16.4256 18.9931 16.2357 19.0538 16.041 19.0528C15.8464 19.0519 15.6571 18.9892 15.5003 18.8738L12.444 16.6238C12.3153 16.5292 12.1597 16.4782 12 16.4782C11.8403 16.4782 11.6847 16.5292 11.556 16.6238L8.49977 18.8738C8.34308 18.9907 8.15323 19.0547 7.95772 19.0565C7.76222 19.0583 7.57123 18.9977 7.41244 18.8836C7.25366 18.7696 7.13533 18.6079 7.07462 18.422C7.01391 18.2362 7.01396 18.0358 7.07477 17.85L8.25977 14.1975C8.30846 14.0472 8.30842 13.8853 8.25967 13.735C8.21091 13.5847 8.11593 13.4537 7.98827 13.3605L4.88027 11.0888C4.72375 10.9742 4.60745 10.813 4.54798 10.6284C4.48851 10.4437 4.48891 10.245 4.54914 10.0606C4.60936 9.87619 4.72632 9.71553 4.8833 9.60157C5.04029 9.4876 5.22928 9.42616 5.42327 9.42603H9.24827C9.40706 9.42602 9.56175 9.37562 9.69006 9.28208C9.81837 9.18854 9.91368 9.0567 9.96227 8.90553L11.1248 5.28228C11.1844 5.09687 11.3014 4.93517 11.4588 4.82046C11.6162 4.70576 11.806 4.64396 12.0008 4.64396C12.1955 4.64396 12.3853 4.70576 12.5427 4.82046C12.7001 4.93517 12.8171 5.09687 12.8768 5.28228L14.0393 8.90553C14.0879 9.0567 14.1832 9.18854 14.3115 9.28208C14.4398 9.37562 14.5945 9.42602 14.7533 9.42603H18.5783C18.7723 9.42616 18.9613 9.4876 19.1182 9.60157C19.2752 9.71553 19.3922 9.87619 19.4524 10.0606C19.5126 10.245 19.513 10.4437 19.4536 10.6284C19.3941 10.813 19.2778 10.9742 19.1213 11.0888H19.1198Z" fill="#131F60"/>
</g>
<defs>
<clipPath id="clip0_3928_30606">
<rect width="18" height="18" fill="white" transform="translate(3 3)"/>
</clipPath>
</defs>
</svg>
