<svg width="24" height="24" viewBox="0 0 24 24" fill="none" xmlns="http://www.w3.org/2000/svg">
<path fill-rule="evenodd" clip-rule="evenodd" d="M15.583 7.66502C17.1572 9.91518 16.6108 13.0166 14.3626 14.5922C12.1144 16.1677 9.01568 15.6209 7.44146 13.3707C5.86724 11.1205 6.41362 8.01916 8.66184 6.44357C10.9101 4.86799 14.0088 5.41485 15.583 7.66502ZM15.8519 15.3777C18.2822 13.2092 18.7596 9.51462 16.8463 6.77969C14.7835 3.83123 10.7232 3.11466 7.77728 5.1792C4.83137 7.24374 4.11543 11.3076 6.17818 14.256C8.09154 16.991 11.7236 17.8056 14.5908 16.2615C14.5986 16.2742 14.6069 16.2868 14.6155 16.2992L16.9743 19.6708C17.2186 20.02 17.6994 20.1048 18.0483 19.8604C18.3971 19.6159 18.4819 19.1347 18.2376 18.7855L15.8788 15.4139C15.8701 15.4015 15.8612 15.3894 15.8519 15.3777Z" fill="#131F60"/>
</svg>
