<svg width="24" height="24" viewBox="0 0 24 24" fill="none" xmlns="http://www.w3.org/2000/svg">
<path fill-rule="evenodd" clip-rule="evenodd" d="M12.3787 2.68475C11.4843 1.99116 10.1767 2.31615 9.71117 3.34775L6.62709 10.1813L7.29855 10.4843L6.62709 10.1813C6.52498 10.4075 6.47217 10.6529 6.47217 10.9012V21.43C6.47217 21.8442 6.80795 22.18 7.22217 22.18H17.7599C19.0468 22.18 20.1616 21.2875 20.4432 20.0318L22.1851 12.2645C22.5706 10.5457 21.2633 8.9127 19.5018 8.9127H14.3055V5.03645C14.3055 4.49554 14.0554 3.98504 13.6279 3.65356L13.1683 4.24623L13.6279 3.65356L12.3787 2.68475Z" fill="#131F60"/>
<path fill-rule="evenodd" clip-rule="evenodd" d="M2.25 11.686C2.25 10.7195 3.0335 9.93597 4 9.93597H7.97222V22.18H4C3.0335 22.18 2.25 21.3965 2.25 20.43V11.686ZM4 11.436C3.86193 11.436 3.75 11.5479 3.75 11.686V20.43C3.75 20.5681 3.86193 20.68 4 20.68H6.47222V11.436H4Z" fill="#131F60"/>
</svg>
