<svg width="300" height="300" viewBox="0 0 300 300" fill="none" xmlns="http://www.w3.org/2000/svg">
<g clip-path="url(#clip0_1920_3272)">
<path d="M150.008 0C87.3672 0 69.0472 0.0646208 65.4861 0.36003C52.6312 1.42858 44.632 3.4526 35.9174 7.79143C29.2015 11.1263 23.9049 14.992 18.6775 20.411C9.15747 30.2933 3.38775 42.4513 1.29911 56.9033C0.283641 63.9193 -0.0117689 65.3501 -0.071774 101.187C-0.0948528 113.133 -0.071774 128.854 -0.071774 149.941C-0.071774 212.531 -0.00253732 230.833 0.297488 234.387C1.33604 246.895 3.29774 254.765 7.45194 263.374C15.3911 279.852 30.5539 292.222 48.4169 296.838C54.6021 298.431 61.4334 299.308 70.2034 299.723C73.9191 299.885 111.792 300 149.687 300C187.583 300 225.478 299.954 229.101 299.769C239.256 299.291 245.153 298.5 251.673 296.815C269.651 292.176 284.537 279.991 292.638 263.282C296.711 254.881 298.777 246.711 299.711 234.855C299.914 232.27 300 191.058 300 149.902C300 108.738 299.908 67.6026 299.704 65.0178C298.758 52.9706 296.693 44.87 292.488 36.3077C289.037 29.2986 285.206 24.0643 279.644 18.7124C269.718 9.23155 257.579 3.46183 243.113 1.3755C236.104 0.362338 234.707 0.062313 198.843 0H150.008Z" fill="url(#paint0_radial_1920_3272)"/>
<path d="M150.008 0C87.3672 0 69.0472 0.0646208 65.4861 0.36003C52.6312 1.42858 44.632 3.4526 35.9174 7.79143C29.2015 11.1263 23.9049 14.992 18.6775 20.411C9.15747 30.2933 3.38775 42.4513 1.29911 56.9033C0.283641 63.9193 -0.0117689 65.3501 -0.071774 101.187C-0.0948528 113.133 -0.071774 128.854 -0.071774 149.941C-0.071774 212.531 -0.00253732 230.833 0.297488 234.387C1.33604 246.895 3.29774 254.765 7.45194 263.374C15.3911 279.852 30.5539 292.222 48.4169 296.838C54.6021 298.431 61.4334 299.308 70.2034 299.723C73.9191 299.885 111.792 300 149.687 300C187.583 300 225.478 299.954 229.101 299.769C239.256 299.291 245.153 298.5 251.673 296.815C269.651 292.176 284.537 279.991 292.638 263.282C296.711 254.881 298.777 246.711 299.711 234.855C299.914 232.27 300 191.058 300 149.902C300 108.738 299.908 67.6026 299.704 65.0178C298.758 52.9706 296.693 44.87 292.488 36.3077C289.037 29.2986 285.206 24.0643 279.644 18.7124C269.718 9.23155 257.579 3.46183 243.113 1.3755C236.104 0.362338 234.707 0.062313 198.843 0H150.008Z" fill="url(#paint1_radial_1920_3272)"/>
<g filter="url(#filter0_d_1920_3272)">
<path d="M149.972 39.2344C119.886 39.2344 116.111 39.3659 104.294 39.9037C92.5009 40.4437 84.451 42.3108 77.4073 45.0503C70.1213 47.8797 63.9408 51.6647 57.7833 57.8244C51.6213 63.9819 47.8364 70.1624 44.9976 77.4461C42.2513 84.492 40.3819 92.5443 39.8511 104.333C39.3226 116.149 39.1841 119.927 39.1841 150.013C39.1841 180.099 39.3179 183.863 39.8534 195.679C40.3957 207.472 42.2628 215.522 45 222.566C47.8317 229.852 51.6167 236.033 57.7764 242.19C63.9316 248.352 70.1121 252.146 77.3935 254.976C84.4418 257.715 92.494 259.582 104.285 260.122C116.101 260.66 119.875 260.792 149.958 260.792C180.046 260.792 183.81 260.66 195.627 260.122C207.42 259.582 215.479 257.715 222.527 254.976C229.811 252.146 235.982 248.352 242.137 242.19C248.299 236.033 252.084 229.852 254.923 222.568C257.646 215.522 259.516 207.47 260.07 195.681C260.601 183.865 260.739 180.099 260.739 150.013C260.739 119.927 260.601 116.152 260.07 104.335C259.516 92.542 257.646 84.492 254.923 77.4484C252.084 70.1624 248.299 63.9819 242.137 57.8244C235.975 51.6623 229.813 47.8774 222.52 45.0503C215.458 42.3108 207.404 40.4437 195.61 39.9037C183.794 39.3659 180.032 39.2344 149.937 39.2344H149.972ZM140.034 59.1976C142.984 59.193 146.275 59.1976 149.972 59.1976C179.55 59.1976 183.056 59.3038 194.736 59.8346C205.537 60.3285 211.399 62.1332 215.304 63.6495C220.473 65.6574 224.159 68.0576 228.034 71.9348C231.911 75.8121 234.311 79.5047 236.324 84.6744C237.84 88.5747 239.647 94.4367 240.139 105.238C240.67 116.916 240.785 120.424 240.785 149.988C240.785 179.552 240.67 183.06 240.139 194.738C239.645 205.538 237.84 211.4 236.324 215.301C234.316 220.47 231.911 224.152 228.034 228.026C224.157 231.904 220.476 234.304 215.304 236.312C211.403 237.835 205.537 239.635 194.736 240.129C183.058 240.66 179.55 240.775 149.972 240.775C120.392 240.775 116.886 240.66 105.208 240.129C94.4072 239.631 88.5452 237.826 84.6379 236.309C79.4683 234.302 75.7756 231.901 71.8984 228.024C68.0211 224.147 65.6209 220.464 63.6085 215.292C62.0922 211.391 60.2851 205.529 59.7935 194.728C59.2627 183.05 59.1565 179.542 59.1565 149.96C59.1565 120.377 59.2627 116.888 59.7935 105.21C60.2874 94.409 62.0922 88.547 63.6085 84.6421C65.6163 79.4724 68.0211 75.7798 71.8984 71.9025C75.7756 68.0253 79.4683 65.6251 84.6379 63.6126C88.5429 62.0894 94.4072 60.2892 105.208 59.793C115.427 59.3315 119.388 59.193 140.034 59.1699V59.1976ZM209.105 77.5915C201.766 77.5915 195.811 83.5389 195.811 90.8803C195.811 98.2194 201.766 104.174 209.105 104.174C216.444 104.174 222.398 98.2194 222.398 90.8803C222.398 83.5412 216.444 77.5868 209.105 77.5868V77.5915ZM149.972 93.1235C118.555 93.1235 93.0825 118.596 93.0825 150.013C93.0825 181.43 118.555 206.891 149.972 206.891C181.389 206.891 206.852 181.43 206.852 150.013C206.852 118.596 181.387 93.1235 149.97 93.1235H149.972ZM149.972 113.087C170.364 113.087 186.898 129.618 186.898 150.013C186.898 170.405 170.364 186.939 149.972 186.939C129.577 186.939 113.046 170.405 113.046 150.013C113.046 129.618 129.577 113.087 149.972 113.087V113.087Z" fill="white"/>
</g>
</g>
<defs>
<filter id="filter0_d_1920_3272" x="19.1841" y="29.2344" width="261.555" height="261.557" filterUnits="userSpaceOnUse" color-interpolation-filters="sRGB">
<feFlood flood-opacity="0" result="BackgroundImageFix"/>
<feColorMatrix in="SourceAlpha" type="matrix" values="0 0 0 0 0 0 0 0 0 0 0 0 0 0 0 0 0 0 127 0" result="hardAlpha"/>
<feOffset dy="10"/>
<feGaussianBlur stdDeviation="10"/>
<feComposite in2="hardAlpha" operator="out"/>
<feColorMatrix type="matrix" values="0 0 0 0 0 0 0 0 0 0 0 0 0 0 0 0 0 0 0.15 0"/>
<feBlend mode="normal" in2="BackgroundImageFix" result="effect1_dropShadow_1920_3272"/>
<feBlend mode="normal" in="SourceGraphic" in2="effect1_dropShadow_1920_3272" result="shape"/>
</filter>
<radialGradient id="paint0_radial_1920_3272" cx="0" cy="0" r="1" gradientUnits="userSpaceOnUse" gradientTransform="translate(79.6276 323.106) rotate(-90) scale(297.322 276.608)">
<stop stop-color="#FFDD55"/>
<stop offset="0.1" stop-color="#FFDD55"/>
<stop offset="0.5" stop-color="#FF543E"/>
<stop offset="1" stop-color="#C837AB"/>
</radialGradient>
<radialGradient id="paint1_radial_1920_3272" cx="0" cy="0" r="1" gradientUnits="userSpaceOnUse" gradientTransform="translate(-50.3473 21.6115) rotate(78.6776) scale(132.906 547.981)">
<stop stop-color="#3771C8"/>
<stop offset="0.128" stop-color="#3771C8"/>
<stop offset="1" stop-color="#6600FF" stop-opacity="0"/>
</radialGradient>
<clipPath id="clip0_1920_3272">
<rect width="300" height="300" fill="white"/>
</clipPath>
</defs>
</svg>
