<svg width="316" height="300" viewBox="0 0 316 300" fill="none" xmlns="http://www.w3.org/2000/svg">
<g clip-path="url(#clip0_1918_3033)">
<path d="M55.9583 0H260.042C290.983 0 316 24.359 316 54.4872V245.513C316 275.641 290.983 300 260.042 300H55.9583C25.0167 300 0 275.641 0 245.513V54.4872C0 24.359 25.0167 0 55.9583 0Z" fill="#00005B"/>
<path d="M126.927 179.487H77.9468L67.9401 209.744C67.6768 210.898 66.6234 211.667 65.4384 211.539H40.6851C39.2368 211.539 38.8418 210.769 39.2368 209.231L81.6334 90.8976C82.0284 89.6156 82.4234 88.4617 82.9501 86.9233C83.4768 84.231 83.7401 81.4105 83.7401 78.5899C83.6084 77.9489 84.1351 77.3079 84.7934 77.1797H85.1884H118.895C119.817 77.1797 120.475 77.5643 120.607 78.2053L168.665 208.975C169.06 210.385 168.665 211.026 167.348 211.026H139.83C138.908 211.154 137.987 210.513 137.723 209.616L126.927 178.846V179.487ZM85.5834 153.975H119.027C118.237 151.282 117.183 148.077 115.998 144.744C114.813 141.282 113.628 137.564 112.443 133.718C111.127 129.744 109.942 125.898 108.625 121.923C107.308 117.949 106.123 114.231 105.07 110.513C104.017 106.923 103.095 103.59 102.173 100.513H101.91C100.725 106.026 99.2768 111.539 97.4334 117.051C95.4584 123.205 93.4834 129.616 91.3768 136.026C89.6651 142.564 87.5584 148.59 85.5834 153.975Z" fill="#9999FF"/>
<path d="M246.217 167.949H204.478C205.005 171.923 206.322 175.898 208.56 179.359C210.93 182.821 214.222 185.513 218.172 187.051C223.438 189.231 229.232 190.385 235.025 190.257C239.633 190.128 244.242 189.744 248.718 188.846C252.8 188.334 256.75 187.308 260.437 185.898C261.095 185.385 261.49 185.641 261.49 186.923V206.539C261.49 207.051 261.358 207.564 261.227 208.077C260.963 208.462 260.7 208.718 260.305 208.975C256.092 210.769 251.747 212.051 247.138 212.821C240.95 213.975 234.762 214.487 228.442 214.359C218.435 214.359 210.008 212.821 203.162 209.872C196.71 207.18 191.048 202.949 186.572 197.692C182.358 192.692 179.33 187.051 177.487 180.898C175.643 174.872 174.722 168.59 174.722 162.18C174.722 155.257 175.775 148.462 178.013 141.795C180.12 135.385 183.412 129.487 187.888 124.231C192.233 119.103 197.632 115 203.82 112.051C210.008 109.103 217.382 108.077 225.808 108.077C232.787 107.949 239.765 109.231 246.217 112.051C251.615 114.359 256.355 117.821 260.042 122.308C263.465 126.667 266.23 131.539 267.942 136.923C269.653 142.051 270.443 147.308 270.443 152.564C270.443 155.641 270.312 158.333 270.18 160.769C269.917 163.205 269.785 165 269.653 166.154C269.522 167.051 268.732 167.821 267.81 167.821C267.02 167.821 265.572 167.949 263.465 168.077C261.358 168.334 258.857 168.462 255.828 168.462C252.8 168.462 249.64 167.949 246.217 167.949ZM204.478 149.231H232.26C235.683 149.231 238.185 149.231 239.765 149.103C240.818 148.975 241.872 148.718 242.793 148.077V146.795C242.793 145.128 242.53 143.59 242.003 142.051C239.633 134.872 232.655 130 224.887 130.257C217.645 129.872 210.798 133.59 207.375 140C205.795 142.949 204.873 146.026 204.478 149.231Z" fill="#9999FF"/>
</g>
<defs>
<clipPath id="clip0_1918_3033">
<rect width="316" height="300" fill="white"/>
</clipPath>
</defs>
</svg>
