<svg width="400" height="300" viewBox="0 0 400 300" fill="none" xmlns="http://www.w3.org/2000/svg">
<g clip-path="url(#clip0_1918_3160)">
<path d="M344.213 172.431C330.267 172.504 318.145 175.865 307.996 180.833C304.272 173.454 300.548 166.878 299.891 162.056C299.16 156.43 298.284 152.996 299.16 146.274C300.037 139.552 303.98 129.981 303.907 129.25C303.834 128.519 303.03 125.085 294.998 125.012C286.966 124.939 280.029 126.547 279.226 128.666C278.423 130.784 276.889 135.607 275.867 140.575C274.48 147.881 259.803 173.965 251.406 187.628C248.704 182.294 246.367 177.618 245.856 173.892C245.126 168.266 244.25 164.832 245.126 158.11C246.002 151.388 249.945 141.817 249.872 141.086C249.799 140.356 248.996 136.922 240.964 136.849C232.932 136.776 225.995 138.383 225.192 140.502C224.389 142.621 223.512 147.589 221.833 152.411C220.153 157.234 200.657 200.78 195.546 212.031C192.917 217.803 190.654 222.406 189.047 225.548C189.047 225.548 188.974 225.767 188.755 226.133C187.368 228.836 186.565 230.297 186.565 230.297C186.565 230.297 186.565 230.297 186.565 230.37C185.469 232.343 184.301 234.17 183.717 234.17C183.279 234.17 182.475 228.909 183.863 221.749C186.784 206.625 193.72 183.098 193.647 182.294C193.647 181.856 194.962 177.764 189.12 175.646C183.425 173.527 181.38 177.034 180.869 177.034C180.358 177.034 179.993 178.276 179.993 178.276C179.993 178.276 186.345 151.827 167.872 151.827C156.335 151.827 140.416 164.467 132.53 175.865C127.565 178.568 116.977 184.34 105.659 190.551C101.351 192.962 96.8968 195.373 92.7347 197.638C92.4426 197.346 92.1505 196.98 91.8584 196.688C69.5145 172.796 28.1856 155.918 29.938 123.843C30.5952 112.153 34.6113 81.4664 109.31 44.2038C170.792 13.8824 219.715 22.2847 228.186 40.916C240.307 67.5112 201.972 116.902 138.445 124.063C114.202 126.766 101.497 117.414 98.2841 113.907C94.9253 110.254 94.4141 110.034 93.1728 110.765C91.1283 111.861 92.4426 115.149 93.1728 117.048C95.0713 122.017 102.884 130.784 116.101 135.095C127.784 138.895 156.188 141.013 190.581 127.716C229.062 112.811 259.146 71.3836 250.31 36.6783C241.475 1.4615 183.06 -10.1556 127.784 9.49852C94.9253 21.1887 59.2918 39.6008 33.662 63.5657C3.21295 92.0606 -1.60632 116.829 0.365199 127.204C7.44808 164.028 58.1965 187.993 78.4959 205.748C77.4736 206.332 76.5244 206.844 75.7212 207.282C65.5715 212.324 26.8712 232.562 17.2327 253.97C6.27977 278.227 18.9851 295.616 27.3824 297.954C53.4503 305.188 80.2484 292.182 94.6332 270.702C109.018 249.221 107.266 221.31 100.621 208.524C100.548 208.378 100.475 208.232 100.329 208.086C102.957 206.552 105.659 204.944 108.288 203.41C113.472 200.341 118.584 197.492 122.965 195.154C120.482 201.949 118.657 210.059 117.78 221.749C116.685 235.485 122.308 253.312 129.682 260.327C132.968 263.395 136.838 263.468 139.321 263.468C147.937 263.468 151.807 256.308 156.115 247.833C161.373 237.458 166.119 225.402 166.119 225.402C166.119 225.402 160.205 257.989 176.269 257.989C182.11 257.989 188.025 250.39 190.654 246.518C190.654 246.591 190.654 246.591 190.654 246.591C190.654 246.591 190.8 246.371 191.092 245.86C191.676 244.91 192.041 244.326 192.041 244.326C192.041 244.326 192.041 244.253 192.041 244.179C194.378 240.088 199.635 230.809 207.448 215.392C217.525 195.519 227.236 170.677 227.236 170.677C227.236 170.677 228.113 176.742 231.106 186.824C232.859 192.743 236.51 199.245 239.431 205.529C237.094 208.817 235.634 210.643 235.634 210.643C235.634 210.643 235.634 210.643 235.707 210.716C233.808 213.2 231.764 215.904 229.5 218.534C221.541 228.032 212.048 238.919 210.734 242.061C209.201 245.787 209.566 248.49 212.486 250.682C214.604 252.29 218.401 252.509 222.271 252.29C229.427 251.778 234.465 250.025 236.948 248.929C240.818 247.54 245.345 245.422 249.58 242.28C257.393 236.508 262.14 228.252 261.701 217.365C261.482 211.374 259.511 205.383 257.101 199.757C257.831 198.734 258.489 197.711 259.219 196.688C271.559 178.641 281.125 158.841 281.125 158.841C281.125 158.841 282.001 164.905 284.995 174.988C286.455 180.103 289.449 185.655 292.077 191.062C280.467 200.487 273.312 211.447 270.756 218.607C266.156 231.905 269.734 237.896 276.524 239.284C279.591 239.942 283.972 238.48 287.185 237.092C291.274 235.777 296.094 233.512 300.694 230.151C308.507 224.379 316.028 216.342 315.59 205.456C315.371 200.487 314.056 195.592 312.231 190.843C322.088 186.751 334.794 184.486 351.004 186.386C385.761 190.478 392.625 212.178 391.311 221.31C389.996 230.443 382.695 235.412 380.285 236.946C377.875 238.48 377.072 238.992 377.291 240.088C377.583 241.695 378.751 241.622 380.796 241.33C383.644 240.819 399.051 233.951 399.708 217.146C400.803 195.665 380.358 172.212 344.213 172.431ZM76.0863 262.884C64.5492 275.451 48.485 280.2 41.5481 276.181C34.1001 271.871 37.0209 253.312 51.1867 240.015C59.803 231.905 70.9019 224.379 78.2768 219.776C79.9563 218.753 82.439 217.292 85.4327 215.465C85.9439 215.173 86.236 215.027 86.236 215.027C86.8201 214.662 87.4043 214.296 87.9884 213.931C93.1728 232.928 88.2075 249.659 76.0863 262.884ZM160.059 205.748C156.042 215.538 147.645 240.599 142.534 239.211C138.153 238.042 135.451 219.046 141.658 200.268C144.797 190.843 151.442 179.591 155.312 175.207C161.592 168.193 168.529 165.855 170.208 168.705C172.326 172.431 162.541 199.611 160.059 205.748ZM229.354 238.919C227.674 239.796 226.068 240.38 225.338 239.942C224.827 239.65 226.068 238.48 226.068 238.48C226.068 238.48 234.757 229.128 238.189 224.891C240.161 222.406 242.497 219.484 244.98 216.196C244.98 216.488 244.98 216.854 244.98 217.146C244.98 228.325 234.173 235.85 229.354 238.919ZM282.804 226.717C281.563 225.84 281.782 222.918 285.944 213.785C287.55 210.205 291.347 204.214 297.846 198.442C298.576 200.78 299.087 203.045 299.014 205.163C298.941 219.265 288.865 224.525 282.804 226.717Z" fill="#E15599"/>
</g>
<defs>
<clipPath id="clip0_1918_3160">
<rect width="400" height="300" fill="white"/>
</clipPath>
</defs>
</svg>
