<svg width="339" height="300" viewBox="0 0 339 300" fill="none" xmlns="http://www.w3.org/2000/svg">
<g clip-path="url(#clip0_1918_3148)">
<path d="M169.5 180.053C186.187 180.053 199.715 166.598 199.715 150C199.715 133.402 186.187 119.946 169.5 119.946C152.812 119.946 139.285 133.402 139.285 150C139.285 166.598 152.812 180.053 169.5 180.053Z" fill="#61DAFB"/>
<path fill-rule="evenodd" clip-rule="evenodd" d="M25.0488 131.474C17.7556 138.022 14.7391 144.295 14.7391 150C14.7391 155.705 17.7556 161.977 25.0488 168.526C32.3412 175.074 43.3072 181.306 57.4852 186.691C85.7905 197.44 125.392 204.243 169.5 204.243C213.608 204.243 253.209 197.44 281.515 186.691C295.693 181.306 306.659 175.074 313.951 168.526C321.244 161.977 324.261 155.705 324.261 150C324.261 144.295 321.244 138.022 313.951 131.474C306.659 124.926 295.693 118.694 281.515 113.309C253.209 102.559 213.608 95.7569 169.5 95.7569C125.392 95.7569 85.7905 102.559 57.4852 113.309C43.3072 118.694 32.3412 124.926 25.0488 131.474ZM52.2277 99.6132C82.6021 88.0778 124.066 81.0967 169.5 81.0967C214.934 81.0967 256.398 88.0778 286.772 99.6132C301.934 105.371 314.711 112.407 323.828 120.592C332.943 128.776 339 138.702 339 150C339 161.298 332.943 171.223 323.828 179.408C314.711 187.593 301.934 194.629 286.772 200.387C256.398 211.922 214.934 218.903 169.5 218.903C124.066 218.903 82.6021 211.922 52.2277 200.387C37.0659 194.629 24.2885 187.593 15.1724 179.408C6.05707 171.223 0 161.298 0 150C0 138.702 6.05707 128.776 15.1724 120.592C24.2885 112.407 37.0659 105.371 52.2277 99.6132Z" fill="#61DAFB"/>
<path fill-rule="evenodd" clip-rule="evenodd" d="M113.405 16.3079C104.056 13.2999 97.0865 13.8379 92.1195 16.6903C87.1525 19.5426 83.1991 25.2773 81.1441 34.8339C79.0893 44.3893 79.1456 56.9518 81.5464 71.8568C86.3395 101.614 100.217 139.127 122.271 177.121C144.326 215.116 170.049 245.827 193.561 264.834C205.338 274.354 216.248 280.684 225.595 283.692C234.944 286.7 241.913 286.162 246.88 283.31C251.847 280.457 255.801 274.723 257.856 265.166C259.911 255.611 259.854 243.048 257.453 228.143C252.66 198.386 238.783 160.873 216.728 122.878C194.674 84.8839 168.951 54.1731 145.439 35.1659C133.662 25.6454 122.752 19.3156 113.405 16.3079ZM154.735 23.7893C179.966 44.1858 206.776 76.412 229.493 115.548C252.21 154.685 266.864 193.892 272.007 225.824C274.574 241.763 274.838 256.287 272.269 268.232C269.7 280.176 264.087 290.357 254.25 296.006C244.413 301.655 232.742 301.4 221.059 297.64C209.374 293.881 196.86 286.392 184.265 276.211C159.034 255.814 132.224 223.588 109.507 184.452C86.7901 145.315 72.1364 106.108 66.9929 74.176C64.4255 58.2366 64.1623 43.7127 66.731 31.7675C69.2995 19.8234 74.9128 9.6432 84.75 3.9941C94.5871 -1.65501 106.258 -1.40018 117.941 2.3594C129.626 6.11931 142.14 13.608 154.735 23.7893Z" fill="#61DAFB"/>
<path fill-rule="evenodd" clip-rule="evenodd" d="M257.856 34.834C255.801 25.2774 251.847 19.5427 246.88 16.6903C241.913 13.838 234.944 13.3 225.595 16.308C216.248 19.3157 205.338 25.6455 193.561 35.166C170.049 54.1731 144.326 84.884 122.271 122.879C100.217 160.873 86.3395 198.386 81.5464 228.143C79.1456 243.048 79.0893 255.611 81.1441 265.166C83.1991 274.723 87.1525 280.457 92.1195 283.31C97.0865 286.162 104.056 286.7 113.405 283.692C122.752 280.684 133.662 274.355 145.439 264.834C168.951 245.827 194.674 215.116 216.728 177.122C238.783 139.127 252.66 101.614 257.453 71.8569C259.854 56.9518 259.911 44.3894 257.856 34.834ZM272.007 74.1761C266.864 106.108 252.21 145.315 229.493 184.452C206.776 223.588 179.966 255.814 154.735 276.211C142.14 286.392 129.626 293.881 117.941 297.641C106.258 301.4 94.5871 301.655 84.75 296.006C74.9128 290.357 69.2995 280.177 66.731 268.232C64.1623 256.287 64.4255 241.763 66.9929 225.824C72.1364 193.892 86.7901 154.685 109.507 115.548C132.224 76.4121 159.034 44.1859 184.265 23.7894C196.86 13.6081 209.374 6.1194 221.059 2.35949C232.742 -1.40009 244.413 -1.65492 254.25 3.99419C264.087 9.64329 269.7 19.8235 272.269 31.7676C274.838 43.7128 274.574 58.2367 272.007 74.1761Z" fill="#61DAFB"/>
</g>
<defs>
<clipPath id="clip0_1918_3148">
<rect width="339" height="300" fill="white"/>
</clipPath>
</defs>
</svg>
