<svg width="300" height="300" viewBox="0 0 300 300" fill="none" xmlns="http://www.w3.org/2000/svg">
<g clip-path="url(#clip0_1920_3274)">
<path fill-rule="evenodd" clip-rule="evenodd" d="M278.271 0H22.6143C10.3857 0 0 9.67143 0 21.5857V278.4C0 290.329 6.81429 300 19.0429 300H274.7C286.943 300 300 290.329 300 278.4V21.5857C300 9.67143 290.514 0 278.271 0ZM114.286 114.286H154.671V134.871H155.114C161.271 123.771 179.457 112.5 201.943 112.5C245.1 112.5 257.143 135.414 257.143 177.857V257.143H214.286V185.671C214.286 166.671 206.7 150 188.957 150C167.414 150 157.143 164.586 157.143 188.529V257.143H114.286V114.286ZM42.8571 257.143H85.7143V114.286H42.8571V257.143ZM91.0714 64.2857C91.073 67.8028 90.3818 71.2857 89.0372 74.5355C87.6926 77.7854 85.721 80.7386 83.2349 83.2264C80.7489 85.7142 77.7972 87.6879 74.5483 89.0349C71.2994 90.3818 67.817 91.0755 64.3 91.0765C60.783 91.0774 57.3002 90.3855 54.0506 89.0403C50.8009 87.6951 47.8481 85.723 45.3608 83.2365C42.8734 80.75 40.9003 77.7979 39.5539 74.5487C38.2076 71.2996 37.5146 67.817 37.5143 64.3C37.5137 57.1988 40.3338 50.3881 45.3542 45.3659C50.3747 40.3437 57.1845 37.5212 64.2857 37.5193C71.387 37.5174 78.1982 40.3362 83.2213 45.3558C88.2445 50.3753 91.0682 57.1845 91.0714 64.2857Z" fill="#0A66C2"/>
</g>
<defs>
<clipPath id="clip0_1920_3274">
<rect width="300" height="300" fill="white"/>
</clipPath>
</defs>
</svg>
