<svg width="300" height="300" viewBox="0 0 300 300" fill="none" xmlns="http://www.w3.org/2000/svg">
<g clip-path="url(#clip0_1918_3250)">
<path d="M157.977 90.272C157.977 90.272 182.95 86.6628 188.672 100.124C194.394 113.585 196.969 121.891 184.953 128.765C172.937 135.639 101.127 165.426 101.127 165.426C101.127 165.426 47.0556 187.479 13.2966 142.513C-20.4624 97.5464 16.1575 64.0363 16.1575 64.0363C16.1575 64.0363 28.1734 51.4342 57.9271 39.6914C87.6808 27.9486 138.033 9.90469 138.033 9.90469C138.033 9.90469 184.953 -0.406146 219.284 12.4824C253.615 25.3709 275.93 52.5799 275.93 52.5799C275.93 52.5799 301.107 80.0754 299.962 114.445C298.792 149.599 287.882 164.211 287.882 164.211C287.882 164.211 271.067 195.213 226.722 211.538C182.378 227.863 171.506 234.164 171.506 234.164L190.961 264.81C190.961 264.81 202.118 287.437 179.231 294.311C156.343 301.185 145.186 284.859 145.186 284.859L98.2663 215.261L215.851 163.421C215.851 163.421 254.544 143.797 249.896 110.148C246.321 84.2701 232.444 66.9004 213.848 56.5896C192.105 43.1283 172.937 46.5653 172.937 46.5653C172.937 46.5653 152.052 49.7158 127.448 60.0266C99.9829 70.3374 65.3656 85.8036 65.3656 85.8036C65.3656 85.8036 44.4808 92.391 50.4887 109.003C56.4967 125.615 74.5206 124.183 74.5206 124.183L157.977 90.272Z" fill="#333333"/>
</g>
<defs>
<clipPath id="clip0_1918_3250">
<rect width="300" height="300" fill="white"/>
</clipPath>
</defs>
</svg>
