<svg width="285" height="300" viewBox="0 0 285 300" fill="none" xmlns="http://www.w3.org/2000/svg">
<path d="M247.103 41.9977C220.28 3.42834 166.88 -7.87225 128.492 16.4486L60.8191 59.6856C42.363 71.2319 29.5667 90.1481 25.8755 111.521C22.6764 129.454 25.3833 147.879 33.9962 163.848C28.0902 172.691 24.1529 182.518 22.4304 192.836C18.4931 214.7 23.6608 237.301 36.457 255.235C63.526 293.804 116.68 305.105 155.068 280.784L222.741 237.793C241.197 226.246 253.993 207.33 257.684 185.957C260.883 168.024 258.177 149.599 249.564 133.631C255.47 124.787 259.407 114.96 261.13 104.642C265.313 82.5324 260.145 59.9313 247.103 41.9977Z" fill="#FF3E00"/>
<path d="M121.847 258.92C99.9461 264.57 77.0606 255.972 64.2643 237.547C56.3897 226.738 53.4367 213.226 55.6515 199.96C56.1436 197.749 56.6358 195.784 57.1279 193.573L58.3584 189.642L61.8035 192.099C69.9242 197.995 78.7831 202.417 88.3803 205.365L90.8411 206.102L90.595 208.559C90.349 211.998 91.3333 215.683 93.3019 218.631C97.2392 224.281 104.13 226.984 110.774 225.264C112.25 224.773 113.727 224.281 114.957 223.544L182.383 180.553C185.829 178.342 188.043 175.148 188.782 171.218C189.52 167.287 188.536 163.111 186.321 159.917C182.383 154.267 175.493 151.81 168.849 153.53C167.373 154.021 165.896 154.512 164.666 155.249L138.827 171.709C134.644 174.411 129.968 176.377 125.046 177.605C103.145 183.255 80.2596 174.657 67.4634 156.232C59.8348 145.423 56.6358 131.911 59.0966 118.645C61.3113 105.871 69.1859 94.3244 80.2596 87.4458L147.932 44.4545C152.115 41.7521 156.791 39.7868 161.713 38.3128C183.614 32.6625 206.499 41.2608 219.296 59.6857C227.17 70.4949 230.123 84.0065 227.909 97.2724C227.416 99.4834 226.924 101.449 226.186 103.66L224.956 107.59L221.51 105.134C213.39 99.2377 204.531 94.8158 194.934 91.8678L192.473 91.1308L192.719 88.6741C192.965 85.2348 191.981 81.5499 190.012 78.6019C186.075 72.9516 179.184 70.4949 172.54 72.2146C171.064 72.7059 169.587 73.1973 168.357 73.9343L100.93 116.926C97.4853 119.137 95.2706 122.33 94.5323 126.261C93.7941 130.192 94.7784 134.368 96.9932 137.561C100.93 143.212 107.821 145.668 114.465 143.949C115.941 143.457 117.418 142.966 118.648 142.229L144.487 125.77C148.67 123.067 153.346 121.102 158.267 119.628C180.169 113.978 203.054 122.576 215.851 141.001C223.725 151.81 226.678 165.322 224.463 178.588C222.249 191.362 214.374 202.908 203.3 209.787L135.628 252.778C131.445 255.481 126.769 257.446 121.847 258.92Z" fill="white"/>
</svg>
