<svg width="300" height="300" viewBox="0 0 300 300" fill="none" xmlns="http://www.w3.org/2000/svg">
<g clip-path="url(#clip0_1918_3162)">
<path d="M300 0H0V300H300V0Z" fill="#F7DF1E"/>
<path d="M201.524 234.376C207.567 244.243 215.429 251.495 229.333 251.495C241.014 251.495 248.476 245.657 248.476 237.591C248.476 227.924 240.81 224.5 227.952 218.876L220.905 215.852C200.562 207.186 187.048 196.329 187.048 173.376C187.048 152.233 203.157 136.138 228.333 136.138C246.257 136.138 259.143 142.376 268.429 158.71L246.476 172.805C241.643 164.138 236.429 160.724 228.333 160.724C220.076 160.724 214.843 165.962 214.843 172.805C214.843 181.262 220.081 184.686 232.176 189.924L239.224 192.943C263.176 203.214 276.7 213.686 276.7 237.229C276.7 262.61 256.762 276.514 229.986 276.514C203.805 276.514 186.89 264.038 178.614 247.686L201.524 234.376ZM101.938 236.819C106.367 244.676 110.395 251.319 120.081 251.319C129.343 251.319 135.186 247.695 135.186 233.605V137.748H163.376V233.986C163.376 263.176 146.262 276.462 121.281 276.462C98.7095 276.462 85.6381 264.781 78.9905 250.712L101.938 236.819Z" fill="black"/>
</g>
<defs>
<clipPath id="clip0_1918_3162">
<rect width="300" height="300" fill="white"/>
</clipPath>
</defs>
</svg>
