<svg width="316" height="300" viewBox="0 0 316 300" fill="none" xmlns="http://www.w3.org/2000/svg">
<g clip-path="url(#clip0_1918_3043)">
<path d="M55.9583 0H260.042C290.983 0 316 24.359 316 54.4872V245.513C316 275.641 290.983 300 260.042 300H55.9583C25.0167 300 0 275.641 0 245.513V54.4872C0 24.359 25.0167 0 55.9583 0Z" fill="#330000"/>
<path d="M152.733 179.487H103.753L93.7467 209.616C93.4834 210.769 92.4301 211.539 91.2451 211.41H66.4917C65.0434 211.41 64.6484 210.641 65.0434 209.103L107.44 90.2565C107.835 88.9745 108.23 87.5642 108.757 86.0258C109.283 83.3334 109.547 80.5129 109.547 77.6924C109.415 77.0514 109.942 76.4104 110.6 76.2822H144.702C145.755 76.2822 146.282 76.6668 146.413 77.3078L194.472 209.359C194.867 210.769 194.472 211.41 193.155 211.41H165.637C164.715 211.539 163.793 210.898 163.53 210L152.733 179.487ZM111.39 153.462H144.833C144.043 150.769 142.99 147.564 141.805 144.231C140.62 140.769 139.435 137.051 138.25 133.205C136.933 129.231 135.748 125.385 134.432 121.41C133.115 117.436 131.93 113.718 130.877 110C129.823 106.41 128.902 103.077 127.98 100H127.717C126.532 105.513 125.083 111.026 123.24 116.539C121.265 122.692 119.29 129.103 117.183 135.513C115.34 142.051 113.365 148.077 111.39 153.462ZM223.833 98.7181C219.488 98.8463 215.275 97.1796 212.115 94.2309C209.087 91.0258 207.507 86.795 207.638 82.436C207.507 78.077 209.218 73.9745 212.378 71.0258C215.538 68.077 219.752 66.5386 224.097 66.5386C229.232 66.5386 233.182 68.077 236.078 71.0258C238.975 74.1027 240.555 78.2052 240.423 82.436C240.555 86.795 238.975 91.0258 235.815 94.2309C232.787 97.3078 228.31 98.9745 223.833 98.7181ZM209.087 210V111.282C209.087 110 209.613 109.487 210.798 109.487H236.868C238.053 109.487 238.58 110.128 238.58 111.282V210C238.58 211.41 238.053 212.051 236.868 212.051H211.062C209.745 212.051 209.087 211.282 209.087 210Z" fill="#FF9A00"/>
</g>
<defs>
<clipPath id="clip0_1918_3043">
<rect width="316" height="300" fill="white"/>
</clipPath>
</defs>
</svg>
