<svg width="300" height="300" viewBox="0 0 300 300" fill="none" xmlns="http://www.w3.org/2000/svg">
<g clip-path="url(#clip0_1920_3264)">
<path d="M149.514 0C108.912 0 103.816 0.177534 87.8695 0.903232C71.9539 1.63204 61.0901 4.15174 51.5843 7.84875C41.7514 11.6672 33.4105 16.7751 25.1007 25.088C16.7847 33.3977 11.6767 41.7385 7.84571 51.5682C4.13932 61.077 1.61648 71.9438 0.900123 87.8531C0.186876 103.8 0 108.898 0 149.5C0 190.102 0.180651 195.182 0.903241 211.128C1.63518 227.044 4.1549 237.907 7.84883 247.413C11.6705 257.246 16.7784 265.587 25.0913 273.896C33.398 282.212 41.739 287.333 51.5656 291.151C61.0776 294.848 71.9445 297.368 87.8571 298.097C103.804 298.822 108.896 299 149.495 299C190.101 299 195.181 298.822 211.127 298.097C227.043 297.368 237.919 294.848 247.431 291.151C257.261 287.333 265.59 282.212 273.896 273.896C282.212 265.587 287.32 257.246 291.151 247.416C294.826 237.907 297.349 227.041 298.097 211.131C298.813 195.185 299 190.102 299 149.5C299 108.898 298.813 103.803 298.097 87.8562C297.349 71.9406 294.826 61.077 291.151 51.5713C287.32 41.7385 282.212 33.3977 273.896 25.088C265.58 16.772 257.264 11.6641 247.422 7.84875C237.891 4.15174 227.021 1.63204 211.106 0.903232C195.159 0.177534 190.082 0 149.467 0L149.514 0ZM136.102 26.9411C140.083 26.9349 144.524 26.9411 149.514 26.9411C189.431 26.9411 194.162 27.0844 209.925 27.8008C224.502 28.4673 232.413 30.9029 237.683 32.9492C244.659 35.6589 249.633 38.898 254.863 44.1305C260.095 49.363 263.335 54.3464 266.05 61.323C268.097 66.5867 270.536 74.4977 271.199 89.074C271.915 104.834 272.071 109.568 272.071 149.466C272.071 189.364 271.915 194.098 271.199 209.857C270.532 224.434 268.097 232.345 266.05 237.608C263.341 244.585 260.095 249.553 254.863 254.782C249.63 260.015 244.662 263.254 237.683 265.964C232.419 268.019 224.502 270.449 209.925 271.115C194.165 271.831 189.431 271.987 149.514 271.987C109.594 271.987 104.863 271.831 89.1029 271.115C74.5265 270.442 66.6154 268.007 61.3424 265.96C54.3656 263.251 49.3822 260.012 44.1497 254.779C38.9171 249.547 35.6779 244.576 32.962 237.596C30.9157 232.332 28.4769 224.421 27.8135 209.845C27.0972 194.085 26.9539 189.351 26.9539 149.428C26.9539 109.506 27.0972 104.796 27.8135 89.0366C28.48 74.4603 30.9157 66.5493 32.962 61.2794C35.6717 54.3028 38.9171 49.3194 44.1497 44.0869C49.3822 38.8544 54.3656 35.6153 61.3424 32.8993C66.6123 30.8437 74.5265 28.4143 89.1029 27.7447C102.894 27.1218 108.239 26.9349 136.102 26.9038V26.9411ZM229.317 51.7644C219.412 51.7644 211.376 59.7906 211.376 69.6981C211.376 79.6025 219.412 87.6381 229.317 87.6381C239.221 87.6381 247.257 79.6025 247.257 69.6981C247.257 59.7938 239.221 51.7581 229.317 51.7581V51.7644ZM149.514 72.7255C107.115 72.7255 72.7387 107.101 72.7387 149.5C72.7387 191.899 107.115 226.259 149.514 226.259C191.913 226.259 226.277 191.899 226.277 149.5C226.277 107.101 191.91 72.7255 149.511 72.7255H149.514ZM149.514 99.6667C177.035 99.6667 199.348 121.976 199.348 149.5C199.348 177.02 177.035 199.333 149.514 199.333C121.99 199.333 99.6802 177.02 99.6802 149.5C99.6802 121.976 121.99 99.6667 149.514 99.6667V99.6667Z" fill="black"/>
</g>
<defs>
<clipPath id="clip0_1920_3264">
<rect width="300" height="300" fill="white"/>
</clipPath>
</defs>
</svg>
